<?xml version="1.0" standalone="no"?>
<!DOCTYPE svg PUBLIC "-//W3C//DTD SVG 1.1//EN" "http://www.w3.org/Graphics/SVG/1.1/DTD/svg11.dtd" >
<svg>
<metadata>
Created by FontForge 20120731 at Sun Apr 29 07:39:30 2018
 By www-data
Copyright (c) 2015 by . All rights reserved.
</metadata>
<defs>
<font id="Baomoi-Regular" horiz-adv-x="1124" >
  <font-face 
    font-family="Baomoi"
    font-weight="400"
    font-stretch="normal"
    units-per-em="2048"
    panose-1="0 0 0 0 0 0 0 0 0 0"
    ascent="1638"
    descent="-410"
    x-height="908"
    cap-height="1365"
    bbox="-253 -502 2487 2171"
    underline-thickness="135"
    underline-position="-134"
    unicode-range="U+0020-FB04"
  />
<missing-glyph horiz-adv-x="512" 
d="M410 51v1263h-308v-1263h308zM51 0v1365h410v-1365h-410z" />
    <glyph glyph-name=".notdef" horiz-adv-x="512" 
d="M410 51v1263h-308v-1263h308zM51 0v1365h410v-1365h-410z" />
    <glyph glyph-name="glyph1" horiz-adv-x="0" 
 />
    <glyph glyph-name="glyph2" horiz-adv-x="512" 
 />
    <glyph glyph-name="space" unicode=" " horiz-adv-x="512" 
 />
    <glyph glyph-name="exclam" unicode="!" horiz-adv-x="571" 
d="M217 307l-17 1058h170l-17 -1058h-136zM285 182q21 0 39.5 -8t32 -21.5t21.5 -31.5t8 -39t-8 -40t-21.5 -32.5t-32 -21.5t-39.5 -8t-39.5 8t-32 21.5t-21.5 32.5t-8 40t8 39t22 31.5t32 21.5t39 8z" />
    <glyph glyph-name="quotedbl" unicode="&#x22;" horiz-adv-x="629" 
d="M517 839h-106l-24 526h154zM219 839h-106l-24 526h154z" />
    <glyph glyph-name="numbersign" unicode="#" horiz-adv-x="1199" 
d="M724 515l68 336h-318l-68 -336h318zM255 399h-153l23 116h154l67 336h-153l23 116h154l85 425l122 -29l-80 -396h318l86 425l122 -26l-80 -399h153l-23 -116h-154l-67 -336h154l-24 -116h-154l-85 -426l-122 29l80 397h-318l-86 -426l-122 29z" />
    <glyph glyph-name="dollar" unicode="$" horiz-adv-x="1162" 
d="M518 -23q-144 13 -243 102q-100 90 -138 248l148 41q61 -249 278 -249q120 0 199 82q76 79 76 185q0 81 -54 137q-54 55 -184 106l-128 50q-282 109 -282 341q0 154 107 258q84 79 221 105v187h150v-187q181 -31 289 -209l-121 -79q-99 152 -247 152q-70 0 -125 -28
q-27 -14 -50 -35.5t-39 -48t-25 -56.5t-9 -61q0 -139 198 -215l134 -52q164 -63 240 -148q79 -86 79 -216q0 -160 -111 -277q-87 -93 -213 -122v-200h-150v189z" />
    <glyph glyph-name="percent" unicode="%" horiz-adv-x="1845" 
d="M417 1274q-197 0 -197 -317q0 -310 196 -310q197 0 197 314q0 313 -196 313zM413 1379q318 0 318 -419q0 -418 -314 -418q-315 0 -315 424q0 413 311 413zM1275 1389l84 -49l-790 -1365l-84 48zM1428 718q-197 0 -197 -317q0 -310 196 -310q197 0 197 314q0 313 -196 313
zM1424 823q318 0 318 -419q0 -418 -314 -418q-315 0 -315 424q0 413 311 413z" />
    <glyph glyph-name="ampersand" unicode="&#x26;" horiz-adv-x="1309" 
d="M525 682q-37 -27 -63 -48t-43 -35q-130 -117 -130 -234q0 -120 107 -197q77 -56 192 -56q178 0 298 130zM546 858q114 88 157 144q41 55 41 116q0 65 -46 108q-47 42 -115 42q-83 0 -129 -57q-37 -44 -37 -105q0 -91 129 -248zM968 354q45 79 96 225l137 -38
q-63 -195 -134 -306l197 -235h-178l-106 128q-161 -152 -390 -152q-214 0 -341 129q-106 106 -106 253q0 116 70 213q69 97 230 210l-7 9q-150 181 -150 310q0 125 89 211q81 78 209 78q133 0 215 -88q75 -80 75 -189q0 -95 -52 -168q-51 -73 -194 -184z" />
    <glyph glyph-name="quotesingle" unicode="'" horiz-adv-x="332" 
d="M219 839h-106l-24 526h154z" />
    <glyph glyph-name="parenleft" unicode="(" horiz-adv-x="601" 
d="M472 1442q-154 -393 -154 -877t154 -876l-130 -60q-71 148 -111 351q-60 298 -60 585q0 134 11.5 262t34.5 255q23 126 54 230.5t71 189.5z" />
    <glyph glyph-name="parenright" unicode=")" horiz-adv-x="601" 
d="M130 -311q154 393 154 876q0 484 -154 877l130 60q71 -150 111 -352q60 -299 60 -585q0 -133 -11.5 -261t-34.5 -255t-54 -231t-71 -189z" />
    <glyph glyph-name="asterisk" unicode="*" horiz-adv-x="951" 
d="M418 1241l-11 254h137l-11 -254l239 88l43 -129l-246 -69l158 -200l-110 -80l-141 212l-141 -212l-111 80l158 200l-245 69l42 129z" />
    <glyph glyph-name="plus" unicode="+" horiz-adv-x="1139" 
d="M503 703v410h133v-410h407v-63v-64h-407v-409h-133v409h-407v64v63h407z" />
    <glyph glyph-name="comma" unicode="," horiz-adv-x="464" 
d="M218 200l133 -49l-205 -462l-98 39z" />
    <glyph glyph-name="hyphen" unicode="-" horiz-adv-x="522" 
d="M75 537h372v-131h-372v131z" />
    <glyph glyph-name="period" unicode="." horiz-adv-x="464" 
d="M232 182q21 0 39.5 -8t32 -21.5t21.5 -32t8 -39.5t-8 -39.5t-21.5 -32t-32 -21.5t-39.5 -8t-39.5 8t-32 22t-21.5 32.5t-8 39.5t8 39t22 31.5t32 21.5t39 8z" />
    <glyph glyph-name="slash" unicode="/" horiz-adv-x="1122" 
d="M896 1392l114 -68l-783 -1351l-114 68z" />
    <glyph glyph-name="zero" unicode="0" horiz-adv-x="1171" 
d="M587 1249q-350 0 -350 -574q0 -242 74 -393q82 -166 275 -166q349 0 349 567q0 566 -348 566zM586 1389q504 0 504 -707q0 -706 -503 -706q-289 0 -407 219q-98 179 -98 497q0 697 504 697z" />
    <glyph glyph-name="one" unicode="1" horiz-adv-x="614" 
d="M452 0h-152v1194l-215 -124l-70 122l299 173h138v-1365z" />
    <glyph glyph-name="two" unicode="2" horiz-adv-x="984" 
d="M94 0v135l500 563q156 175 156 325q0 101 -68 163q-70 62 -179 62q-56 0 -99 -12.5t-76.5 -39.5t-57.5 -68.5t-41 -98.5l-138 38q19 88 69 156q120 166 348 166q179 0 286 -106q105 -102 105 -264q0 -192 -138 -348l-473 -531h642v-140h-836z" />
    <glyph glyph-name="three" unicode="3" horiz-adv-x="966" 
d="M385 785h58q95 0 157 33q48 27 77 80.5t29 116.5q0 104 -66 169q-65 64 -174 64q-41 0 -75 -8t-64.5 -25t-58.5 -45t-56 -67l-125 71q134 215 379 215q160 0 264 -91q123 -107 123 -279q0 -178 -143 -291q175 -123 175 -335q0 -204 -146 -320q-122 -97 -288 -97
q-221 0 -345 166q-41 56 -66 137l-7 29l148 41q19 -72 50 -120q71 -110 222 -110q122 0 202 77q79 76 79 194q0 123 -75.5 189t-215.5 66h-58v140z" />
    <glyph glyph-name="four" unicode="4" horiz-adv-x="1060" 
d="M761 1312l-541 -870h448v361h152v-361h168v-139h-168v-303h-152v303h-607v156l578 930z" />
    <glyph glyph-name="five" unicode="5" horiz-adv-x="1065" 
d="M355 871q2 1 9 3.5t18 6.5q58 20 130 20q99 0 194 -42q94 -44 156 -117q107 -125 107 -297q0 -210 -154 -349q-131 -120 -314 -120q-181 0 -317 116q-47 40 -102 126l120 86q27 -57 64 -94q95 -95 231 -95q135 0 228 95q92 94 92 227q0 141 -88 233q-92 96 -229 96
q-30 0 -61 -6.5t-59.5 -18t-52.5 -28t-42 -36.5l-118 26l134 662h600v-141h-475z" />
    <glyph glyph-name="six" unicode="6" horiz-adv-x="1111" 
d="M551 750q-131 0 -221 -91q-90 -92 -90 -225t87 -224q90 -95 224 -95q131 0 223 95q90 94 90 230q0 133 -86 219q-91 91 -227 91zM647 1389l116 -87l-305 -435q55 18 105 18t98.5 -10.5t93 -30t84 -48t70.5 -64.5q105 -120 105 -288q0 -209 -151 -348q-129 -120 -309 -120
q-204 0 -340 147q-124 133 -124 318q0 161 105 310z" />
    <glyph glyph-name="seven" unicode="7" horiz-adv-x="922" 
d="M731 1224h-697v141h867v-123l-670 -1267l-131 69z" />
    <glyph glyph-name="eight" unicode="8" horiz-adv-x="1038" 
d="M516 1254q-111 0 -184 -72q-67 -67 -67 -168q0 -111 88 -178q67 -54 165 -54q115 0 187 72q67 66 67 164q0 113 -88 182q-68 54 -168 54zM516 648q-131 0 -210 -79q-74 -76 -74 -188q0 -116 81 -191t206 -75q134 0 213 82q74 76 74 183q0 113 -74 189q-79 79 -216 79z
M275 727q-149 123 -149 290q0 177 137 287q103 85 255 85q175 0 286 -111q107 -109 107 -261q0 -169 -148 -290q193 -133 193 -341q0 -197 -146 -313q-121 -97 -291 -97q-198 0 -326 128q-111 111 -111 282q0 208 193 341z" />
    <glyph glyph-name="nine" unicode="9" horiz-adv-x="1116" 
d="M561 1250q-132 0 -224 -95q-90 -93 -90 -229q0 -127 86 -215q91 -89 227 -89q130 0 221 89q90 90 90 221q0 134 -87 223q-92 95 -223 95zM464 -25l-116 87l309 437q-57 -12 -104 -12q-218 0 -351 150q-105 118 -105 285q0 208 151 347q129 120 309 120q203 0 340 -147
q124 -133 124 -318q0 -162 -104 -310z" />
    <glyph glyph-name="colon" unicode=":" horiz-adv-x="464" 
d="M232 875q21 0 39.5 -8t32 -21.5t21.5 -31.5t8 -39t-8 -39.5t-21.5 -32t-32 -21.5t-39.5 -8t-39.5 8t-32 21.5t-21.5 32.5t-8 40q0 20 8 38t22 31.5t32 21.5t39 8zM232 182q21 0 39.5 -8t32 -21.5t21.5 -32t8 -39.5t-8 -39.5t-21.5 -32t-32 -21.5t-39.5 -8t-39.5 8t-32 22
t-21.5 32.5t-8 39.5t8 39t22 31.5t32 21.5t39 8z" />
    <glyph glyph-name="semicolon" unicode=";" horiz-adv-x="465" 
d="M265 875q21 0 39.5 -8t32 -21.5t21.5 -31.5t8 -39t-8 -39.5t-21.5 -32t-32 -21.5t-39.5 -8t-39.5 8t-32 21.5t-21.5 32.5t-8 40q0 20 8 38t22 31.5t32 21.5t39 8zM218 200l134 -49l-206 -462l-98 39z" />
    <glyph glyph-name="less" unicode="&#x3c;" horiz-adv-x="1139" 
d="M1013 1173v-153l-723 -330l723 -331v-153l-887 418v133z" />
    <glyph glyph-name="equal" unicode="=" horiz-adv-x="1139" 
d="M983 569v-128h-828v128h828zM983 838v-128h-828v128h828z" />
    <glyph glyph-name="greater" unicode="&#x3e;" horiz-adv-x="1139" 
d="M126 206v153l722 331l-722 330v153l887 -417v-133z" />
    <glyph glyph-name="question" unicode="?" horiz-adv-x="863" 
d="M414 182q21 0 39.5 -8t32 -21.5t21.5 -31.5t8 -39t-8 -40t-21.5 -32.5t-32 -21.5t-39.5 -8t-39.5 8t-32 22t-21.5 32.5t-8 39.5t8 39t22 31.5t32 21.5t39 8zM339 307v154q0 97 22 142q22 46 96 111l89 76q133 114 133 240q0 97 -66 159q-64 58 -170 58q-91 0 -147 -34
q-29 -17 -58 -49t-60 -78l-110 92q123 211 367 211q174 0 277 -88q117 -101 117 -275q0 -89 -38 -162q-37 -73 -131 -162l-100 -94q-51 -48 -62 -72q-10 -21 -10 -93v-136h-149z" />
    <glyph glyph-name="at" unicode="@" horiz-adv-x="1840" 
d="M1068 369l75 586h-125q-110 0 -186 -38q-79 -41 -119 -118q-43 -82 -43 -178q0 -59 17.5 -105.5t49.5 -79t78.5 -50t104.5 -17.5h148zM1278 1068l-89 -699h47q157 0 242 103q88 103 88 300q0 217 -112 368q-151 205 -464 205q-204 0 -370 -81q-168 -83 -260 -250
q-86 -158 -86 -351q0 -314 214 -492q178 -150 496 -150q214 0 451 74l40 -109q-222 -78 -499 -78q-421 0 -635 237q-184 205 -184 514q0 227 101 412q107 195 304 293q188 94 421 94q381 0 572 -261q128 -176 128 -419q0 -259 -144 -401q-33 -33 -69 -56t-79.5 -37.5
t-95 -21t-114.5 -6.5h-278q-108 0 -196 51q-160 93 -160 308q0 196 120 322q126 131 370 131h241z" />
    <glyph glyph-name="A" unicode="A" horiz-adv-x="1270" 
d="M372 528h523l-263 689zM318 386l-146 -386h-158l526 1365h191l525 -1365h-159l-147 386h-632z" />
    <glyph glyph-name="B" unicode="B" horiz-adv-x="1070" 
d="M316 141h188q93 0 144 13q54 14 97 47q89 69 89 186q0 32 -8 62.5t-23 57t-36 48t-47 36.5q-76 43 -235 43h-169v-493zM316 765h156q86 0 133 12q44 10 85 43q82 66 82 177q0 119 -83 179q-67 49 -217 49h-156v-460zM164 0v1365h284q222 0 330 -81q31 -24 56.5 -55.5
t43.5 -68t27.5 -76.5t9.5 -81q0 -165 -157 -282q71 -28 111 -65q115 -108 115 -277q0 -175 -140 -286q-65 -51 -138 -72q-74 -21 -190 -21h-352z" />
    <glyph glyph-name="C" unicode="C" horiz-adv-x="1356" 
d="M1176 1066q-70 74 -127 108q-117 72 -260 72q-266 0 -425 -201q-124 -157 -124 -363q0 -248 171 -411q158 -152 377 -152q115 0 205 43q91 42 190 141l104 -105q-45 -45 -85.5 -77.5t-77.5 -54.5q-152 -90 -333 -90q-200 0 -366 100q-153 92 -245 252q-94 166 -94 354
q0 189 94 353q95 168 256 260q161 94 354 94q144 0 258 -51t233 -167z" />
    <glyph glyph-name="D" unicode="D" horiz-adv-x="1267" 
d="M317 1223v-1081h134q240 0 391 121q185 149 185 421q0 271 -185 418q-152 121 -391 121h-134zM164 1365h280q305 0 502 -153q235 -184 235 -528q0 -347 -235 -531q-195 -153 -502 -153h-280v1365z" />
    <glyph glyph-name="E" unicode="E" horiz-adv-x="973" 
d="M867 1224h-550v-461h489v-142h-489v-479h571v-142h-724v1365h703v-141z" />
    <glyph glyph-name="F" unicode="F" horiz-adv-x="894" 
d="M819 1224h-502v-461h458v-142h-458v-621h-153v1365h655v-141z" />
    <glyph glyph-name="G" unicode="G" horiz-adv-x="1490" 
d="M840 705h560v-75q0 -185 -68 -330q-64 -135 -186 -221q-148 -103 -352 -103q-283 0 -482 186q-109 102 -167.5 236t-58.5 281q0 190 94 356q95 168 256 260q160 94 354 94q144 0 258 -51t233 -167l-105 -105q-71 74 -127 108q-117 72 -260 72q-163 0 -294 -83
q-126 -80 -194 -218q-61 -123 -61 -265q0 -147 66 -271q70 -132 196 -209q130 -81 289 -81q185 0 308 111q138 124 144 333h-403v142z" />
    <glyph glyph-name="H" unicode="H" horiz-adv-x="1331" 
d="M317 763h698v602h153v-1365h-153v621h-698v-621h-153v1365h153v-602z" />
    <glyph glyph-name="I" unicode="I" horiz-adv-x="481" 
d="M317 1365v-1365h-153v1365h153z" />
    <glyph glyph-name="J" unicode="J" horiz-adv-x="823" 
d="M659 1365v-956q0 -129 -23 -207q-23 -77 -78 -132q-94 -94 -238 -94q-84 0 -154 33q-71 32 -159 113l93 110q116 -113 217 -113q97 0 143 70t46 220v956h153z" />
    <glyph glyph-name="K" unicode="K" horiz-adv-x="1162" 
d="M620 800l529 -800h-179l-452 688l-201 -221v-467h-153v1365h153v-698l635 698h183z" />
    <glyph glyph-name="L" unicode="L" horiz-adv-x="872" 
d="M317 1365v-1223h530v-142h-683v1365h153z" />
    <glyph glyph-name="M" unicode="M" horiz-adv-x="1659" 
d="M164 0v1365h164l502 -894l501 894h164v-1365h-153v1102l-444 -795h-137l-444 795v-1102h-153z" />
    <glyph glyph-name="N" unicode="N" horiz-adv-x="1454" 
d="M164 0v1365h143l830 -1116v1116h153v-1365h-143l-830 1116v-1116h-153z" />
    <glyph glyph-name="O" unicode="O" horiz-adv-x="1565" 
d="M778 1246q-151 0 -279 -83q-129 -83 -197 -218q-62 -122 -62 -272q0 -140 67 -264q70 -130 199 -210q131 -80 276 -80q146 0 277 80q128 79 199 210q67 125 67 273q0 240 -166 407q-156 157 -381 157zM782 1389q187 0 344 -94q164 -98 258 -260q95 -164 95 -353
q0 -188 -95 -354q-92 -158 -248 -252q-166 -100 -359 -100q-182 0 -348 100q-156 94 -248 252q-95 167 -95 365q0 184 95 342q100 168 258 260q160 94 343 94z" />
    <glyph glyph-name="P" unicode="P" horiz-adv-x="956" 
d="M317 692h145q156 0 228 69q75 72 75 199q0 125 -75 196q-73 68 -228 68h-145v-532zM317 553v-553h-153v1365h280q63 0 113.5 -5.5t92 -18t75.5 -31.5t64 -46q126 -116 126 -304q0 -190 -126 -305q-73 -67 -166 -86q-79 -16 -179 -16h-127z" />
    <glyph glyph-name="Q" unicode="Q" horiz-adv-x="1560" 
d="M911 288l102 102l129 -128q44 39 77 86q106 146 106 335q0 240 -166 406q-157 157 -377 157q-152 0 -283 -83q-126 -78 -197 -218q-62 -124 -62 -263q0 -247 173 -411q161 -152 371 -152q124 0 237 59zM1376 27l-102 -102l-146 146q-164 -95 -346 -95q-189 0 -353 100
q-156 94 -248 252q-95 166 -95 354q0 187 95 353t258 260q161 94 343 94q184 0 344 -94q163 -94 258 -260t95 -352q0 -151 -60.5 -286.5t-172.5 -238.5z" />
    <glyph glyph-name="R" unicode="R" horiz-adv-x="1092" 
d="M317 692h145q172 0 253 66q84 69 84 194q0 128 -84 202q-79 70 -253 70h-145v-532zM1041 0h-170l-307 559q-77 -6 -120 -6h-127v-553h-153v1365h280q134 0 220 -24q85 -24 150 -80q63 -54 99 -136t36 -173q0 -188 -135 -300q-43 -35 -100 -60z" />
    <glyph glyph-name="S" unicode="S" horiz-adv-x="1035" 
d="M781 1095q-98 152 -247 152q-70 0 -125 -28q-27 -14 -50 -35.5t-39 -48t-25 -56.5t-9 -61q0 -139 198 -215l134 -52q164 -63 240 -148q79 -88 79 -215q0 -186 -143 -309q-121 -103 -291 -103q-81 0 -149.5 23.5t-122.5 68.5t-92 110t-57 149l148 42q61 -250 278 -250
q120 0 199 82q76 79 76 185q0 81 -54 137q-54 55 -184 106l-128 50q-282 111 -282 341q0 178 140 285q111 84 264 84q232 0 364 -215z" />
    <glyph glyph-name="T" unicode="T" horiz-adv-x="887" 
d="M521 1224v-1224h-153v1224h-354v141h860v-141h-353z" />
    <glyph glyph-name="U" unicode="U" horiz-adv-x="1301" 
d="M317 1365v-846q0 -53 2.5 -92.5t7.5 -66.5q10 -55 36 -97q38 -62 115 -102q80 -43 172 -43q127 0 225 76q64 49 87 117q22 65 22 208v846h153v-887q0 -54 -5 -99t-15.5 -83.5t-27.5 -71.5t-41 -63q-71 -91 -181 -140q-102 -46 -216 -46q-166 0 -297 91q-103 71 -146 166
q-44 97 -44 246v887h153z" />
    <glyph glyph-name="V" unicode="V" horiz-adv-x="1133" 
d="M173 1365l394 -1186l395 1186h158l-461 -1365h-184l-461 1365h159z" />
    <glyph glyph-name="W" unicode="W" horiz-adv-x="1802" 
d="M173 1365l338 -1143l322 1143h137l322 -1143l339 1143h158l-416 -1365h-81h-77l-314 1106l-314 -1106h-76h-81l-416 1365h159z" />
    <glyph glyph-name="X" unicode="X" horiz-adv-x="1085" 
d="M627 715l445 -715h-171l-359 584l-361 -584h-167l446 713l-405 652h167l322 -521l323 521h164z" />
    <glyph glyph-name="Y" unicode="Y" horiz-adv-x="1038" 
d="M442 570l-442 795h167l352 -652l352 652h166l-442 -795v-570h-153v570z" />
    <glyph glyph-name="Z" unicode="Z" horiz-adv-x="1042" 
d="M228 142h763v-142h-943v135l758 1089h-697v141h867v-136z" />
    <glyph glyph-name="bracketleft" unicode="[" horiz-adv-x="600" 
d="M318 1356v-1581h190v-135h-337v1851h337v-135h-190z" />
    <glyph glyph-name="backslash" unicode="\" horiz-adv-x="1122" 
d="M227 1392l783 -1351l-114 -68l-783 1351z" />
    <glyph glyph-name="bracketright" unicode="]" horiz-adv-x="600" 
d="M282 1356h-190v135h337v-1851h-337v135h190v1581z" />
    <glyph glyph-name="asciicircum" unicode="^" horiz-adv-x="1024" 
d="M216 745h-166l361 625h202l361 -625h-167l-296 502z" />
    <glyph glyph-name="underscore" unicode="_" horiz-adv-x="1024" 
d="M0 -133h1024v-135h-1024v135z" />
    <glyph glyph-name="grave" unicode="`" horiz-adv-x="975" 
d="M228 1312l143 77l205 -282l-92 -53z" />
    <glyph glyph-name="a" unicode="a" 
d="M531 800q-149 0 -243 -120q-70 -88 -70 -225q0 -160 95 -255q92 -92 224 -92q156 0 247 121q68 91 68 227q0 155 -92 252q-89 92 -229 92zM995 0h-146v119q-128 -143 -319 -143q-119 0 -223 61q-112 64 -175 178q-61 109 -61 239q0 217 154 358q132 120 305 120
q187 0 319 -144v120h146v-908z" />
    <glyph glyph-name="b" unicode="b" 
d="M582 800q-149 0 -239 -121q-68 -91 -68 -224q0 -159 91 -254q88 -93 221 -93q156 0 250 121q69 88 69 229q0 156 -94 250q-92 92 -230 92zM129 0v1365h146v-577q132 144 319 144q119 0 223 -61q112 -64 175 -178q61 -109 61 -239q0 -216 -154 -358q-132 -120 -305 -120
q-191 0 -319 143v-119h-146z" />
    <glyph glyph-name="c" unicode="c" horiz-adv-x="936" 
d="M787 680q-104 120 -247 120q-160 0 -253 -120q-69 -90 -69 -225q0 -161 94 -255q92 -92 231 -92q81 0 136 28t115 99l98 -98q-82 -86 -162 -124q-80 -37 -187 -37q-217 0 -353 156q-119 137 -119 323q0 218 154 357q130 120 318 120q191 0 342 -154z" />
    <glyph glyph-name="d" unicode="d" 
d="M531 800q-149 0 -243 -120q-70 -88 -70 -225q0 -160 95 -255q92 -92 224 -92q155 0 245 121q67 89 67 227q0 157 -91 252q-87 92 -227 92zM995 0h-146v119q-128 -143 -319 -143q-119 0 -223 61q-112 64 -175 178q-61 109 -61 239q0 217 154 358q132 120 305 120
q187 0 319 -144v577h146v-1365z" />
    <glyph glyph-name="e" unicode="e" horiz-adv-x="1017" 
d="M800 517q-4 29 -10.5 53.5t-14.5 44.5q-37 90 -110 140q-68 45 -152 45q-114 0 -194 -77q-78 -75 -98 -206h579zM221 392q4 -26 10 -50.5t16 -47.5q37 -89 115 -140q70 -46 160 -46q184 0 276 161l130 -55q-67 -117 -171 -177.5t-234 -60.5q-209 0 -339 157
q-113 136 -113 324q0 127 57 237q62 114 167 178q100 60 217 60q191 0 312 -139q122 -140 122 -356v-18t-1 -27h-724z" />
    <glyph glyph-name="f" unicode="f" horiz-adv-x="511" 
d="M303 776v-776h-146v776h-92v132h92v184q0 287 220 287q34 0 90 -14v-132q-39 10 -62 10q-102 0 -102 -151v-184h168v-132h-168z" />
    <glyph glyph-name="g" unicode="g" 
d="M531 800q-149 0 -243 -120q-70 -88 -70 -225q0 -160 95 -255q92 -92 224 -92q155 0 246 121q67 89 67 227q0 155 -92 252q-87 92 -227 92zM995 908v-925q0 -198 -107 -326q-64 -76 -160 -117.5t-208 -41.5q-127 0 -224 47q-94 46 -189 154l96 96q34 -41 63.5 -68.5
t54.5 -43.5q85 -53 198 -53q154 0 242 94t88 259v136q-128 -143 -319 -143q-119 0 -223 61q-112 64 -175 178q-61 109 -61 239q0 217 154 358q132 120 305 120q187 0 319 -144v120h146z" />
    <glyph glyph-name="h" unicode="h" horiz-adv-x="1043" 
d="M275 805q100 127 273 127q167 0 272 -115q50 -54 72 -130.5t22 -195.5v-491h-146v474q0 49 -3.5 87.5t-11 68t-19 52.5t-28.5 41q-63 69 -171 69q-132 0 -203 -86q-57 -69 -57 -252v-454h-146v1365h146v-560z" />
    <glyph glyph-name="i" unicode="i" horiz-adv-x="408" 
d="M205 1314q21 0 40 -8t33.5 -22.5t22.5 -33.5t8 -40q0 -45 -30 -75t-75 -30q-21 0 -40 8.5t-33.5 22.5t-22.5 33.5t-8 41.5q0 21 8.5 39.5t22.5 33t33.5 22.5t40.5 8zM277 908v-908h-146v908h146z" />
    <glyph glyph-name="j" unicode="j" horiz-adv-x="427" 
d="M150 908h146v-1113q0 -286 -220 -286q-41 0 -90 13v133q39 -10 62 -10q102 0 102 150v1113zM223 1314q21 0 40 -8t33.5 -22.5t22.5 -33.5t8 -40q0 -45 -30 -75t-75 -30q-21 0 -40 8.5t-33.5 22.5t-22.5 33.5t-8 41.5q0 21 8.5 39.5t22.5 33t33.5 22.5t40.5 8z" />
    <glyph glyph-name="k" unicode="k" horiz-adv-x="952" 
d="M529 539l419 -539h-181l-336 441l-156 -154v-287h-146v1365h146v-896l438 439h187z" />
    <glyph glyph-name="l" unicode="l" horiz-adv-x="408" 
d="M277 0h-146v1365h146v-1365z" />
    <glyph glyph-name="m" unicode="m" horiz-adv-x="1610" 
d="M809 782q111 151 297 151q185 0 290 -129q57 -70 72 -154q7 -35 10 -74t3 -84v-492h-146v474q0 180 -57 248q-58 70 -158 70q-123 0 -188 -86q-52 -68 -52 -252v-454h-146v474q0 180 -57 248q-58 70 -160 70q-124 0 -189 -86q-53 -70 -53 -252v-454h-146v908h146v-102
q94 126 256 126q176 0 278 -150z" />
    <glyph glyph-name="n" unicode="n" horiz-adv-x="1043" 
d="M275 806q100 126 273 126q167 0 272 -115q25 -27 43 -59t29 -71.5t16.5 -87.5t5.5 -107v-492h-146v474q0 49 -3.5 87.5t-11 68t-19 52.5t-28.5 41q-65 69 -171 69q-132 0 -203 -86q-57 -69 -57 -252v-454h-146v908h146v-102z" />
    <glyph glyph-name="o" unicode="o" horiz-adv-x="1077" 
d="M533 799q-151 0 -245 -120q-70 -88 -70 -225q0 -159 95 -254q92 -92 225 -92q159 0 252 120q69 91 69 229q0 156 -94 250q-92 92 -232 92zM546 932q203 0 341 -156q119 -136 119 -321q0 -218 -154 -359q-131 -120 -314 -120q-212 0 -348 156q-119 136 -119 326
q0 213 154 354q130 120 321 120z" />
    <glyph glyph-name="p" unicode="p" 
d="M587 800q-154 0 -245 -121q-67 -91 -67 -227q0 -158 91 -252q89 -92 227 -92q70 0 134.5 31.5t109.5 88.5q69 88 69 225q0 160 -94 255q-92 92 -225 92zM129 908h146v-120q127 144 319 144q119 0 223 -61q112 -64 175 -178q61 -109 61 -239q0 -217 -154 -358
q-132 -120 -305 -120q-187 0 -319 143v-597h-146v1386z" />
    <glyph glyph-name="q" unicode="q" 
d="M537 800q-155 0 -249 -121q-70 -89 -70 -229q0 -156 94 -250q92 -92 230 -92q150 0 240 120q67 89 67 225q0 158 -91 255q-87 92 -221 92zM995 908v-1386h-146v597q-132 -143 -319 -143q-118 0 -223 60q-113 65 -176 179q-60 109 -60 239q0 217 154 358q132 120 305 120
q191 0 319 -144v120h146z" />
    <glyph glyph-name="r" unicode="r" horiz-adv-x="600" 
d="M275 806q84 103 236 103q13 0 25 -0.5t23 -1.5v-131q-12 1 -22 1h-18q-93 0 -153 -45q-52 -40 -71 -103q-20 -66 -20 -191v-438h-146v908h146v-102z" />
    <glyph glyph-name="s" unicode="s" horiz-adv-x="760" 
d="M545 706q-30 46 -57 66q-44 32 -101 32q-33 0 -60.5 -9.5t-47.5 -26.5t-31 -40.5t-11 -51.5q0 -53 40 -87q19 -16 118 -55l89 -35q109 -42 157.5 -97.5t48.5 -137.5q0 -127 -97 -212q-88 -76 -217 -76q-225 0 -315 232l126 53q40 -86 84 -120q43 -34 111 -34q82 0 127 53
q36 43 36 97q0 50 -30 79q-32 29 -130 66l-98 39q-186 72 -186 229q0 118 90 192q85 70 200 70q179 0 271 -164z" />
    <glyph glyph-name="t" unicode="t" horiz-adv-x="504" 
d="M292 776v-503q0 -151 102 -151q25 0 62 10v-132q-51 -14 -90 -14q-220 0 -220 287v503h-102v132h102v215l146 58v-273h151v-132h-151z" />
    <glyph glyph-name="u" unicode="u" horiz-adv-x="1043" 
d="M768 102q-101 -126 -273 -126q-167 0 -272 115q-25 27 -43 59t-29 71.5t-16.5 87.5t-5.5 107v492h146v-475q0 -49 3.5 -87t11 -67.5t19 -52.5t28.5 -41q63 -69 171 -69q132 0 203 86q57 69 57 252v454h146v-908h-146v102z" />
    <glyph glyph-name="v" unicode="v" horiz-adv-x="924" 
d="M158 908l304 -731l304 731h157l-386 -908h-150l-386 908h157z" />
    <glyph glyph-name="w" unicode="w" horiz-adv-x="1368" 
d="M157 908l249 -690l216 690h123l217 -690l249 690h155l-341 -908h-123l-218 683l-219 -683h-123l-341 908h156z" />
    <glyph glyph-name="x" unicode="x" horiz-adv-x="905" 
d="M537 472l357 -472h-171l-271 361l-271 -361h-171l358 471l-331 437h171l245 -327l246 327h168z" />
    <glyph glyph-name="y" unicode="y" horiz-adv-x="904" 
d="M370 41l-369 867h157l289 -690l299 690h156l-607 -1386h-150z" />
    <glyph glyph-name="z" unicode="z" horiz-adv-x="857" 
d="M241 132h583v-132h-765v120l563 657h-532v131h713v-121z" />
    <glyph glyph-name="braceleft" unicode="{" horiz-adv-x="613" 
d="M234 565q76 -43 101 -106q21 -54 21 -141v-402q0 -32 2 -53.5t7.5 -36.5t15 -24.5t24.5 -17.5q31 -16 100 -16h5.5t10.5 1v-129q-18 -1 -31.5 -1h-22.5q-140 0 -198 67q-60 67 -60 224v388q0 45 -6 77t-20 54.5t-36 37t-55 23.5v121q63 16 90 58t27 123v388q0 52 5.5 92
t16.5 70t29 52t44 39q61 38 164 38h21.5t31.5 -1v-129q-8 1 -13 1h-7q-87 0 -116 -29t-29 -119v-411q0 -97 -27 -149q-27 -53 -95 -89z" />
    <glyph glyph-name="bar" unicode="|" horiz-adv-x="1024" 
d="M439 1491h147v-1851h-147v1851z" />
    <glyph glyph-name="braceright" unicode="}" horiz-adv-x="613" 
d="M379 565q-68 36 -95 89q-27 52 -27 149v411q0 31 -2 53t-7.5 37t-15 24.5t-24.5 17.5q-31 16 -100 16h-5.5t-10.5 -1v129q18 1 31.5 1h22.5q139 0 199 -67q59 -68 59 -224v-388q0 -81 27 -123t90 -58v-121q-33 -9 -55 -23.5t-36 -37t-20 -54.5t-6 -77v-388
q0 -52 -5.5 -92t-16.5 -70t-29.5 -52.5t-43.5 -38.5q-61 -38 -164 -38h-21.5t-31.5 1v129q8 -1 13 -1h7q88 0 117 29q28 28 28 119v402q0 99 27 155q27 54 95 92z" />
    <glyph glyph-name="asciitilde" unicode="~" horiz-adv-x="1365" 
d="M190 1249q42 85 75 129q81 107 206 107q77 0 229 -70q46 -20 77.5 -33.5t48.5 -18.5q34 -12 72 -12q58 0 99 30q40 30 87 108l91 -53q-28 -57 -56 -96.5t-57 -64.5q-80 -70 -183 -70q-43 0 -95 18q-26 9 -74 29t-117 51q-81 36 -133 36q-54 0 -96 -34t-85 -113z" />
    <glyph glyph-name="nonbreakingspace" unicode="&#xa0;" horiz-adv-x="512" 
 />
    <glyph glyph-name="exclamdown" unicode="&#xa1;" horiz-adv-x="571" 
d="M217 682h136l17 -1059h-170zM285 1009q21 0 39.5 -8t32 -21.5t21.5 -32.5t8 -40t-8 -39t-21.5 -31.5t-32 -21.5t-39.5 -8t-39.5 8t-32 21.5t-21.5 32.5t-8 40t8 39t22 31.5t32 21.5t39 8z" />
    <glyph glyph-name="cent" unicode="&#xa2;" 
d="M513 214q-76 15 -137 51q-112 63 -175 178q-61 109 -61 240q0 173 104 304q103 129 269 163v215h150v-208q163 -20 291 -151l-98 -98q-104 119 -247 119q-160 0 -253 -120q-69 -89 -69 -224q0 -160 94 -254q92 -92 231 -92q80 0 135 28t116 98l98 -98
q-125 -139 -298 -158v-207h-150v214z" />
    <glyph glyph-name="sterling" unicode="&#xa3;" horiz-adv-x="1145" 
d="M453 614q29 -121 29 -232q0 -71 -23 -120q-23 -48 -93 -120h677v-142h-889v142q55 43 91 79q83 80 83 190q0 70 -29 203h-145v137h115q-11 59 -17 109.5t-6 93.5q0 157 61 257q53 87 159 137q90 41 188 41q223 0 348 -215l-121 -78q-91 151 -233 151q-71 0 -129.5 -32.5
t-87.5 -86.5q-35 -70 -35 -176q0 -67 28 -201h421v-137h-392z" />
    <glyph glyph-name="currency" unicode="&#xa4;" horiz-adv-x="1488" 
d="M739 1029q-151 0 -245 -120q-70 -89 -70 -225q0 -158 95 -255q92 -92 226 -92q158 0 251 121q69 90 69 229q0 155 -94 250q-92 92 -232 92zM454 1061q124 100 290 100t291 -100l182 185l84 -81l-185 -188q96 -128 96 -294q0 -167 -96 -294l185 -187l-82 -83l-183 187
q-127 -101 -292 -101q-164 0 -291 101l-184 -187l-81 83l184 187q-95 128 -95 294t96 294l-185 188l84 81z" />
    <glyph glyph-name="yen" unicode="&#xa5;" horiz-adv-x="1242" 
d="M697 477v-477h-153v477h-333v137h308l-76 136h-232v137h157l-266 478h167l352 -652l352 652h166l-266 -478h157v-137h-232l-76 -136h308v-137h-333z" />
    <glyph glyph-name="brokenbar" unicode="&#xa6;" horiz-adv-x="1024" 
d="M439 336h147v-696h-147v696zM439 1491h147v-696h-147v696z" />
    <glyph glyph-name="section" unicode="&#xa7;" horiz-adv-x="1113" 
d="M406 698q-111 -80 -111 -196q0 -142 198 -218l134 -52q49 -20 99 -45q89 95 89 199q0 82 -54 138q-54 55 -183 105l-128 50q-11 4 -22 9zM850 100q95 -89 95 -231q0 -170 -112 -270q-113 -101 -298 -101q-275 0 -426 276l121 79q47 -84 93 -127q92 -86 218 -86
q69 0 122 24q60 27 95 82t35 124q0 39 -13.5 72t-42.5 62.5t-74.5 55.5t-108.5 50l-128 51q-283 109 -283 340q0 86 30 149q29 63 101 131q-107 95 -107 240q0 177 140 284q112 84 263 84q227 0 358 -215l-121 -79q-98 152 -241 152q-117 0 -185 -74q-62 -68 -62 -155
q0 -139 198 -215l134 -52q163 -64 239 -148q79 -88 79 -214q0 -155 -100 -267q-8 -8 -12.5 -14t-6.5 -8z" />
    <glyph glyph-name="dieresis" unicode="&#xa8;" horiz-adv-x="975" 
d="M299 1312q21 0 40 -8t33 -22t22 -32.5t8 -39.5t-8 -40t-22 -33t-33 -22t-40 -8t-40 8t-32.5 22t-21.5 33t-8 41q0 21 8 39t22 32t32.5 22t39.5 8zM675 1312q21 0 39.5 -8t32.5 -22t22 -32.5t8 -39.5t-8 -40t-22 -33t-32.5 -22t-39.5 -8t-40 8t-33 22.5t-22 33.5t-8 40
t8 39t22.5 32t33 22t39.5 8z" />
    <glyph glyph-name="copyright" unicode="&#xa9;" horiz-adv-x="1754" 
d="M866 1344q-168 0 -320 -89q-154 -91 -242 -242q-89 -152 -89 -330q0 -177 89 -331q88 -154 242 -242q155 -89 331 -89t331 89t242 242q89 155 89 336q0 286 -219 486q-188 170 -454 170zM889 1457q199 0 375 -104q180 -106 284 -283q104 -179 104 -387q0 -207 -104 -388
q-103 -179 -284 -283t-387 -104t-387 104q-91 52 -161.5 122.5t-122.5 160.5q-104 182 -104 394q0 333 257 569q218 199 530 199zM1160 910q-65 67 -120 96q-56 28 -133 28q-166 0 -263 -126q-77 -98 -77 -226q0 -154 106 -257q97 -94 232 -94q76 0 132 27q55 27 128 100
l90 -91q-29 -29 -52 -49t-40 -32q-115 -80 -255 -80q-217 0 -356 160q-119 137 -119 316q0 127 63 238q65 114 173 176q109 63 239 63q99 0 177 -35q73 -34 165 -124z" />
    <glyph glyph-name="ordfeminine" unicode="&#xaa;" horiz-adv-x="733" 
d="M356 1290q-78 0 -127 -52q-50 -53 -50 -134q0 -86 54 -138q50 -49 126 -49q80 0 130 53q49 52 49 136q0 82 -53 135q-49 49 -129 49zM644 831h-111v62q-82 -76 -180 -76q-123 0 -210 94q-75 81 -75 193q0 129 97 214q82 72 188 72q100 0 180 -76v62h111v-545z" />
    <glyph glyph-name="guillemotleft" unicode="&#xab;" horiz-adv-x="883" 
d="M232 455l243 -301l-95 -75l-305 375l305 384l95 -75zM536 455l243 -301l-95 -75l-305 375l305 384l95 -75z" />
    <glyph glyph-name="logicalnot" unicode="&#xac;" horiz-adv-x="1365" 
d="M1229 166h-145v406h-947v131h1092v-537z" />
    <glyph glyph-name="uni00AD" unicode="&#xad;" horiz-adv-x="522" 
d="M75 537h372v-131h-372v131z" />
    <glyph glyph-name="registered" unicode="&#xae;" horiz-adv-x="1754" 
d="M866 1344q-168 0 -320 -89q-154 -91 -242 -242q-89 -152 -89 -330q0 -177 89 -331q88 -154 242 -242q155 -89 331 -89t331 89t242 242q89 155 89 336q0 286 -219 486q-188 170 -454 170zM889 1457q199 0 375 -104q180 -106 284 -283q104 -179 104 -387q0 -207 -104 -388
q-103 -179 -284 -283t-387 -104t-387 104q-91 52 -161.5 122.5t-122.5 160.5q-104 182 -104 394q0 333 257 569q218 199 530 199zM745 1021v-314h128q181 0 181 157t-181 157h-128zM1242 222h-150l-214 364h-133v-364h-132v921h248q160 0 236 -70q88 -79 88 -209
q0 -93 -43.5 -158.5t-128.5 -100.5z" />
    <glyph glyph-name="macron" unicode="&#xaf;" horiz-adv-x="975" 
d="M208 1275h560v-130h-560v130z" />
    <glyph glyph-name="degree" unicode="&#xb0;" horiz-adv-x="708" 
d="M421 1403q-70 0 -121 -51q-51 -53 -51 -122q0 -73 51 -124t123 -51q71 0 122 52q51 51 51 122q0 73 -51 124q-52 50 -124 50zM426 1515q113 0 199 -84q83 -83 83 -201q0 -120 -83 -203q-84 -84 -202 -84q-120 0 -202 84q-84 82 -84 201q0 123 84 203q85 84 205 84z" />
    <glyph glyph-name="plusminus" unicode="&#xb1;" horiz-adv-x="1139" 
d="M1043 128v-128h-947v128h947zM503 801v410h133v-410h407v-127h-407v-409h-133v409h-407v127h407z" />
    <glyph glyph-name="twosuperior" unicode="&#xb2;" horiz-adv-x="792" 
d="M137 831v95l303 327q91 97 91 181q0 51 -38 83t-99 32q-33 0 -57.5 -6.5t-43 -22t-32 -40t-23.5 -60.5l-106 28q50 206 266 206q109 0 179 -62q68 -63 68 -163q0 -114 -87 -208l-264 -285h369v-105h-526z" />
    <glyph glyph-name="threesuperior" unicode="&#xb3;" horiz-adv-x="792" 
d="M331 1307h47q54 0 89 18q57 30 57 103q0 55 -36 88t-97 33q-48 0 -79 -18q-32 -18 -69 -69l-96 53q89 140 245 140q100 0 167 -55q78 -65 78 -170q0 -106 -78 -167q96 -72 96 -193q0 -124 -93 -194q-76 -58 -179 -58q-96 0 -163.5 47.5t-94.5 135.5l-8 29l113 30
q5 -20 10 -34.5t10 -23.5q39 -77 133 -77q34 0 63 10.5t50 29.5t32.5 45t11.5 58q0 66 -42 100.5t-120 34.5h-47v104z" />
    <glyph glyph-name="acute" unicode="&#xb4;" horiz-adv-x="975" 
d="M747 1312l-256 -258l-92 53l205 282z" />
    <glyph glyph-name="mu" unicode="&#xb5;" horiz-adv-x="1043" 
d="M275 -478h-146v1386h146v-475q0 -49 3.5 -87t11 -67.5t19 -52.5t28.5 -41q63 -69 171 -69q132 0 203 86q57 69 57 252v454h146v-908h-146v89q-104 -113 -265 -113q-132 0 -228 113v-567z" />
    <glyph glyph-name="paragraph" unicode="&#xb6;" horiz-adv-x="1311" 
d="M605 450h-23q-203 0 -332 150q-113 131 -113 308q0 207 146 342q124 115 299 115h627v-127h-133v-1716h-133v1716h-202h-3v-1716h-133v928z" />
    <glyph glyph-name="periodcentered" unicode="&#xb7;" horiz-adv-x="464" 
d="M232 784q21 0 39.5 -8t32 -21.5t21.5 -32t8 -39.5t-8 -39.5t-21.5 -32t-32 -21.5t-39.5 -8t-39.5 8t-32 22t-21.5 32.5t-8 39.5t8 39t22 31.5t32 21.5t39 8z" />
    <glyph glyph-name="cedilla" unicode="&#xb8;" horiz-adv-x="975" 
d="M654 -154l-207 -262l-100 50l172 270z" />
    <glyph glyph-name="onesuperior" unicode="&#xb9;" horiz-adv-x="792" 
d="M486 831h-116v678l-121 -67l-55 91l193 107h99v-809z" />
    <glyph glyph-name="ordmasculine" unicode="&#xba;" horiz-adv-x="720" 
d="M356 1290q-78 0 -127 -52q-50 -53 -50 -134q0 -86 54 -138q50 -49 126 -49q81 0 131 53t50 136q0 84 -53 135q-50 49 -131 49zM364 1389q126 0 213 -93q74 -80 74 -192q0 -130 -96 -215q-83 -71 -196 -71q-132 0 -217 93q-74 82 -74 195q0 127 97 212q80 71 199 71z" />
    <glyph glyph-name="guillemotright" unicode="&#xbb;" horiz-adv-x="883" 
d="M347 455l-243 308l95 75l305 -384l-305 -375l-95 75zM651 455l-243 308l95 75l305 -384l-305 -375l-95 75z" />
    <glyph glyph-name="onequarter" unicode="&#xbc;" horiz-adv-x="1707" 
d="M415 557h-116v677l-121 -67l-55 91l193 107h99v-808zM1359 771l-320 -493h234v209h116v-209h101v-104h-101v-174h-116v174h-364v105l355 549zM1119 1389l84 -49l-790 -1365l-84 48z" />
    <glyph glyph-name="onehalf" unicode="&#xbd;" horiz-adv-x="1707" 
d="M1017 0v95l303 327q91 97 91 181q0 51 -38 83t-99 32q-33 0 -57 -6.5t-42.5 -22t-32 -40t-24.5 -60.5l-106 29q51 205 267 205q110 0 178 -62q68 -63 68 -163q0 -114 -87 -208l-264 -285h369v-105h-526zM415 557h-116v677l-121 -67l-55 91l193 107h99v-808zM1119 1389
l84 -49l-790 -1365l-84 48z" />
    <glyph glyph-name="threequarters" unicode="&#xbe;" horiz-adv-x="1707" 
d="M1440 771l-320 -493h234v209h116v-209h100v-104h-100v-174h-116v174h-364v105l355 549zM320 1032h47q54 0 89 18q57 28 57 102q0 55 -36 88t-97 33q-48 0 -79 -17q-30 -18 -69 -69l-96 52q89 140 245 140q100 0 167 -55q78 -65 78 -170q0 -106 -78 -167q96 -71 96 -193
q0 -124 -93 -194q-76 -58 -179 -58q-97 0 -164 47.5t-94 135.5l-8 29l113 30q5 -20 10 -34.5t10 -23.5q39 -77 133 -77q34 0 63 10.5t50 29.5t32.5 45t11.5 58q0 66 -42 100.5t-120 34.5h-47v105zM1244 1389l85 -49l-790 -1365l-85 48z" />
    <glyph glyph-name="questiondown" unicode="&#xbf;" horiz-adv-x="863" 
d="M483 1009q21 0 39.5 -8t32 -22t21.5 -33t8 -40q0 -20 -8 -38t-22 -31.5t-32 -21.5t-39 -8t-39.5 7.5t-32 21t-21.5 32t-8 39.5t8 39.5t21.5 32.5t32 22t39.5 8zM558 682v-154q0 -97 -22 -142q-23 -47 -96 -111l-89 -76q-133 -114 -133 -240q0 -98 66 -159q64 -58 169 -58
q92 0 148 34q29 17 58 49t60 78l110 -92q-123 -211 -367 -211q-174 0 -277 88q-117 100 -117 275q0 90 38 163q38 72 131 161l101 94q50 49 61 72q10 21 10 92v137h149z" />
    <glyph glyph-name="Agrave" unicode="&#xc0;" horiz-adv-x="1270" 
d="M376 1722l144 77l204 -282l-92 -53zM372 528h523l-263 689zM318 386l-146 -386h-158l526 1365h191l525 -1365h-159l-147 386h-632z" />
    <glyph glyph-name="Aacute" unicode="&#xc1;" horiz-adv-x="1270" 
d="M889 1722l-257 -258l-91 53l204 282zM372 528h523l-263 689zM318 386l-146 -386h-158l526 1365h191l525 -1365h-159l-147 386h-632z" />
    <glyph glyph-name="Acircumflex" unicode="&#xc2;" horiz-adv-x="1270" 
d="M635 1642l-188 -178l-105 53l235 258h116l236 -258l-105 -53zM372 528h523l-263 689zM318 386l-146 -386h-158l526 1365h191l525 -1365h-159l-147 386h-632z" />
    <glyph glyph-name="Atilde" unicode="&#xc3;" horiz-adv-x="1270" 
d="M914 1694q-7 -85 -48 -129.5t-113 -44.5q-54 0 -139 39q-66 31 -88 31q-24 0 -35.5 -15.5t-18.5 -57.5l-116 27q9 82 52.5 128t110.5 46q45 0 142 -44q60 -26 87 -26q25 0 35 15t14 59zM372 528h523l-263 689zM318 386l-146 -386h-158l526 1365h191l525 -1365h-159
l-147 386h-632z" />
    <glyph glyph-name="Adieresis" unicode="&#xc4;" horiz-adv-x="1270" 
d="M447 1722q21 0 40 -8t33 -22t22 -32.5t8 -39.5t-8 -40t-22 -33t-33 -22t-40 -8t-40 8t-32.5 22.5t-21.5 33.5t-8 40t8 39t22 32t32.5 22t39.5 8zM824 1722q21 0 39.5 -8t32.5 -22t22 -32.5t8 -39.5t-8 -40t-22 -33t-32.5 -22t-39.5 -8t-40 8t-33 22.5t-22 33.5t-8 40
t8 39t22.5 32t33 22t39.5 8zM372 528h523l-263 689zM318 386l-146 -386h-158l526 1365h191l525 -1365h-159l-147 386h-632z" />
    <glyph glyph-name="Aring" unicode="&#xc5;" horiz-adv-x="1270" 
d="M636 1725q-22 0 -41.5 -8.5t-33.5 -22.5t-22.5 -34t-8.5 -42q0 -21 8.5 -40t22.5 -33t33.5 -22.5t41.5 -8.5q21 0 40.5 8.5t33.5 22.5t22.5 33.5t8.5 40.5q0 45 -30 75.5t-75 30.5zM635 1799q78 0 131 -52q53 -53 53 -127t-53 -127q-55 -53 -130 -53q-77 0 -130 53
q-54 52 -54 129q0 72 54 125q53 52 129 52zM372 528h523l-263 689zM318 386l-146 -386h-158l526 1365h191l525 -1365h-159l-147 386h-632z" />
    <glyph glyph-name="AE" unicode="&#xc6;" horiz-adv-x="1720" 
d="M911 528v696h-106l-353 -696h459zM911 386h-531l-195 -386h-171l703 1365h897v-141h-550v-461h489v-142h-489v-479h571v-142h-724v386z" />
    <glyph glyph-name="Ccedilla" unicode="&#xc7;" horiz-adv-x="1356" 
d="M845 -154l-207 -262l-100 50l172 270zM1176 1066q-70 74 -127 108q-117 72 -260 72q-266 0 -425 -201q-124 -157 -124 -363q0 -248 171 -411q158 -152 377 -152q115 0 205 43q91 42 190 141l104 -105q-45 -45 -85.5 -77.5t-77.5 -54.5q-152 -90 -333 -90q-200 0 -366 100
q-153 92 -245 252q-94 166 -94 354q0 189 94 353q95 168 256 260q161 94 354 94q144 0 258 -51t233 -167z" />
    <glyph glyph-name="Egrave" unicode="&#xc8;" horiz-adv-x="973" 
d="M283 1722l144 77l205 -282l-92 -53zM867 1224h-550v-461h489v-142h-489v-479h571v-142h-724v1365h703v-141z" />
    <glyph glyph-name="Eacute" unicode="&#xc9;" horiz-adv-x="973" 
d="M768 1722l-256 -258l-92 53l205 282zM867 1224h-550v-461h489v-142h-489v-479h571v-142h-724v1365h703v-141z" />
    <glyph glyph-name="Ecircumflex" unicode="&#xca;" horiz-adv-x="973" 
d="M526 1642l-189 -178l-105 53l236 258h116l235 -258l-105 -53zM867 1224h-550v-461h489v-142h-489v-479h571v-142h-724v1365h703v-141z" />
    <glyph glyph-name="Edieresis" unicode="&#xcb;" horiz-adv-x="973" 
d="M334 1722q21 0 40 -8t33 -22t22 -32.5t8 -39.5t-8 -40t-22 -33t-33 -22t-40 -8t-40 8t-32.5 22t-21.5 33t-8 41q0 21 8 39t22 32t32.5 22t39.5 8zM711 1722q21 0 39.5 -8t32.5 -22t22 -32.5t8 -39.5t-8 -40t-22 -33t-32.5 -22t-39.5 -8t-40 8t-33 22.5t-22 33.5t-8 40
t8 39t22.5 32t33 22t39.5 8zM867 1224h-550v-461h489v-142h-489v-479h571v-142h-724v1365h703v-141z" />
    <glyph glyph-name="Igrave" unicode="&#xcc;" horiz-adv-x="481" 
d="M-21 1722l143 77l205 -282l-92 -53zM317 1365v-1365h-153v1365h153z" />
    <glyph glyph-name="Iacute" unicode="&#xcd;" horiz-adv-x="481" 
d="M502 1722l-256 -258l-92 53l205 282zM317 1365v-1365h-153v1365h153z" />
    <glyph glyph-name="Icircumflex" unicode="&#xce;" horiz-adv-x="481" 
d="M241 1642l-189 -178l-105 53l236 258h116l235 -258l-105 -53zM317 1365v-1365h-153v1365h153z" />
    <glyph glyph-name="Idieresis" unicode="&#xcf;" horiz-adv-x="481" 
d="M103 1722q21 0 40 -8t33 -22t22 -32.5t8 -39.5t-8 -40t-22 -33t-33 -22t-40 -8t-40 8t-32.5 22t-21.5 33t-8 41q0 21 8 39t22 32t32.5 22t39.5 8zM377 1722q21 0 39.5 -8t32.5 -22t22 -32.5t8 -39.5t-8 -40t-22 -33t-32.5 -22t-39.5 -8t-40 8t-33 22.5t-22 33.5t-8 40
t8 39t22.5 32t33 22t39.5 8zM316 1365v-1365h-153v1365h153z" />
    <glyph glyph-name="Eth" unicode="&#xd0;" horiz-adv-x="1298" 
d="M348 804h327v-137h-327v-525h134q240 0 391 121q185 147 185 421q0 271 -185 418q-152 121 -391 121h-134v-419zM195 804v561h280q305 0 502 -153q235 -183 235 -528q0 -347 -235 -531q-195 -153 -502 -153h-280v667h-137v137h137z" />
    <glyph glyph-name="Ntilde" unicode="&#xd1;" horiz-adv-x="1454" 
d="M1023 1694q-7 -85 -48 -129.5t-113 -44.5q-53 0 -138 39q-66 31 -89 31q-24 0 -35.5 -15.5t-18.5 -57.5l-116 27q9 82 52.5 128t110.5 46q46 0 142 -44q60 -26 87 -26q25 0 35 15t14 59zM164 0v1365h143l830 -1116v1116h153v-1365h-143l-830 1116v-1116h-153z" />
    <glyph glyph-name="Ograve" unicode="&#xd2;" horiz-adv-x="1565" 
d="M526 1722l143 77l205 -282l-92 -53zM778 1246q-151 0 -279 -83q-129 -83 -197 -218q-62 -122 -62 -272q0 -140 67 -264q70 -130 199 -210q131 -80 276 -80q146 0 277 80q128 79 199 210q67 125 67 273q0 240 -166 407q-156 157 -381 157zM782 1389q187 0 344 -94
q164 -98 258 -260q95 -164 95 -353q0 -188 -95 -354q-92 -158 -248 -252q-166 -100 -359 -100q-182 0 -348 100q-156 94 -248 252q-95 167 -95 365q0 184 95 342q100 168 258 260q160 94 343 94z" />
    <glyph glyph-name="Oacute" unicode="&#xd3;" horiz-adv-x="1565" 
d="M1039 1722l-257 -258l-92 53l205 282zM778 1246q-151 0 -279 -83q-129 -83 -197 -218q-62 -122 -62 -272q0 -140 67 -264q70 -130 199 -210q131 -80 276 -80q146 0 277 80q128 79 199 210q67 125 67 273q0 240 -166 407q-156 157 -381 157zM782 1389q187 0 344 -94
q164 -98 258 -260q95 -164 95 -353q0 -188 -95 -354q-92 -158 -248 -252q-166 -100 -359 -100q-182 0 -348 100q-156 94 -248 252q-95 167 -95 365q0 184 95 342q100 168 258 260q160 94 343 94z" />
    <glyph glyph-name="Ocircumflex" unicode="&#xd4;" horiz-adv-x="1565" 
d="M782 1642l-188 -178l-105 53l235 258h116l236 -258l-105 -53zM778 1246q-151 0 -279 -83q-129 -83 -197 -218q-62 -122 -62 -272q0 -140 67 -264q70 -130 199 -210q131 -80 276 -80q146 0 277 80q128 79 199 210q67 125 67 273q0 240 -166 407q-156 157 -381 157z
M782 1389q187 0 344 -94q164 -98 258 -260q95 -164 95 -353q0 -188 -95 -354q-92 -158 -248 -252q-166 -100 -359 -100q-182 0 -348 100q-156 94 -248 252q-95 167 -95 365q0 184 95 342q100 168 258 260q160 94 343 94z" />
    <glyph glyph-name="Otilde" unicode="&#xd5;" horiz-adv-x="1565" 
d="M1061 1694q-7 -85 -48 -129.5t-113 -44.5q-53 0 -138 39q-66 31 -89 31q-24 0 -35.5 -15.5t-18.5 -57.5l-115 27q8 82 51.5 128t110.5 46q46 0 143 -44q58 -26 87 -26q24 0 34 15t14 59zM778 1246q-151 0 -279 -83q-129 -83 -197 -218q-62 -122 -62 -272q0 -140 67 -264
q70 -130 199 -210q131 -80 276 -80q146 0 277 80q128 79 199 210q67 125 67 273q0 240 -166 407q-156 157 -381 157zM782 1389q187 0 344 -94q164 -98 258 -260q95 -164 95 -353q0 -188 -95 -354q-92 -158 -248 -252q-166 -100 -359 -100q-182 0 -348 100q-156 94 -248 252
q-95 167 -95 365q0 184 95 342q100 168 258 260q160 94 343 94z" />
    <glyph glyph-name="Odieresis" unicode="&#xd6;" horiz-adv-x="1565" 
d="M594 1722q21 0 40 -8t33 -22t22 -32.5t8 -39.5t-8 -40t-22 -33t-33 -22t-40 -8t-40 8t-32.5 22t-21.5 33t-8 41q0 21 8 39t22 32t32.5 22t39.5 8zM971 1722q21 0 39.5 -8t32.5 -22t22 -32.5t8 -39.5t-8 -40t-22 -33t-32.5 -22t-39.5 -8t-40 8t-33 22.5t-22 33.5t-8 40
t8 39t22.5 32t33 22t39.5 8zM778 1246q-151 0 -279 -83q-129 -83 -197 -218q-62 -122 -62 -272q0 -140 67 -264q70 -130 199 -210q131 -80 276 -80q146 0 277 80q128 79 199 210q67 125 67 273q0 240 -166 407q-156 157 -381 157zM782 1389q187 0 344 -94q164 -98 258 -260
q95 -164 95 -353q0 -188 -95 -354q-92 -158 -248 -252q-166 -100 -359 -100q-182 0 -348 100q-156 94 -248 252q-95 167 -95 365q0 184 95 342q100 168 258 260q160 94 343 94z" />
    <glyph glyph-name="multiply" unicode="&#xd7;" horiz-adv-x="1139" 
d="M478 639l-289 289l92 91l288 -288l289 288l92 -91l-289 -289l289 -289l-92 -91l-289 288l-288 -288l-92 91z" />
    <glyph glyph-name="Oslash" unicode="&#xd8;" horiz-adv-x="1580" 
d="M445 250q35 -31 76 -55.5t86 -41t91.5 -25.5t93.5 -9q144 0 275 80q129 80 199 210q67 124 67 272q0 195 -117 350zM1137 1116q-157 130 -347 130q-152 0 -283 -83q-126 -78 -197 -218q-62 -124 -62 -263q0 -193 116 -348zM260 228q-166 196 -166 455q0 186 95 352
t258 260q160 94 343 94q250 0 449 -169l147 148l84 -80l-149 -151q166 -196 166 -457q0 -186 -95 -352q-91 -157 -248 -252q-164 -100 -353 -100q-250 0 -450 169l-146 -148l-84 80z" />
    <glyph glyph-name="Ugrave" unicode="&#xd9;" horiz-adv-x="1301" 
d="M408 1722l144 77l205 -282l-92 -53zM317 1365v-846q0 -53 2.5 -92.5t7.5 -66.5q10 -55 36 -97q38 -62 115 -102q80 -43 172 -43q127 0 225 76q64 49 87 117q22 65 22 208v846h153v-887q0 -54 -5 -99t-15.5 -83.5t-27.5 -71.5t-41 -63q-71 -91 -181 -140
q-102 -46 -216 -46q-166 0 -297 91q-103 71 -146 166q-44 97 -44 246v887h153z" />
    <glyph glyph-name="Uacute" unicode="&#xda;" horiz-adv-x="1301" 
d="M893 1722l-256 -258l-92 53l205 282zM317 1365v-846q0 -53 2.5 -92.5t7.5 -66.5q10 -55 36 -97q38 -62 115 -102q80 -43 172 -43q127 0 225 76q64 49 87 117q22 65 22 208v846h153v-887q0 -54 -5 -99t-15.5 -83.5t-27.5 -71.5t-41 -63q-71 -91 -181 -140
q-102 -46 -216 -46q-166 0 -297 91q-103 71 -146 166q-44 97 -44 246v887h153z" />
    <glyph glyph-name="Ucircumflex" unicode="&#xdb;" horiz-adv-x="1301" 
d="M651 1642l-189 -178l-105 53l236 258h116l235 -258l-105 -53zM317 1365v-846q0 -53 2.5 -92.5t7.5 -66.5q10 -55 36 -97q38 -62 115 -102q80 -43 172 -43q127 0 225 76q64 49 87 117q22 65 22 208v846h153v-887q0 -54 -5 -99t-15.5 -83.5t-27.5 -71.5t-41 -63
q-71 -91 -181 -140q-102 -46 -216 -46q-166 0 -297 91q-103 71 -146 166q-44 97 -44 246v887h153z" />
    <glyph glyph-name="Udieresis" unicode="&#xdc;" horiz-adv-x="1301" 
d="M463 1722q21 0 40 -8t33 -22t22 -32.5t8 -39.5t-8 -40t-22 -33t-33 -22t-40 -8t-40 8t-32.5 22t-21.5 33t-8 41q0 21 8 39t22 32t32.5 22t39.5 8zM839 1722q21 0 39.5 -8t32.5 -22t22 -32.5t8 -39.5t-8 -40t-22 -33t-32.5 -22t-39.5 -8t-40 8t-33 22.5t-22 33.5t-8 40
t8 39t22.5 32t33 22t39.5 8zM317 1365v-846q0 -53 2.5 -92.5t7.5 -66.5q10 -55 36 -97q38 -62 115 -102q80 -43 172 -43q127 0 225 76q64 49 87 117q22 65 22 208v846h153v-887q0 -54 -5 -99t-15.5 -83.5t-27.5 -71.5t-41 -63q-71 -91 -181 -140q-102 -46 -216 -46
q-166 0 -297 91q-103 71 -146 166q-44 97 -44 246v887h153z" />
    <glyph glyph-name="Yacute" unicode="&#xdd;" horiz-adv-x="1038" 
d="M761 1722l-256 -258l-92 53l205 282zM442 570l-442 795h167l352 -652l352 652h166l-442 -795v-570h-153v570z" />
    <glyph glyph-name="Thorn" unicode="&#xde;" horiz-adv-x="956" 
d="M317 487h145q156 0 228 69q75 72 75 200q0 125 -75 196q-73 68 -228 68h-145v-533zM317 1161h127q63 0 113.5 -5.5t92 -18t75.5 -31.5t64 -46q126 -116 126 -304q0 -191 -126 -306q-73 -67 -166 -86q-79 -16 -179 -16h-127v-348h-153v1365h153v-204z" />
    <glyph glyph-name="germandbls" unicode="&#xdf;" horiz-adv-x="1061" 
d="M129 0v1021q0 151 89 251q106 117 271 117q170 0 273 -106q100 -101 100 -261q0 -42 -8 -82.5t-22.5 -76.5t-35.5 -65t-47 -49q76 -32 123 -85q96 -107 96 -268q0 -195 -145 -307q-113 -89 -297 -89h-115v140h121q137 0 215 80q74 76 74 183q0 100 -65 174
q-74 83 -229 83h-10v132h10q99 0 148 67q44 62 44 157q0 110 -60 176t-161 66q-99 0 -161 -65q-62 -67 -62 -172v-1021h-146z" />
    <glyph glyph-name="agrave" unicode="&#xe0;" 
d="M277 1312l143 77l205 -282l-92 -53zM531 800q-149 0 -243 -120q-70 -88 -70 -225q0 -160 95 -255q92 -92 224 -92q156 0 247 121q68 91 68 227q0 155 -92 252q-89 92 -229 92zM995 0h-146v119q-128 -143 -319 -143q-119 0 -223 61q-112 64 -175 178q-61 109 -61 239
q0 217 154 358q132 120 305 120q187 0 319 -144v120h146v-908z" />
    <glyph glyph-name="aacute" unicode="&#xe1;" 
d="M803 1312l-257 -258l-92 53l205 282zM531 800q-149 0 -243 -120q-70 -88 -70 -225q0 -160 95 -255q92 -92 224 -92q156 0 247 121q68 91 68 227q0 155 -92 252q-89 92 -229 92zM995 0h-146v119q-128 -143 -319 -143q-119 0 -223 61q-112 64 -175 178q-61 109 -61 239
q0 217 154 358q132 120 305 120q187 0 319 -144v120h146v-908z" />
    <glyph glyph-name="acircumflex" unicode="&#xe2;" 
d="M533 1232l-188 -178l-105 53l235 258h116l236 -258l-105 -53zM531 800q-149 0 -243 -120q-70 -88 -70 -225q0 -160 95 -255q92 -92 224 -92q156 0 247 121q68 91 68 227q0 155 -92 252q-89 92 -229 92zM995 0h-146v119q-128 -143 -319 -143q-119 0 -223 61
q-112 64 -175 178q-61 109 -61 239q0 217 154 358q132 120 305 120q187 0 319 -144v120h146v-908z" />
    <glyph glyph-name="atilde" unicode="&#xe3;" 
d="M812 1285q-7 -85 -48 -129.5t-113 -44.5q-53 0 -138 39q-66 31 -89 31q-24 0 -35.5 -15.5t-18.5 -58.5l-115 28q8 81 51.5 127.5t110.5 46.5q47 0 143 -44q58 -26 86 -26q26 0 35.5 15t13.5 58zM531 800q-149 0 -243 -120q-70 -88 -70 -225q0 -160 95 -255
q92 -92 224 -92q156 0 247 121q68 91 68 227q0 155 -92 252q-89 92 -229 92zM995 0h-146v119q-128 -143 -319 -143q-119 0 -223 61q-112 64 -175 178q-61 109 -61 239q0 217 154 358q132 120 305 120q187 0 319 -144v120h146v-908z" />
    <glyph glyph-name="adieresis" unicode="&#xe4;" 
d="M362 1312q21 0 40 -8t33 -22t22 -32.5t8 -39.5t-8 -40t-22 -33t-33 -22t-40 -8t-40 8t-32.5 22t-21.5 33t-8 41q0 21 8 39t22 32t32.5 22t39.5 8zM739 1312q21 0 39.5 -8t32.5 -22t22 -32.5t8 -39.5t-8 -40t-22 -33t-32.5 -22t-39.5 -8t-40 8t-33 22.5t-22 33.5t-8 40
t8 39t22.5 32t33 22t39.5 8zM531 800q-149 0 -243 -120q-70 -88 -70 -225q0 -160 95 -255q92 -92 224 -92q156 0 247 121q68 91 68 227q0 155 -92 252q-89 92 -229 92zM995 0h-146v119q-128 -143 -319 -143q-119 0 -223 61q-112 64 -175 178q-61 109 -61 239q0 217 154 358
q132 120 305 120q187 0 319 -144v120h146v-908z" />
    <glyph glyph-name="aring" unicode="&#xe5;" 
d="M557 1315q-22 0 -41.5 -8.5t-33.5 -22.5t-22.5 -34t-8.5 -42q0 -41 32 -73q31 -31 74 -31q22 0 41.5 8.5t33.5 22.5t22.5 33.5t8.5 40.5q0 45 -30.5 75.5t-75.5 30.5zM557 1389q77 0 130 -52q54 -53 54 -127t-53 -127q-55 -53 -130 -53q-78 0 -131 53q-54 52 -54 129
q0 73 55 125q53 52 129 52zM531 800q-149 0 -243 -120q-70 -88 -70 -225q0 -160 95 -255q92 -92 224 -92q156 0 247 121q68 91 68 227q0 155 -92 252q-89 92 -229 92zM995 0h-146v119q-128 -143 -319 -143q-119 0 -223 61q-112 64 -175 178q-61 109 -61 239q0 217 154 358
q132 120 305 120q187 0 319 -144v120h146v-908z" />
    <glyph glyph-name="ae" unicode="&#xe6;" horiz-adv-x="1683" 
d="M1467 517q-5 28 -11 52.5t-14 44.5q-37 90 -110 140q-68 45 -152 45q-115 0 -194 -76q-78 -75 -98 -206h579zM742 462h-264q-263 0 -263 -176q0 -97 87 -142q67 -36 175 -36q265 0 265 185v169zM837 150q-84 -174 -361 -174q-185 0 -299 84q-106 79 -106 225
q0 71 25.5 127t74.5 95t119 59.5t160 20.5h287q-11 97 -63 147q-70 65 -204 65q-163 0 -293 -102l-68 98q167 136 378 136q249 0 344 -180q133 180 348 180q190 0 311 -139q122 -140 122 -356v-44h-724q4 -26 10 -50.5t16 -47.5q37 -90 114 -140q70 -46 160 -46
q184 0 277 161l130 -55q-69 -117 -172 -177.5t-233 -60.5q-217 0 -353 174z" />
    <glyph glyph-name="ccedilla" unicode="&#xe7;" horiz-adv-x="936" 
d="M601 -154l-207 -262l-100 50l172 270zM787 680q-104 120 -247 120q-160 0 -253 -120q-69 -90 -69 -225q0 -161 94 -255q92 -92 231 -92q81 0 136 28t115 99l98 -98q-82 -86 -162 -124q-80 -37 -187 -37q-217 0 -353 156q-119 137 -119 323q0 218 154 357q130 120 318 120
q191 0 342 -154z" />
    <glyph glyph-name="egrave" unicode="&#xe8;" horiz-adv-x="1017" 
d="M263 1312l143 77l205 -282l-92 -53zM800 517q-4 29 -10.5 53.5t-14.5 44.5q-37 90 -110 140q-68 45 -152 45q-114 0 -194 -77q-78 -75 -98 -206h579zM221 392q4 -26 10 -50.5t16 -47.5q37 -89 115 -140q70 -46 160 -46q184 0 276 161l130 -55q-67 -117 -171 -177.5
t-234 -60.5q-209 0 -339 157q-113 136 -113 324q0 127 57 237q62 114 167 178q100 60 217 60q191 0 312 -139q122 -140 122 -356v-18t-1 -27h-724z" />
    <glyph glyph-name="eacute" unicode="&#xe9;" horiz-adv-x="1017" 
d="M755 1312l-256 -258l-92 53l205 282zM800 517q-4 29 -10.5 53.5t-14.5 44.5q-37 90 -110 140q-68 45 -152 45q-114 0 -194 -77q-78 -75 -98 -206h579zM221 392q4 -26 10 -50.5t16 -47.5q37 -89 115 -140q70 -46 160 -46q184 0 276 161l130 -55q-67 -117 -171 -177.5
t-234 -60.5q-209 0 -339 157q-113 136 -113 324q0 127 57 237q62 114 167 178q100 60 217 60q191 0 312 -139q122 -140 122 -356v-18t-1 -27h-724z" />
    <glyph glyph-name="ecircumflex" unicode="&#xea;" horiz-adv-x="1017" 
d="M508 1232l-188 -178l-105 53l235 258h116l236 -258l-105 -53zM800 517q-4 29 -10.5 53.5t-14.5 44.5q-37 90 -110 140q-68 45 -152 45q-114 0 -194 -77q-78 -75 -98 -206h579zM221 392q4 -26 10 -50.5t16 -47.5q37 -89 115 -140q70 -46 160 -46q184 0 276 161l130 -55
q-67 -117 -171 -177.5t-234 -60.5q-209 0 -339 157q-113 136 -113 324q0 127 57 237q62 114 167 178q100 60 217 60q191 0 312 -139q122 -140 122 -356v-18t-1 -27h-724z" />
    <glyph glyph-name="edieresis" unicode="&#xeb;" horiz-adv-x="1017" 
d="M320 1312q21 0 40 -8t33 -22t22 -32.5t8 -39.5t-8 -40t-22 -33t-33 -22t-40 -8t-40 8t-32.5 22t-21.5 33t-8 41q0 21 8 39t22 32t32.5 22t39.5 8zM697 1312q21 0 39.5 -8t32.5 -22t22 -32.5t8 -39.5t-8 -40t-22 -33t-32.5 -22t-39.5 -8t-40 8t-33 22.5t-22 33.5t-8 40
t8 39t22.5 32t33 22t39.5 8zM800 517q-4 29 -10.5 53.5t-14.5 44.5q-37 90 -110 140q-68 45 -152 45q-114 0 -194 -77q-78 -75 -98 -206h579zM221 392q4 -26 10 -50.5t16 -47.5q37 -89 115 -140q70 -46 160 -46q184 0 276 161l130 -55q-67 -117 -171 -177.5t-234 -60.5
q-209 0 -339 157q-113 136 -113 324q0 127 57 237q62 114 167 178q100 60 217 60q191 0 312 -139q122 -140 122 -356v-18t-1 -27h-724z" />
    <glyph glyph-name="igrave" unicode="&#xec;" horiz-adv-x="408" 
d="M-64 1312l143 77l205 -282l-92 -53zM277 908v-908h-146v908h146z" />
    <glyph glyph-name="iacute" unicode="&#xed;" horiz-adv-x="408" 
d="M472 1312l-256 -258l-92 53l205 282zM277 908v-908h-146v908h146z" />
    <glyph glyph-name="icircumflex" unicode="&#xee;" horiz-adv-x="408" 
d="M205 1232l-189 -178l-105 53l236 258h116l235 -258l-105 -53zM278 908v-908h-146v908h146z" />
    <glyph glyph-name="idieresis" unicode="&#xef;" horiz-adv-x="408" 
d="M65 1312q21 0 40 -8t33 -22t22 -32.5t8 -39.5t-8 -40t-22 -33t-33 -22t-40 -8t-40 8t-32.5 22t-21.5 33t-8 41q0 21 8 39t22 32t32.5 22t39.5 8zM339 1312q21 0 39.5 -8t32.5 -22t22 -32.5t8 -39.5t-8 -40t-22 -33t-32.5 -22t-39.5 -8t-40 8t-33 22.5t-22 33.5t-8 40
t8 39t22.5 32t33 22t39.5 8zM277 908v-908h-146v908h146z" />
    <glyph glyph-name="eth" unicode="&#xf0;" horiz-adv-x="1078" 
d="M533 800q-152 0 -245 -120q-70 -89 -70 -225q0 -158 95 -255q92 -92 225 -92q159 0 252 121q69 90 69 229q0 155 -94 250q-92 92 -232 92zM813 844q-33 106 -111 224t-159 186l-221 -115l-91 84l202 105q-51 32 -114 60t-141 53l59 88q85 -23 165.5 -57t156.5 -79
l226 114l84 -82l-210 -110q136 -124 230 -310q55 -110 87 -249q16 -70 23.5 -138.5t7.5 -136.5q0 -154 -61 -266q-61 -114 -175 -179q-107 -60 -233 -60q-212 0 -348 156q-119 137 -119 322q0 217 154 358q130 120 312 120q157 0 276 -88z" />
    <glyph glyph-name="ntilde" unicode="&#xf1;" horiz-adv-x="1043" 
d="M810 1285q-7 -85 -47.5 -129.5t-112.5 -44.5q-54 0 -139 39q-66 31 -89 31q-24 0 -35.5 -15.5t-18.5 -58.5l-115 28q9 81 52 127.5t110 46.5q47 0 143 -44q58 -26 87 -26q25 0 35 15t13 58zM275 806q100 126 273 126q167 0 272 -115q25 -27 43 -59t29 -71.5t16.5 -87.5
t5.5 -107v-492h-146v474q0 49 -3.5 87.5t-11 68t-19 52.5t-28.5 41q-65 69 -171 69q-132 0 -203 -86q-57 -69 -57 -252v-454h-146v908h146v-102z" />
    <glyph glyph-name="ograve" unicode="&#xf2;" horiz-adv-x="1077" 
d="M282 1312l144 77l205 -282l-92 -53zM533 799q-151 0 -245 -120q-70 -88 -70 -225q0 -159 95 -254q92 -92 225 -92q159 0 252 120q69 91 69 229q0 156 -94 250q-92 92 -232 92zM546 932q203 0 341 -156q119 -136 119 -321q0 -218 -154 -359q-131 -120 -314 -120
q-212 0 -348 156q-119 136 -119 326q0 213 154 354q130 120 321 120z" />
    <glyph glyph-name="oacute" unicode="&#xf3;" horiz-adv-x="1077" 
d="M795 1312l-256 -258l-92 53l205 282zM533 799q-151 0 -245 -120q-70 -88 -70 -225q0 -159 95 -254q92 -92 225 -92q159 0 252 120q69 91 69 229q0 156 -94 250q-92 92 -232 92zM546 932q203 0 341 -156q119 -136 119 -321q0 -218 -154 -359q-131 -120 -314 -120
q-212 0 -348 156q-119 136 -119 326q0 213 154 354q130 120 321 120z" />
    <glyph glyph-name="ocircumflex" unicode="&#xf4;" horiz-adv-x="1077" 
d="M539 1232l-189 -178l-105 53l236 258h116l235 -258l-105 -53zM532 799q-150 0 -244 -120q-70 -88 -70 -225q0 -160 94 -254q92 -92 226 -92q159 0 251 120q70 91 70 229q0 155 -95 250q-90 92 -232 92zM546 932q203 0 341 -156q119 -136 119 -321q0 -218 -154 -359
q-131 -120 -314 -120q-212 0 -348 156q-119 136 -119 326q0 213 154 354q130 120 321 120z" />
    <glyph glyph-name="otilde" unicode="&#xf5;" horiz-adv-x="1077" 
d="M817 1285q-7 -85 -47.5 -129.5t-112.5 -44.5q-54 0 -139 39q-66 31 -89 31q-24 0 -35.5 -15.5t-18.5 -58.5l-115 28q9 81 52 127.5t110 46.5q47 0 143 -44q58 -26 87 -26q25 0 35 15t13 58zM533 799q-151 0 -245 -120q-70 -88 -70 -225q0 -159 95 -254q92 -92 225 -92
q159 0 252 120q69 91 69 229q0 156 -94 250q-92 92 -232 92zM546 932q203 0 341 -156q119 -136 119 -321q0 -218 -154 -359q-131 -120 -314 -120q-212 0 -348 156q-119 136 -119 326q0 213 154 354q130 120 321 120z" />
    <glyph glyph-name="odieresis" unicode="&#xf6;" horiz-adv-x="1077" 
d="M350 1312q21 0 40 -8t33 -22t22 -32.5t8 -39.5t-8 -40t-22 -33t-33 -22t-40 -8t-40 8t-32.5 22.5t-21.5 33.5t-8 40t8 39t22 32t32.5 22t39.5 8zM727 1312q21 0 39.5 -8t32.5 -22t22 -32.5t8 -39.5t-8 -40t-22 -33t-32.5 -22t-39.5 -8t-40 8t-33 22.5t-22 33.5t-8 40
t8 39t22.5 32t33 22t39.5 8zM533 799q-151 0 -245 -120q-70 -88 -70 -225q0 -159 95 -254q92 -92 225 -92q159 0 252 120q69 91 69 229q0 156 -94 250q-92 92 -232 92zM546 932q203 0 341 -156q119 -136 119 -321q0 -218 -154 -359q-131 -120 -314 -120q-212 0 -348 156
q-119 136 -119 326q0 213 154 354q130 120 321 120z" />
    <glyph glyph-name="divide" unicode="&#xf7;" horiz-adv-x="1139" 
d="M571 390q44 0 76 -32q32 -34 32 -77q0 -23 -8.5 -42.5t-23.5 -34.5t-35 -23.5t-43 -8.5t-42.5 8.5t-34.5 23.5t-23.5 35t-8.5 43q0 22 9 42t24 34.5t35 23t43 8.5zM571 1106q44 0 76 -32q32 -34 32 -77q0 -23 -8.5 -42.5t-23.5 -34.5t-35 -23.5t-43 -8.5t-42.5 8.5
t-34.5 23.5t-23.5 35t-8.5 43q0 22 9 41.5t24 34.5t35 23.5t43 8.5zM1008 703v-128h-878v128h878z" />
    <glyph glyph-name="oslash" unicode="&#xf8;" horiz-adv-x="1105" 
d="M759 732q-89 68 -205 68q-160 0 -253 -120q-69 -90 -69 -226q0 -105 45 -196zM346 177q88 -69 205 -69q159 0 252 121q70 89 70 224q0 117 -44 197zM179 163q-94 128 -94 292q0 216 154 357q130 120 313 120q170 0 301 -108l90 87l77 -74l-93 -92q93 -131 93 -291
q0 -217 -154 -358q-131 -120 -313 -120q-170 0 -301 109l-90 -88l-77 74z" />
    <glyph glyph-name="ugrave" unicode="&#xf9;" horiz-adv-x="1043" 
d="M269 1312l143 77l205 -282l-92 -53zM768 102q-101 -126 -273 -126q-167 0 -272 115q-25 27 -43 59t-29 71.5t-16.5 87.5t-5.5 107v492h146v-475q0 -49 3.5 -87t11 -67.5t19 -52.5t28.5 -41q63 -69 171 -69q132 0 203 86q57 69 57 252v454h146v-908h-146v102z" />
    <glyph glyph-name="uacute" unicode="&#xfa;" horiz-adv-x="1043" 
d="M768 1312l-257 -258l-91 53l204 282zM768 102q-101 -126 -273 -126q-167 0 -272 115q-25 27 -43 59t-29 71.5t-16.5 87.5t-5.5 107v492h146v-475q0 -49 3.5 -87t11 -67.5t19 -52.5t28.5 -41q63 -69 171 -69q132 0 203 86q57 69 57 252v454h146v-908h-146v102z" />
    <glyph glyph-name="ucircumflex" unicode="&#xfb;" horiz-adv-x="1043" 
d="M522 1232l-189 -178l-105 53l236 258h116l235 -258l-105 -53zM768 102q-101 -126 -273 -126q-167 0 -272 115q-25 27 -43 59t-29 71.5t-16.5 87.5t-5.5 107v492h146v-475q0 -49 3.5 -87t11 -67.5t19 -52.5t28.5 -41q63 -69 171 -69q132 0 203 86q57 69 57 252v454h146
v-908h-146v102z" />
    <glyph glyph-name="udieresis" unicode="&#xfc;" horiz-adv-x="1043" 
d="M333 1312q21 0 40 -8t33 -22t22 -32.5t8 -39.5t-8 -40t-22 -33t-33 -22t-40 -8t-40 8t-32.5 22t-21.5 33t-8 41q0 21 8 39t22 32t32.5 22t39.5 8zM710 1312q21 0 39.5 -8t32.5 -22t22 -32.5t8 -39.5t-8 -40t-22 -33t-32.5 -22t-39.5 -8t-40 8t-33 22.5t-22 33.5t-8 40
t8 39t22.5 32t33 22t39.5 8zM768 102q-101 -126 -273 -126q-167 0 -272 115q-25 27 -43 59t-29 71.5t-16.5 87.5t-5.5 107v492h146v-475q0 -49 3.5 -87t11 -67.5t19 -52.5t28.5 -41q63 -69 171 -69q132 0 203 86q57 69 57 252v454h146v-908h-146v102z" />
    <glyph glyph-name="yacute" unicode="&#xfd;" horiz-adv-x="904" 
d="M370 41l-369 867h157l289 -690l299 690h156l-607 -1386h-150zM703 1312l-256 -258l-92 53l205 282z" />
    <glyph glyph-name="thorn" unicode="&#xfe;" horiz-adv-x="1126" 
d="M589 800q-154 0 -245 -121q-67 -91 -67 -227q0 -158 91 -252q89 -92 227 -92q70 0 134.5 31.5t109.5 88.5q69 88 69 225q0 160 -94 255q-92 92 -225 92zM131 1365h146v-577q129 144 319 144q119 0 223 -61q112 -64 175 -178q61 -109 61 -239q0 -217 -154 -358
q-132 -120 -305 -120q-187 0 -319 143v-597h-146v1843z" />
    <glyph glyph-name="ydieresis" unicode="&#xff;" horiz-adv-x="904" 
d="M370 41l-369 867h157l289 -690l299 690h156l-607 -1386h-150zM263 1312q21 0 40 -8t33 -22t22 -32.5t8 -39.5t-8 -40t-22 -33t-33 -22t-40 -8t-40 8t-32.5 22t-21.5 33t-8 41q0 21 8 39t22 32t32.5 22t39.5 8zM640 1312q21 0 39.5 -8t32.5 -22t22 -32.5t8 -39.5t-8 -40
t-22 -33t-32.5 -22t-39.5 -8t-40 8t-33 22.5t-22 33.5t-8 40t8 39t22.5 32t33 22t39.5 8z" />
    <glyph glyph-name="Amacron" unicode="&#x100;" horiz-adv-x="1270" 
d="M355 1684h560v-130h-560v130zM372 528h523l-263 689zM318 386l-146 -386h-158l526 1365h191l525 -1365h-159l-147 386h-632z" />
    <glyph glyph-name="amacron" unicode="&#x101;" 
d="M278 1275h560v-130h-560v130zM531 800q-149 0 -243 -120q-70 -88 -70 -225q0 -160 95 -255q92 -92 224 -92q156 0 247 121q68 91 68 227q0 155 -92 252q-89 92 -229 92zM995 0h-146v119q-128 -143 -319 -143q-119 0 -223 61q-112 64 -175 178q-61 109 -61 239
q0 217 154 358q132 120 305 120q187 0 319 -144v120h146v-908z" />
    <glyph glyph-name="Abreve" unicode="&#x102;" horiz-adv-x="1270" 
d="M491 1744q3 -69 38 -109q40 -45 103 -45q126 0 148 154l125 -10q-12 -104 -64 -169q-80 -101 -208 -101q-132 0 -212 101q-54 69 -55 169zM372 528h523l-263 689zM318 386l-146 -386h-158l526 1365h191l525 -1365h-159l-147 386h-632z" />
    <glyph glyph-name="abreve" unicode="&#x103;" 
d="M391 1334q4 -69 39 -108q40 -45 103 -45q125 0 148 153l125 -10q-12 -104 -64 -168q-80 -101 -208 -101q-132 0 -212 101q-54 67 -55 168zM531 800q-149 0 -243 -120q-70 -88 -70 -225q0 -160 95 -255q92 -92 224 -92q156 0 247 121q68 91 68 227q0 155 -92 252
q-89 92 -229 92zM995 0h-146v119q-128 -143 -319 -143q-119 0 -223 61q-112 64 -175 178q-61 109 -61 239q0 217 154 358q132 120 305 120q187 0 319 -144v120h146v-908z" />
    <glyph glyph-name="Aogonek" unicode="&#x104;" horiz-adv-x="1270" 
d="M372 528h523l-263 689zM1097 0l-147 386h-632l-146 -386h-158l526 1365h191l525 -1365q-74 -86 -74 -137q0 -53 67 -53q31 0 76 15l41 -104q-74 -27 -130 -27q-82 0 -135 44q-53 45 -53 113q0 72 62 149h-13z" />
    <glyph glyph-name="aogonek" unicode="&#x105;" 
d="M531 800q-149 0 -243 -120q-70 -88 -70 -225q0 -160 95 -255q92 -92 224 -92q156 0 247 121q68 91 68 227q0 155 -92 252q-89 92 -229 92zM849 119q-128 -143 -319 -143q-119 0 -223 61q-112 64 -175 178q-61 109 -61 239q0 217 154 358q132 120 305 120q187 0 319 -144
v120h146v-908q-74 -86 -74 -137q0 -53 66 -53q31 0 76 15l41 -104q-74 -27 -129 -27q-82 0 -135 44q-53 45 -53 113q0 73 62 149v119z" />
    <glyph glyph-name="Cacute" unicode="&#x106;" horiz-adv-x="1356" 
d="M1046 1722l-256 -258l-92 53l205 282zM1176 1066q-70 74 -127 108q-117 72 -260 72q-266 0 -425 -201q-124 -157 -124 -363q0 -248 171 -411q158 -152 377 -152q115 0 205 43q91 42 190 141l104 -105q-45 -45 -85.5 -77.5t-77.5 -54.5q-152 -90 -333 -90q-200 0 -366 100
q-153 92 -245 252q-94 166 -94 354q0 189 94 353q95 168 256 260q161 94 354 94q144 0 258 -51t233 -167z" />
    <glyph glyph-name="cacute" unicode="&#x107;" horiz-adv-x="936" 
d="M761 1312l-256 -258l-92 53l205 282zM787 680q-104 120 -247 120q-160 0 -253 -120q-69 -90 -69 -225q0 -161 94 -255q92 -92 231 -92q81 0 136 28t115 99l98 -98q-82 -86 -162 -124q-80 -37 -187 -37q-217 0 -353 156q-119 137 -119 323q0 218 154 357q130 120 318 120
q191 0 342 -154z" />
    <glyph glyph-name="Ccircumflex" unicode="&#x108;" horiz-adv-x="1356" 
d="M756 1642l-188 -178l-106 53l236 258h116l236 -258l-106 -53zM1176 1066q-70 74 -127 108q-117 72 -260 72q-266 0 -425 -201q-124 -157 -124 -363q0 -248 171 -411q158 -152 377 -152q115 0 205 43q91 42 190 141l104 -105q-45 -45 -85.5 -77.5t-77.5 -54.5
q-152 -90 -333 -90q-200 0 -366 100q-153 92 -245 252q-94 166 -94 354q0 189 94 353q95 168 256 260q161 94 354 94q144 0 258 -51t233 -167z" />
    <glyph glyph-name="ccircumflex" unicode="&#x109;" horiz-adv-x="936" 
d="M509 1232l-188 -178l-106 53l236 258h116l236 -258l-106 -53zM787 680q-104 120 -247 120q-160 0 -253 -120q-69 -90 -69 -225q0 -161 94 -255q92 -92 231 -92q81 0 136 28t115 99l98 -98q-82 -86 -162 -124q-80 -37 -187 -37q-217 0 -353 156q-119 137 -119 323
q0 218 154 357q130 120 318 120q191 0 342 -154z" />
    <glyph glyph-name="Cdotaccent" unicode="&#x10a;" horiz-adv-x="1356" 
d="M773 1722q21 0 40 -8t33 -22t22 -32.5t8 -39.5t-8 -40t-22 -33t-33 -22t-40 -8t-40 8t-32.5 22t-21.5 33t-8 41q0 21 8 39t22 32t32.5 22t39.5 8zM1176 1066q-70 74 -127 108q-117 72 -260 72q-266 0 -425 -201q-124 -157 -124 -363q0 -248 171 -411q158 -152 377 -152
q115 0 205 43q91 42 190 141l104 -105q-45 -45 -85.5 -77.5t-77.5 -54.5q-152 -90 -333 -90q-200 0 -366 100q-153 92 -245 252q-94 166 -94 354q0 189 94 353q95 168 256 260q161 94 354 94q144 0 258 -51t233 -167z" />
    <glyph glyph-name="cdotaccent" unicode="&#x10b;" horiz-adv-x="936" 
d="M516 1312q21 0 40 -8t33 -22t22 -32.5t8 -39.5t-8 -40t-22 -33t-33 -22t-40 -8t-40 8t-32.5 22t-21.5 33t-8 41q0 21 8 39t22 32t32.5 22t39.5 8zM787 680q-104 120 -247 120q-160 0 -253 -120q-69 -90 -69 -225q0 -161 94 -255q92 -92 231 -92q81 0 136 28t115 99
l98 -98q-82 -86 -162 -124q-80 -37 -187 -37q-217 0 -353 156q-119 137 -119 323q0 218 154 357q130 120 318 120q191 0 342 -154z" />
    <glyph glyph-name="Ccaron" unicode="&#x10c;" horiz-adv-x="1356" 
d="M756 1609l188 178l106 -53l-236 -258h-116l-236 258l106 53zM1176 1066q-70 74 -127 108q-117 72 -260 72q-266 0 -425 -201q-124 -157 -124 -363q0 -248 171 -411q158 -152 377 -152q115 0 205 43q91 42 190 141l104 -105q-45 -45 -85.5 -77.5t-77.5 -54.5
q-152 -90 -333 -90q-200 0 -366 100q-153 92 -245 252q-94 166 -94 354q0 189 94 353q95 168 256 260q161 94 354 94q144 0 258 -51t233 -167z" />
    <glyph glyph-name="ccaron" unicode="&#x10d;" horiz-adv-x="936" 
d="M509 1199l188 178l106 -53l-236 -258h-116l-236 258l106 53zM787 680q-104 120 -247 120q-160 0 -253 -120q-69 -90 -69 -225q0 -161 94 -255q92 -92 231 -92q81 0 136 28t115 99l98 -98q-82 -86 -162 -124q-80 -37 -187 -37q-217 0 -353 156q-119 137 -119 323
q0 218 154 357q130 120 318 120q191 0 342 -154z" />
    <glyph glyph-name="Dcaron" unicode="&#x10e;" horiz-adv-x="1267" 
d="M594 1609l188 178l106 -53l-236 -258h-116l-235 258l105 53zM317 1223v-1081h134q240 0 391 121q185 149 185 421q0 271 -185 418q-152 121 -391 121h-134zM164 1365h280q305 0 502 -153q235 -184 235 -528q0 -347 -235 -531q-195 -153 -502 -153h-280v1365z" />
    <glyph glyph-name="dcaron" unicode="&#x10f;" horiz-adv-x="1316" 
d="M1186 1389l141 -43l-134 -312l-103 32zM531 800q-149 0 -243 -120q-70 -88 -70 -225q0 -160 95 -255q92 -92 224 -92q155 0 245 121q67 89 67 227q0 157 -91 252q-87 92 -227 92zM995 0h-146v119q-128 -143 -319 -143q-119 0 -223 61q-112 64 -175 178q-61 109 -61 239
q0 217 154 358q132 120 305 120q187 0 319 -144v577h146v-1365z" />
    <glyph glyph-name="Dcroat" unicode="&#x110;" horiz-adv-x="1298" 
d="M348 804h327v-137h-327v-525h134q240 0 391 121q185 147 185 421q0 271 -185 418q-152 121 -391 121h-134v-419zM195 804v561h280q305 0 502 -153q235 -183 235 -528q0 -347 -235 -531q-195 -153 -502 -153h-280v667h-137v137h137z" />
    <glyph glyph-name="dcroat" unicode="&#x111;" 
d="M531 800q-149 0 -243 -120q-70 -88 -70 -225q0 -160 95 -255q92 -92 224 -92q155 0 245 121q67 89 67 227q0 157 -91 252q-87 92 -227 92zM849 1198v167h146v-167h123v-132h-123v-1066h-146v119q-128 -143 -319 -143q-120 0 -223 61q-112 64 -175 178q-61 109 -61 239
q0 217 154 358q132 120 305 120q187 0 319 -144v278h-246v132h246z" />
    <glyph glyph-name="Emacron" unicode="&#x112;" horiz-adv-x="973" 
d="M246 1684h560v-130h-560v130zM867 1224h-550v-461h489v-142h-489v-479h571v-142h-724v1365h703v-141z" />
    <glyph glyph-name="emacron" unicode="&#x113;" horiz-adv-x="1017" 
d="M228 1275h560v-130h-560v130zM800 517q-4 29 -10.5 53.5t-14.5 44.5q-37 90 -110 140q-68 45 -152 45q-114 0 -194 -77q-78 -75 -98 -206h579zM221 392q4 -26 10 -50.5t16 -47.5q37 -89 115 -140q70 -46 160 -46q184 0 276 161l130 -55q-67 -117 -171 -177.5t-234 -60.5
q-209 0 -339 157q-113 136 -113 324q0 127 57 237q62 114 167 178q100 60 217 60q191 0 312 -139q122 -140 122 -356v-18t-1 -27h-724z" />
    <glyph glyph-name="Ebreve" unicode="&#x114;" horiz-adv-x="973" 
d="M381 1744q4 -70 39 -109q40 -45 102 -45q127 0 149 154l124 -10q-10 -103 -63 -169q-80 -101 -208 -101q-133 0 -213 101q-52 67 -55 169zM867 1224h-550v-461h489v-142h-489v-479h571v-142h-724v1365h703v-141z" />
    <glyph glyph-name="ebreve" unicode="&#x115;" horiz-adv-x="1017" 
d="M371 1334q3 -69 38 -109q40 -45 103 -45q126 0 148 154l125 -10q-12 -104 -64 -169q-80 -101 -208 -101q-132 0 -212 101q-54 69 -55 169zM800 517q-4 29 -10.5 53.5t-14.5 44.5q-37 90 -110 140q-68 45 -152 45q-114 0 -194 -77q-78 -75 -98 -206h579zM221 392
q4 -26 10 -50.5t16 -47.5q37 -89 115 -140q70 -46 160 -46q184 0 276 161l130 -55q-67 -117 -171 -177.5t-234 -60.5q-209 0 -339 157q-113 136 -113 324q0 127 57 237q62 114 167 178q100 60 217 60q191 0 312 -139q122 -140 122 -356v-18t-1 -27h-724z" />
    <glyph glyph-name="Edotaccent" unicode="&#x116;" horiz-adv-x="973" 
d="M525 1722q21 0 40 -8t33 -22t22 -32.5t8 -39.5t-8 -40t-22 -33t-33 -22t-40 -8t-40 8t-32.5 22t-21.5 33t-8 41q0 21 8 39t22 32t32.5 22t39.5 8zM867 1224h-550v-461h489v-142h-489v-479h571v-142h-724v1365h703v-141z" />
    <glyph glyph-name="edotaccent" unicode="&#x117;" horiz-adv-x="1017" 
d="M508 1312q21 0 40 -8t33 -22t22 -32.5t8 -39.5t-8 -40t-22 -33t-33 -22t-40 -8t-40 8t-32.5 22t-21.5 33t-8 41q0 21 8 39t22 32t32.5 22t39.5 8zM800 517q-4 29 -10.5 53.5t-14.5 44.5q-37 90 -110 140q-68 45 -152 45q-114 0 -194 -77q-78 -75 -98 -206h579zM221 392
q4 -26 10 -50.5t16 -47.5q37 -89 115 -140q70 -46 160 -46q184 0 276 161l130 -55q-67 -117 -171 -177.5t-234 -60.5q-209 0 -339 157q-113 136 -113 324q0 127 57 237q62 114 167 178q100 60 217 60q191 0 312 -139q122 -140 122 -356v-18t-1 -27h-724z" />
    <glyph glyph-name="Eogonek" unicode="&#x118;" horiz-adv-x="973" 
d="M888 0q-74 -83 -74 -137q0 -53 66 -53q31 0 76 15l41 -104q-74 -27 -129 -27q-82 0 -135 44q-53 45 -53 113q0 73 62 149h-578v1365h703v-141h-550v-461h489v-142h-489v-479h571v-142z" />
    <glyph glyph-name="eogonek" unicode="&#x119;" horiz-adv-x="1017" 
d="M800 517q-4 29 -10.5 53.5t-14.5 44.5q-37 90 -110 140q-68 45 -152 45q-114 0 -194 -77q-78 -75 -98 -206h579zM582 -20q-57 -69 -57 -117q0 -53 67 -53q29 0 76 15l40 -104q-72 -27 -129 -27q-81 0 -134 44q-54 45 -54 113t49 132q-78 15 -144 53q-106 64 -167 179
q-58 109 -58 242q0 127 57 237q62 114 167 178q100 60 217 60q191 0 312 -139q122 -140 122 -356v-18t-1 -27h-724q4 -26 10 -50.5t16 -47.5q37 -89 115 -140q70 -46 160 -46q184 0 276 161l130 -55q-118 -202 -346 -234z" />
    <glyph glyph-name="Ecaron" unicode="&#x11a;" horiz-adv-x="973" 
d="M526 1609l188 178l105 -53l-235 -258h-116l-236 258l105 53zM867 1224h-550v-461h489v-142h-489v-479h571v-142h-724v1365h703v-141z" />
    <glyph glyph-name="ecaron" unicode="&#x11b;" horiz-adv-x="1017" 
d="M508 1199l189 178l105 -53l-236 -258h-116l-235 258l105 53zM800 517q-4 29 -10.5 53.5t-14.5 44.5q-37 90 -110 140q-68 45 -152 45q-114 0 -194 -77q-78 -75 -98 -206h579zM221 392q4 -26 10 -50.5t16 -47.5q37 -89 115 -140q70 -46 160 -46q184 0 276 161l130 -55
q-67 -117 -171 -177.5t-234 -60.5q-209 0 -339 157q-113 136 -113 324q0 127 57 237q62 114 167 178q100 60 217 60q191 0 312 -139q122 -140 122 -356v-18t-1 -27h-724z" />
    <glyph glyph-name="Gcircumflex" unicode="&#x11c;" horiz-adv-x="1490" 
d="M756 1642l-188 -178l-105 53l235 258h116l236 -258l-105 -53zM840 705h560v-75q0 -185 -68 -330q-64 -135 -186 -221q-148 -103 -352 -103q-283 0 -482 186q-109 102 -167.5 236t-58.5 281q0 190 94 356q95 168 256 260q160 94 354 94q144 0 258 -51t233 -167l-105 -105
q-71 74 -127 108q-117 72 -260 72q-163 0 -294 -83q-126 -80 -194 -218q-61 -123 -61 -265q0 -147 66 -271q70 -132 196 -209q130 -81 289 -81q185 0 308 111q138 124 144 333h-403v142z" />
    <glyph glyph-name="gcircumflex" unicode="&#x11d;" 
d="M533 1232l-189 -178l-105 53l236 258h116l235 -258l-105 -53zM531 800q-149 0 -243 -120q-70 -88 -70 -225q0 -160 95 -255q92 -92 224 -92q155 0 246 121q67 89 67 227q0 155 -92 252q-87 92 -227 92zM995 908v-925q0 -198 -107 -326q-64 -76 -160 -117.5t-208 -41.5
q-127 0 -224 47q-94 46 -189 154l96 96q34 -41 63.5 -68.5t54.5 -43.5q85 -53 198 -53q154 0 242 94t88 259v136q-128 -143 -319 -143q-119 0 -223 61q-112 64 -175 178q-61 109 -61 239q0 217 154 358q132 120 305 120q187 0 319 -144v120h146z" />
    <glyph glyph-name="Gbreve" unicode="&#x11e;" horiz-adv-x="1490" 
d="M649 1744q3 -69 38 -109q40 -45 103 -45q126 0 148 154l125 -10q-12 -104 -64 -169q-80 -101 -208 -101q-132 0 -212 101q-54 69 -55 169zM840 705h560v-75q0 -185 -68 -330q-64 -135 -186 -221q-148 -103 -352 -103q-283 0 -482 186q-109 102 -167.5 236t-58.5 281
q0 190 94 356q95 168 256 260q160 94 354 94q144 0 258 -51t233 -167l-105 -105q-71 74 -127 108q-117 72 -260 72q-163 0 -294 -83q-126 -80 -194 -218q-61 -123 -61 -265q0 -147 66 -271q70 -132 196 -209q130 -81 289 -81q185 0 308 111q138 124 144 333h-403v142z" />
    <glyph glyph-name="gbreve" unicode="&#x11f;" 
d="M391 1334q4 -70 39 -109q40 -45 103 -45q126 0 148 154l125 -10q-12 -104 -64 -169q-80 -101 -208 -101q-132 0 -212 101q-54 69 -55 169zM531 800q-149 0 -243 -120q-70 -88 -70 -225q0 -160 95 -255q92 -92 224 -92q155 0 246 121q67 89 67 227q0 155 -92 252
q-87 92 -227 92zM995 908v-925q0 -198 -107 -326q-64 -76 -160 -117.5t-208 -41.5q-127 0 -224 47q-94 46 -189 154l96 96q34 -41 63.5 -68.5t54.5 -43.5q85 -53 198 -53q154 0 242 94t88 259v136q-128 -143 -319 -143q-119 0 -223 61q-112 64 -175 178q-61 109 -61 239
q0 217 154 358q132 120 305 120q187 0 319 -144v120h146z" />
    <glyph glyph-name="Gdotaccent" unicode="&#x120;" horiz-adv-x="1490" 
d="M791 1722q21 0 40 -8t33 -22t22 -32.5t8 -39.5t-8 -40t-22 -33t-33 -22t-40 -8t-40 8t-32.5 22t-21.5 33t-8 41q0 21 8 39t22 32t32.5 22t39.5 8zM840 705h560v-75q0 -185 -68 -330q-64 -135 -186 -221q-148 -103 -352 -103q-283 0 -482 186q-109 102 -167.5 236
t-58.5 281q0 190 94 356q95 168 256 260q160 94 354 94q144 0 258 -51t233 -167l-105 -105q-71 74 -127 108q-117 72 -260 72q-163 0 -294 -83q-126 -80 -194 -218q-61 -123 -61 -265q0 -147 66 -271q70 -132 196 -209q130 -81 289 -81q185 0 308 111q138 124 144 333h-403
v142z" />
    <glyph glyph-name="gdotaccent" unicode="&#x121;" 
d="M534 1312q21 0 40 -8t33 -22t22 -32.5t8 -39.5t-8 -40t-22 -33t-33 -22t-40 -8t-40 8t-32.5 22t-21.5 33t-8 41q0 21 8 39t22 32t32.5 22t39.5 8zM531 800q-149 0 -243 -120q-70 -88 -70 -225q0 -160 95 -255q92 -92 224 -92q155 0 246 121q67 89 67 227q0 155 -92 252
q-87 92 -227 92zM995 908v-925q0 -198 -107 -326q-64 -76 -160 -117.5t-208 -41.5q-127 0 -224 47q-94 46 -189 154l96 96q34 -41 63.5 -68.5t54.5 -43.5q85 -53 198 -53q154 0 242 94t88 259v136q-128 -143 -319 -143q-119 0 -223 61q-112 64 -175 178q-61 109 -61 239
q0 217 154 358q132 120 305 120q187 0 319 -144v120h146z" />
    <glyph glyph-name="Gcommaaccent" unicode="&#x122;" horiz-adv-x="1490" 
d="M720 -95l142 -43l-135 -312l-102 32zM840 705h560v-75q0 -185 -68 -330q-64 -135 -186 -221q-148 -103 -352 -103q-283 0 -482 186q-109 102 -167.5 236t-58.5 281q0 190 94 356q95 168 256 260q160 94 354 94q144 0 258 -51t233 -167l-105 -105q-71 74 -127 108
q-117 72 -260 72q-163 0 -294 -83q-126 -80 -194 -218q-61 -123 -61 -265q0 -147 66 -271q70 -132 196 -209q130 -81 289 -81q185 0 308 111q138 124 144 333h-403v142z" />
    <glyph glyph-name="gcommaaccent" unicode="&#x123;" 
d="M610 1034l-142 43l135 312l102 -32zM531 800q-149 0 -243 -120q-70 -88 -70 -225q0 -160 95 -255q92 -92 224 -92q155 0 246 121q67 89 67 227q0 155 -92 252q-87 92 -227 92zM995 908v-925q0 -198 -107 -326q-64 -76 -160 -117.5t-208 -41.5q-127 0 -224 47
q-94 46 -189 154l96 96q34 -41 63.5 -68.5t54.5 -43.5q85 -53 198 -53q154 0 242 94t88 259v136q-128 -143 -319 -143q-119 0 -223 61q-112 64 -175 178q-61 109 -61 239q0 217 154 358q132 120 305 120q187 0 319 -144v120h146z" />
    <glyph glyph-name="Hcircumflex" unicode="&#x124;" horiz-adv-x="1331" 
d="M666 1642l-189 -178l-105 53l236 258h116l235 -258l-105 -53zM317 763h698v602h153v-1365h-153v621h-698v-621h-153v1365h153v-602z" />
    <glyph glyph-name="hcircumflex" unicode="&#x125;" horiz-adv-x="1043" 
d="M528 1642l-188 -178l-105 53l235 258h116l236 -258l-105 -53zM275 805q100 127 273 127q167 0 272 -115q50 -54 72 -130.5t22 -195.5v-491h-146v474q0 49 -3.5 87.5t-11 68t-19 52.5t-28.5 41q-63 69 -171 69q-132 0 -203 -86q-57 -69 -57 -252v-454h-146v1365h146v-560z
" />
    <glyph glyph-name="Hbar" unicode="&#x126;" horiz-adv-x="1338" 
d="M1017 1066h-697v-303h697v303zM1170 1066v-1066h-153v621h-697v-621h-153v1066h-123v132h123v167h153v-167h697v167h153v-167h123v-132h-123z" />
    <glyph glyph-name="hbar" unicode="&#x127;" horiz-adv-x="1044" 
d="M276 1066v-261q100 127 273 127q167 0 272 -115q50 -54 72 -130.5t22 -195.5v-491h-146v474q0 49 -3.5 87.5t-11 68t-19 52.5t-28.5 41q-63 69 -171 69q-132 0 -203 -86q-57 -69 -57 -252v-454h-146v1066h-123v132h123v167h146v-167h246v-132h-246z" />
    <glyph glyph-name="Itilde" unicode="&#x128;" horiz-adv-x="481" 
d="M519 1694q-8 -85 -48.5 -129.5t-112.5 -44.5q-54 0 -139 39q-66 31 -89 31q-24 0 -35.5 -15.5t-17.5 -57.5l-116 27q9 82 51.5 128t111.5 46q45 0 142 -44q60 -26 87 -26q25 0 35 15t13 59zM316 1365v-1365h-153v1365h153z" />
    <glyph glyph-name="itilde" unicode="&#x129;" horiz-adv-x="408" 
d="M483 1285q-7 -85 -48 -129.5t-113 -44.5q-54 0 -139 39q-66 31 -89 31q-24 0 -35.5 -15.5t-17.5 -58.5l-116 28q9 81 51.5 127.5t111.5 46.5q46 0 142 -44q58 -26 87 -26q25 0 35 15t13 58zM277 908v-908h-146v908h146z" />
    <glyph glyph-name="Imacron" unicode="&#x12a;" horiz-adv-x="481" 
d="M-40 1684h560v-130h-560v130zM316 1365v-1365h-153v1365h153z" />
    <glyph glyph-name="imacron" unicode="&#x12b;" horiz-adv-x="408" 
d="M-76 1275h560v-130h-560v130zM277 908v-908h-146v908h146z" />
    <glyph glyph-name="Ibreve" unicode="&#x12c;" horiz-adv-x="481" 
d="M96 1744q4 -70 39 -109q40 -45 102 -45q127 0 148 154l125 -10q-10 -103 -63 -169q-80 -101 -209 -101q-132 0 -212 101q-54 69 -55 169zM317 1365v-1365h-153v1365h153z" />
    <glyph glyph-name="ibreve" unicode="&#x12d;" horiz-adv-x="408" 
d="M59 1334q4 -70 39 -109q40 -45 102 -45q127 0 148 154l125 -10q-10 -103 -63 -169q-80 -101 -209 -101q-132 0 -212 101q-54 69 -55 169zM277 908v-908h-146v908h146z" />
    <glyph glyph-name="Iogonek" unicode="&#x12e;" horiz-adv-x="481" 
d="M164 0v1365h153v-1365q-74 -89 -74 -137q0 -53 67 -53q31 0 75 15l41 -104q-72 -27 -129 -27q-82 0 -135 44q-53 45 -53 113q0 72 62 149h-7z" />
    <glyph glyph-name="iogonek" unicode="&#x12f;" horiz-adv-x="408" 
d="M205 1314q21 0 40 -8t33.5 -22.5t22.5 -33.5t8 -40q0 -45 -30 -75t-75 -30q-21 0 -40 8.5t-33.5 22.5t-22.5 33.5t-8 41.5q0 21 8.5 39.5t22.5 33t33.5 22.5t40.5 8zM277 0q-74 -89 -74 -137q0 -53 67 -53q30 0 75 15l41 -104q-74 -27 -129 -27q-82 0 -135 44
q-53 45 -53 113q0 73 62 149v908h146v-908z" />
    <glyph glyph-name="Idotaccent" unicode="&#x130;" horiz-adv-x="481" 
d="M240 1722q21 0 40 -8t33 -22t22 -32.5t8 -39.5t-8 -40t-22 -33t-33 -22t-40 -8t-40 8t-32.5 22t-21.5 33t-8 41q0 21 8 39t22 32t32.5 22t39.5 8zM317 1365v-1365h-153v1365h153z" />
    <glyph glyph-name="dotlessi" unicode="&#x131;" horiz-adv-x="408" 
d="M277 908v-908h-146v908h146z" />
    <glyph glyph-name="IJ" unicode="&#x132;" horiz-adv-x="1279" 
d="M1116 1365v-956q0 -129 -23 -207q-23 -77 -78 -132q-94 -94 -238 -94q-85 0 -155 33t-158 113l93 110q116 -113 217 -113q97 0 143 70t46 220v956h153zM317 1365v-1365h-153v1365h153z" />
    <glyph glyph-name="ij" unicode="&#x133;" horiz-adv-x="807" 
d="M530 908h146v-1113q0 -286 -220 -286q-41 0 -90 13v133q39 -10 62 -10q102 0 102 150v1113zM604 1314q21 0 40 -8t33.5 -22.5t22.5 -33.5t8 -40q0 -22 -8 -41t-22.5 -33.5t-33.5 -22.5t-40 -8q-45 0 -75 30.5t-30 75.5q0 21 8.5 39.5t22.5 33t33.5 22.5t40.5 8zM205 1314
q21 0 40 -8t33.5 -22.5t22.5 -33.5t8 -40q0 -45 -30 -75t-75 -30q-21 0 -40 8.5t-33.5 22.5t-22.5 33.5t-8 41.5q0 21 8.5 39.5t22.5 33t33.5 22.5t40.5 8zM277 908v-908h-146v908h146z" />
    <glyph glyph-name="Jcircumflex" unicode="&#x134;" horiz-adv-x="823" 
d="M506 1642l-188 -178l-106 53l236 258h116l236 -258l-106 -53zM659 1365v-956q0 -129 -23 -207q-23 -77 -78 -132q-94 -94 -238 -94q-84 0 -154 33q-71 32 -159 113l93 110q116 -113 217 -113q97 0 143 70t46 220v956h153z" />
    <glyph glyph-name="jcircumflex" unicode="&#x135;" horiz-adv-x="427" 
d="M194 1232l-189 -178l-105 53l236 258h116l235 -258l-105 -53zM150 908h146v-1113q0 -286 -220 -286q-41 0 -90 13v133q39 -10 62 -10q102 0 102 150v1113z" />
    <glyph glyph-name="Kcommaaccent" unicode="&#x136;" horiz-adv-x="1162" 
d="M620 800l529 -800h-179l-452 688l-201 -221v-467h-153v1365h153v-698l635 698h183zM588 -95l142 -43l-135 -312l-102 32z" />
    <glyph glyph-name="kcommaaccent" unicode="&#x137;" horiz-adv-x="952" 
d="M448 -95l141 -43l-135 -312l-102 32zM529 539l419 -539h-181l-336 441l-156 -154v-287h-146v1365h146v-896l438 439l187 -1z" />
    <glyph glyph-name="kgreenlandic" unicode="&#x138;" horiz-adv-x="952" 
d="M529 539l419 -539h-181l-336 441l-156 -154v-287h-146v908h146v-439l438 439h187z" />
    <glyph glyph-name="Lacute" unicode="&#x139;" horiz-adv-x="860" 
d="M502 1722l-256 -258l-92 53l205 282zM317 1365v-1223h530v-142h-683v1365h153z" />
    <glyph glyph-name="lacute" unicode="&#x13a;" horiz-adv-x="408" 
d="M472 1746l-256 -258l-92 53l205 282zM277 0h-146v1365h146v-1365z" />
    <glyph glyph-name="Lcommaaccent" unicode="&#x13b;" horiz-adv-x="872" 
d="M483 -95l141 -43l-135 -312l-102 32zM317 1365v-1223h530v-142h-683v1365h153z" />
    <glyph glyph-name="lcommaaccent" unicode="&#x13c;" horiz-adv-x="408" 
d="M147 -95l141 -43l-135 -312l-102 32zM278 0h-146v1365h146v-1365z" />
    <glyph glyph-name="Lcaron" unicode="&#x13d;" horiz-adv-x="872" 
d="M617 1389l142 -43l-135 -312l-102 32zM317 1365v-1223h530v-142h-683v1365h153z" />
    <glyph glyph-name="lcaron" unicode="&#x13e;" horiz-adv-x="599" 
d="M468 1389l142 -43l-135 -312l-102 32zM277 0h-146v1365h146v-1365z" />
    <glyph glyph-name="Ldot" unicode="&#x13f;" horiz-adv-x="872" 
d="M317 1365v-1223h530v-142h-683v1365h153zM653 784q21 0 39.5 -8t32 -21.5t21.5 -32t8 -39.5t-8 -39.5t-21.5 -32t-32 -21.5t-39.5 -8t-39.5 8t-32 22t-21.5 32.5t-8 39.5t8 39t22 31.5t32 21.5t39 8z" />
    <glyph glyph-name="ldot" unicode="&#x140;" horiz-adv-x="692" 
d="M550 784q21 0 39.5 -8t32 -21.5t21.5 -32t8 -39.5t-8 -39.5t-21.5 -32t-32 -21.5t-39.5 -8t-39.5 8t-32 22t-21.5 32.5t-8 39.5t8 39t22 31.5t32 21.5t39 8zM277 0h-146v1365h146v-1365z" />
    <glyph glyph-name="Lslash" unicode="&#x141;" horiz-adv-x="902" 
d="M195 739v626h153v-559l233 164v-155l-233 -164v-509h529v-142h-682v584l-137 -95v155z" />
    <glyph glyph-name="lslash" unicode="&#x142;" horiz-adv-x="512" 
d="M183 586l-132 -88v160l132 88v619h146v-521l132 88v-160l-132 -88v-684h-146v586z" />
    <glyph glyph-name="Nacute" unicode="&#x143;" horiz-adv-x="1454" 
d="M1004 1722l-257 -258l-91 53l204 282zM164 0v1365h143l830 -1116v1116h153v-1365h-143l-830 1116v-1116h-153z" />
    <glyph glyph-name="nacute" unicode="&#x144;" horiz-adv-x="1043" 
d="M802 1312l-257 -258l-92 53l205 282zM275 806q100 126 273 126q167 0 272 -115q25 -27 43 -59t29 -71.5t16.5 -87.5t5.5 -107v-492h-146v474q0 49 -3.5 87.5t-11 68t-19 52.5t-28.5 41q-65 69 -171 69q-132 0 -203 -86q-57 -69 -57 -252v-454h-146v908h146v-102z" />
    <glyph glyph-name="Ncommaaccent" unicode="&#x145;" horiz-adv-x="1454" 
d="M704 -95l142 -43l-135 -312l-102 32zM164 0v1365h143l830 -1116v1116h153v-1365h-143l-830 1116v-1116h-153z" />
    <glyph glyph-name="ncommaaccent" unicode="&#x146;" horiz-adv-x="1043" 
d="M499 -95l141 -43l-134 -312l-103 32zM275 806q100 126 273 126q167 0 272 -115q25 -27 43 -59t29 -71.5t16.5 -87.5t5.5 -107v-492h-146v474q0 49 -3.5 87.5t-11 68t-19 52.5t-28.5 41q-65 69 -171 69q-132 0 -203 -86q-57 -69 -57 -252v-454h-146v908h146v-102z" />
    <glyph glyph-name="Ncaron" unicode="&#x147;" horiz-adv-x="1454" 
d="M761 1609l189 178l105 -53l-236 -258h-116l-235 258l105 53zM164 0v1365h143l830 -1116v1116h153v-1365h-143l-830 1116v-1116h-153z" />
    <glyph glyph-name="ncaron" unicode="&#x148;" horiz-adv-x="1043" 
d="M532 1199l188 178l105 -53l-235 -258h-116l-236 258l105 53zM275 806q100 126 273 126q167 0 272 -115q25 -27 43 -59t29 -71.5t16.5 -87.5t5.5 -107v-492h-146v474q0 49 -3.5 87.5t-11 68t-19 52.5t-28.5 41q-65 69 -171 69q-132 0 -203 -86q-57 -69 -57 -252v-454h-146
v908h146v-102z" />
    <glyph glyph-name="napostrophe" unicode="&#x149;" horiz-adv-x="1208" 
d="M170 1343l134 -49l-206 -461l-98 39zM440 806q100 126 273 126q167 0 272 -115q25 -27 43 -59t29 -71.5t16.5 -87.5t5.5 -107v-492h-146v474q0 49 -3.5 87.5t-11 68t-19 52.5t-28.5 41q-65 69 -171 69q-132 0 -203 -86q-57 -69 -57 -252v-454h-146v908h146v-102z" />
    <glyph glyph-name="Eng" unicode="&#x14a;" horiz-adv-x="1454" 
d="M1290 1365v-1384q0 -287 -220 -287q-36 0 -90 14v132q39 -10 62 -10q102 0 102 151v23l-827 1112v-1116h-153v1365h143l830 -1116v1116h153z" />
    <glyph glyph-name="eng" unicode="&#x14b;" horiz-adv-x="1043" 
d="M604 -160q39 -10 62 -10q102 0 102 151v493q0 49 -3.5 87.5t-11 68t-19 52.5t-28.5 41q-63 69 -171 69q-132 0 -203 -86q-57 -69 -57 -252v-454h-146v908h146v-102q100 126 273 126q167 0 272 -115q25 -27 43 -59t29 -71.5t16.5 -87.5t5.5 -107v-511q0 -287 -220 -287
q-36 0 -90 14v132z" />
    <glyph glyph-name="Omacron" unicode="&#x14c;" horiz-adv-x="1565" 
d="M502 1684h560v-130h-560v130zM778 1246q-151 0 -279 -83q-129 -83 -197 -218q-62 -122 -62 -272q0 -140 67 -264q70 -130 199 -210q131 -80 276 -80q146 0 277 80q128 79 199 210q67 125 67 273q0 240 -166 407q-156 157 -381 157zM782 1389q187 0 344 -94
q164 -98 258 -260q95 -164 95 -353q0 -188 -95 -354q-92 -158 -248 -252q-166 -100 -359 -100q-182 0 -348 100q-156 94 -248 252q-95 167 -95 365q0 184 95 342q100 168 258 260q160 94 343 94z" />
    <glyph glyph-name="omacron" unicode="&#x14d;" horiz-adv-x="1077" 
d="M259 1275h560v-130h-560v130zM533 799q-151 0 -245 -120q-70 -88 -70 -225q0 -159 95 -254q92 -92 225 -92q159 0 252 120q69 91 69 229q0 156 -94 250q-92 92 -232 92zM546 932q203 0 341 -156q119 -136 119 -321q0 -218 -154 -359q-131 -120 -314 -120q-212 0 -348 156
q-119 136 -119 326q0 213 154 354q130 120 321 120z" />
    <glyph glyph-name="Obreve" unicode="&#x14e;" horiz-adv-x="1565" 
d="M638 1744q3 -69 38 -109q40 -45 103 -45q126 0 148 154l125 -10q-12 -104 -64 -169q-80 -101 -208 -101q-132 0 -212 101q-54 69 -55 169zM778 1246q-151 0 -279 -83q-129 -83 -197 -218q-62 -122 -62 -272q0 -140 67 -264q70 -130 199 -210q131 -80 276 -80
q146 0 277 80q128 79 199 210q67 125 67 273q0 240 -166 407q-156 157 -381 157zM782 1389q187 0 344 -94q164 -98 258 -260q95 -164 95 -353q0 -188 -95 -354q-92 -158 -248 -252q-166 -100 -359 -100q-182 0 -348 100q-156 94 -248 252q-95 167 -95 365q0 184 95 342
q100 168 258 260q160 94 343 94z" />
    <glyph glyph-name="obreve" unicode="&#x14f;" horiz-adv-x="1077" 
d="M394 1334q4 -70 39 -109q40 -45 102 -45q127 0 148 154l125 -10q-10 -103 -63 -169q-80 -101 -209 -101q-132 0 -212 101q-54 69 -55 169zM533 799q-151 0 -245 -120q-70 -88 -70 -225q0 -159 95 -254q92 -92 225 -92q159 0 252 120q69 91 69 229q0 156 -94 250
q-92 92 -232 92zM546 932q203 0 341 -156q119 -136 119 -321q0 -218 -154 -359q-131 -120 -314 -120q-212 0 -348 156q-119 136 -119 326q0 213 154 354q130 120 321 120z" />
    <glyph glyph-name="Ohungarumlaut" unicode="&#x150;" horiz-adv-x="1565" 
d="M1185 1722l-256 -258l-85 53l205 282zM898 1722l-256 -258l-85 53l205 282zM778 1246q-151 0 -279 -83q-129 -83 -197 -218q-62 -122 -62 -272q0 -140 67 -264q70 -130 199 -210q131 -80 276 -80q146 0 277 80q128 79 199 210q67 125 67 273q0 240 -166 407
q-156 157 -381 157zM782 1389q187 0 344 -94q164 -98 258 -260q95 -164 95 -353q0 -188 -95 -354q-92 -158 -248 -252q-166 -100 -359 -100q-182 0 -348 100q-156 94 -248 252q-95 167 -95 365q0 184 95 342q100 168 258 260q160 94 343 94z" />
    <glyph glyph-name="ohungarumlaut" unicode="&#x151;" horiz-adv-x="1077" 
d="M962 1312l-256 -258l-85 53l204 282zM675 1312l-256 -258l-85 53l205 282zM533 799q-151 0 -245 -120q-70 -88 -70 -225q0 -159 95 -254q92 -92 225 -92q159 0 252 120q69 91 69 229q0 156 -94 250q-92 92 -232 92zM546 932q203 0 341 -156q119 -136 119 -321
q0 -218 -154 -359q-131 -120 -314 -120q-212 0 -348 156q-119 136 -119 326q0 213 154 354q130 120 321 120z" />
    <glyph glyph-name="OE" unicode="&#x152;" horiz-adv-x="2134" 
d="M778 1245q-151 0 -279 -83q-129 -83 -197 -218q-62 -122 -62 -272q0 -139 67 -263q70 -130 199 -210q131 -80 276 -80q146 0 277 80q127 79 198 210q67 125 67 272q0 241 -166 407q-156 157 -380 157zM1324 1365h704v-141h-551v-461h489v-142h-489v-479h571v-142h-724
v242q-51 -63 -108 -110q-194 -156 -434 -156q-189 0 -353 100q-156 94 -248 252q-95 166 -95 354q0 187 95 353t258 260q160 94 343 94q267 0 467 -186q39 -35 75 -80v242z" />
    <glyph glyph-name="oe" unicode="&#x153;" horiz-adv-x="1804" 
d="M1588 517q-4 29 -10.5 53.5t-14.5 44.5q-37 90 -110 140q-68 45 -152 45q-114 0 -194 -77q-78 -75 -98 -206h579zM533 800q-152 0 -245 -120q-70 -89 -70 -225q0 -158 95 -255q92 -92 225 -92q159 0 252 121q69 90 69 229q0 155 -94 250q-92 92 -232 92zM931 719
q136 213 369 213q172 0 292 -121q141 -140 141 -370v-49h-724q4 -26 10 -50.5t16 -47.5q37 -90 114 -140q70 -46 160 -46q184 0 277 161l130 -55q-69 -117 -172 -177.5t-234 -60.5q-120 0 -218 55.5t-161 158.5q-38 -60 -89 -104q-130 -110 -303 -110q-213 0 -349 156
q-119 137 -119 322q0 219 154 358q130 120 313 120q123 0 225 -55.5t168 -157.5z" />
    <glyph glyph-name="Racute" unicode="&#x154;" horiz-adv-x="1092" 
d="M317 692h145q172 0 253 66q84 69 84 194q0 128 -84 202q-79 70 -253 70h-145v-532zM1041 0h-170l-307 559q-77 -6 -120 -6h-127v-553h-153v1365h280q134 0 220 -24q85 -24 150 -80q63 -54 99 -136t36 -173q0 -188 -135 -300q-43 -35 -100 -60zM772 1722l-257 -258l-92 53
l205 282z" />
    <glyph glyph-name="racute" unicode="&#x155;" horiz-adv-x="600" 
d="M545 1312l-256 -258l-92 53l205 282zM275 806q84 103 236 103q13 0 25 -0.5t23 -1.5v-131q-12 1 -22 1h-18q-93 0 -153 -45q-52 -40 -71 -103q-20 -66 -20 -191v-438h-146v908h146v-102z" />
    <glyph glyph-name="Rcommaaccent" unicode="&#x156;" horiz-adv-x="1092" 
d="M317 692h145q172 0 253 66q84 69 84 194q0 128 -84 202q-79 70 -253 70h-145v-532zM1041 0h-170l-307 559q-77 -6 -120 -6h-127v-553h-153v1365h280q134 0 220 -24q85 -24 150 -80q63 -54 99 -136t36 -173q0 -188 -135 -300q-43 -35 -100 -60zM541 -95l141 -43l-135 -312
l-102 32z" />
    <glyph glyph-name="rcommaaccent" unicode="&#x157;" horiz-adv-x="600" 
d="M144 -95l141 -43l-135 -312l-102 32zM275 806q84 103 236 103q13 0 25 -0.5t23 -1.5v-131q-12 1 -21.5 1h-17.5q-95 0 -153 -45q-53 -39 -72 -103q-20 -66 -20 -191v-438h-146v908h146v-102z" />
    <glyph glyph-name="Rcaron" unicode="&#x158;" horiz-adv-x="1092" 
d="M317 692h145q172 0 253 66q84 69 84 194q0 128 -84 202q-79 70 -253 70h-145v-532zM1041 0h-170l-307 559q-77 -6 -120 -6h-127v-553h-153v1365h280q134 0 220 -24q85 -24 150 -80q63 -54 99 -136t36 -173q0 -188 -135 -300q-43 -35 -100 -60zM526 1609l188 178l105 -53
l-235 -258h-116l-236 258l105 53z" />
    <glyph glyph-name="rcaron" unicode="&#x159;" horiz-adv-x="600" 
d="M345 1199l188 178l105 -53l-235 -258h-116l-236 258l105 53zM276 806q84 103 236 103q13 0 25 -0.5t23 -1.5v-131q-12 1 -21.5 1h-17.5q-94 0 -154 -45q-52 -40 -71 -103q-20 -66 -20 -191v-438h-146v908h146v-102z" />
    <glyph glyph-name="Sacute" unicode="&#x15a;" horiz-adv-x="1035" 
d="M793 1722l-256 -258l-92 53l205 282zM781 1095q-98 152 -247 152q-70 0 -125 -28q-27 -14 -50 -35.5t-39 -48t-25 -56.5t-9 -61q0 -139 198 -215l134 -52q164 -63 240 -148q79 -88 79 -215q0 -186 -143 -309q-121 -103 -291 -103q-81 0 -149.5 23.5t-122.5 68.5t-92 110
t-57 149l148 42q61 -250 278 -250q120 0 199 82q76 79 76 185q0 81 -54 137q-54 55 -184 106l-128 50q-282 111 -282 341q0 178 140 285q111 84 264 84q232 0 364 -215z" />
    <glyph glyph-name="sacute" unicode="&#x15b;" horiz-adv-x="760" 
d="M634 1312l-257 -258l-92 53l205 282zM545 706q-30 46 -57 66q-44 32 -101 32q-33 0 -60.5 -9.5t-47.5 -26.5t-31 -40.5t-11 -51.5q0 -53 40 -87q19 -16 118 -55l89 -35q109 -42 157.5 -97.5t48.5 -137.5q0 -127 -97 -212q-88 -76 -217 -76q-225 0 -315 232l126 53
q40 -86 84 -120q43 -34 111 -34q82 0 127 53q36 43 36 97q0 50 -30 79q-32 29 -130 66l-98 39q-186 72 -186 229q0 118 90 192q85 70 200 70q179 0 271 -164z" />
    <glyph glyph-name="Scircumflex" unicode="&#x15c;" horiz-adv-x="1035" 
d="M509 1642l-188 -178l-105 53l235 258h117l235 -258l-105 -53zM781 1095q-98 152 -247 152q-70 0 -125 -28q-27 -14 -50 -35.5t-39 -48t-25 -56.5t-9 -61q0 -139 198 -215l134 -52q164 -63 240 -148q79 -88 79 -215q0 -186 -143 -309q-121 -103 -291 -103
q-81 0 -149.5 23.5t-122.5 68.5t-92 110t-57 149l148 42q61 -250 278 -250q120 0 199 82q76 79 76 185q0 81 -54 137q-54 55 -184 106l-128 50q-282 111 -282 341q0 178 140 285q111 84 264 84q232 0 364 -215z" />
    <glyph glyph-name="scircumflex" unicode="&#x15d;" horiz-adv-x="760" 
d="M377 1232l-188 -178l-105 53l235 258h117l235 -258l-105 -53zM545 706q-30 46 -57 66q-44 32 -101 32q-33 0 -60.5 -9.5t-47.5 -26.5t-31 -40.5t-11 -51.5q0 -53 40 -87q19 -16 118 -55l89 -35q109 -42 157.5 -97.5t48.5 -137.5q0 -127 -97 -212q-88 -76 -217 -76
q-225 0 -315 232l126 53q40 -86 84 -120q43 -34 111 -34q82 0 127 53q36 43 36 97q0 50 -30 79q-32 29 -130 66l-98 39q-186 72 -186 229q0 118 90 192q85 70 200 70q179 0 271 -164z" />
    <glyph glyph-name="Scedilla" unicode="&#x15e;" horiz-adv-x="1035" 
d="M663 -154l-207 -262l-100 50l172 270zM781 1095q-98 152 -247 152q-70 0 -125 -28q-27 -14 -50 -35.5t-39 -48t-25 -56.5t-9 -61q0 -139 198 -215l134 -52q164 -63 240 -148q79 -88 79 -215q0 -186 -143 -309q-121 -103 -291 -103q-81 0 -149.5 23.5t-122.5 68.5t-92 110
t-57 149l148 42q61 -250 278 -250q120 0 199 82q76 79 76 185q0 81 -54 137q-54 55 -184 106l-128 50q-282 111 -282 341q0 178 140 285q111 84 264 84q232 0 364 -215z" />
    <glyph glyph-name="scedilla" unicode="&#x15f;" horiz-adv-x="760" 
d="M514 -154l-207 -262l-100 50l172 270zM545 706q-30 46 -57 66q-44 32 -101 32q-33 0 -60.5 -9.5t-47.5 -26.5t-31 -40.5t-11 -51.5q0 -53 40 -87q19 -16 118 -55l89 -35q109 -42 157.5 -97.5t48.5 -137.5q0 -127 -97 -212q-88 -76 -217 -76q-225 0 -315 232l126 53
q40 -86 84 -120q43 -34 111 -34q82 0 127 53q36 43 36 97q0 50 -30 79q-32 29 -130 66l-98 39q-186 72 -186 229q0 118 90 192q85 70 200 70q179 0 271 -164z" />
    <glyph glyph-name="Scaron" unicode="&#x160;" horiz-adv-x="1035" 
d="M509 1609l189 178l105 -53l-235 -258h-117l-235 258l105 53zM781 1095q-98 152 -247 152q-70 0 -125 -28q-27 -14 -50 -35.5t-39 -48t-25 -56.5t-9 -61q0 -139 198 -215l134 -52q164 -63 240 -148q79 -88 79 -215q0 -186 -143 -309q-121 -103 -291 -103
q-81 0 -149.5 23.5t-122.5 68.5t-92 110t-57 149l148 42q61 -250 278 -250q120 0 199 82q76 79 76 185q0 81 -54 137q-54 55 -184 106l-128 50q-282 111 -282 341q0 178 140 285q111 84 264 84q232 0 364 -215z" />
    <glyph glyph-name="scaron" unicode="&#x161;" horiz-adv-x="760" 
d="M377 1199l189 178l105 -53l-235 -258h-117l-235 258l105 53zM545 706q-30 46 -57 66q-44 32 -101 32q-33 0 -60.5 -9.5t-47.5 -26.5t-31 -40.5t-11 -51.5q0 -53 40 -87q19 -16 118 -55l89 -35q109 -42 157.5 -97.5t48.5 -137.5q0 -127 -97 -212q-88 -76 -217 -76
q-225 0 -315 232l126 53q40 -86 84 -120q43 -34 111 -34q82 0 127 53q36 43 36 97q0 50 -30 79q-32 29 -130 66l-98 39q-186 72 -186 229q0 118 90 192q85 70 200 70q179 0 271 -164z" />
    <glyph glyph-name="Tcommaaccent" unicode="&#x162;" horiz-adv-x="887" 
d="M389 -95l142 -43l-135 -312l-102 32zM521 1224v-1224h-153v1224h-354v141h860v-141h-353z" />
    <glyph glyph-name="tcommaaccent" unicode="&#x163;" horiz-adv-x="504" 
d="M227 -95l142 -43l-135 -312l-102 32zM292 776v-503q0 -151 102 -151q25 0 62 10v-132q-51 -14 -90 -14q-220 0 -220 287v503h-102v132h102v215l146 58v-273h151v-132h-151z" />
    <glyph glyph-name="Tcaron" unicode="&#x164;" horiz-adv-x="887" 
d="M444 1609l188 178l106 -53l-236 -258h-116l-235 258l105 53zM521 1224v-1224h-153v1224h-354v141h860v-141h-353z" />
    <glyph glyph-name="tcaron" unicode="&#x165;" horiz-adv-x="614" 
d="M484 1389l141 -43l-135 -312l-102 32zM292 776v-503q0 -151 102 -151q25 0 62 10v-132q-51 -14 -90 -14q-220 0 -220 287v503h-102v132h102v215l146 58v-273h151v-132h-151z" />
    <glyph glyph-name="Tbar" unicode="&#x166;" horiz-adv-x="887" 
d="M521 776v-776h-153v776h-217v132h217v316h-354v141h860v-141h-353v-316h217v-132h-217z" />
    <glyph glyph-name="tbar" unicode="&#x167;" horiz-adv-x="504" 
d="M146 545h-102v125h102v113h-102v125h102v215l146 58v-273h151v-125h-151v-113h151v-125h-151v-272q0 -151 102 -151q25 0 62 10v-132q-51 -14 -90 -14q-220 0 -220 287v272z" />
    <glyph glyph-name="Utilde" unicode="&#x168;" horiz-adv-x="1301" 
d="M930 1694q-8 -85 -48.5 -129.5t-112.5 -44.5q-54 0 -139 39q-66 31 -89 31q-24 0 -35.5 -15.5t-17.5 -57.5l-116 27q9 82 51.5 128t111.5 46q45 0 142 -44q60 -26 87 -26q25 0 35 15t13 59zM317 1365v-846q0 -53 2.5 -92.5t7.5 -66.5q10 -55 36 -97q38 -62 115 -102
q80 -43 172 -43q127 0 225 76q64 49 87 117q22 65 22 208v846h153v-887q0 -54 -5 -99t-15.5 -83.5t-27.5 -71.5t-41 -63q-71 -91 -181 -140q-102 -46 -216 -46q-166 0 -297 91q-103 71 -146 166q-44 97 -44 246v887h153z" />
    <glyph glyph-name="utilde" unicode="&#x169;" horiz-adv-x="1043" 
d="M800 1285q-7 -85 -47.5 -129.5t-112.5 -44.5q-54 0 -139 39q-66 31 -89 31q-24 0 -35.5 -15.5t-18.5 -58.5l-115 28q9 81 52 127.5t110 46.5q47 0 143 -44q58 -26 87 -26q25 0 35 15t13 58zM768 102q-101 -126 -273 -126q-167 0 -272 115q-25 27 -43 59t-29 71.5
t-16.5 87.5t-5.5 107v492h146v-475q0 -49 3.5 -87t11 -67.5t19 -52.5t28.5 -41q63 -69 171 -69q132 0 203 86q57 69 57 252v454h146v-908h-146v102z" />
    <glyph glyph-name="Umacron" unicode="&#x16a;" horiz-adv-x="1301" 
d="M371 1684h560v-130h-560v130zM317 1365v-846q0 -53 2.5 -92.5t7.5 -66.5q10 -55 36 -97q38 -62 115 -102q80 -43 172 -43q127 0 225 76q64 49 87 117q22 65 22 208v846h153v-887q0 -54 -5 -99t-15.5 -83.5t-27.5 -71.5t-41 -63q-71 -91 -181 -140q-102 -46 -216 -46
q-166 0 -297 91q-103 71 -146 166q-44 97 -44 246v887h153z" />
    <glyph glyph-name="umacron" unicode="&#x16b;" horiz-adv-x="1043" 
d="M242 1275h559v-130h-559v130zM768 102q-101 -126 -273 -126q-167 0 -272 115q-25 27 -43 59t-29 71.5t-16.5 87.5t-5.5 107v492h146v-475q0 -49 3.5 -87t11 -67.5t19 -52.5t28.5 -41q63 -69 171 -69q132 0 203 86q57 69 57 252v454h146v-908h-146v102z" />
    <glyph glyph-name="Ubreve" unicode="&#x16c;" horiz-adv-x="1301" 
d="M506 1744q4 -70 39 -109q40 -45 102 -45q127 0 148 154l125 -10q-10 -103 -63 -169q-80 -101 -208 -101q-133 0 -213 101q-52 67 -55 169zM317 1365v-846q0 -53 2.5 -92.5t7.5 -66.5q10 -55 36 -97q38 -62 115 -102q80 -43 172 -43q127 0 225 76q64 49 87 117
q22 65 22 208v846h153v-887q0 -54 -5 -99t-15.5 -83.5t-27.5 -71.5t-41 -63q-71 -91 -181 -140q-102 -46 -216 -46q-166 0 -297 91q-103 71 -146 166q-44 97 -44 246v887h153z" />
    <glyph glyph-name="ubreve" unicode="&#x16d;" horiz-adv-x="1043" 
d="M377 1334q3 -69 38 -109q40 -45 103 -45q127 0 148 154l125 -10q-10 -101 -64 -169q-80 -101 -208 -101q-132 0 -212 101q-54 69 -55 169zM768 102q-101 -126 -273 -126q-167 0 -272 115q-25 27 -43 59t-29 71.5t-16.5 87.5t-5.5 107v492h146v-475q0 -49 3.5 -87
t11 -67.5t19 -52.5t28.5 -41q63 -69 171 -69q132 0 203 86q57 69 57 252v454h146v-908h-146v102z" />
    <glyph glyph-name="Uring" unicode="&#x16e;" horiz-adv-x="1301" 
d="M651 1725q-23 0 -42 -8.5t-33.5 -22.5t-22.5 -34t-8 -42q0 -21 8.5 -40t22.5 -33t33.5 -22.5t41.5 -8.5q21 0 40.5 8.5t33.5 22.5t22.5 33.5t8.5 40.5q0 45 -30 75.5t-75 30.5zM650 1799q78 0 131 -52q53 -53 53 -127t-53 -127q-55 -53 -130 -53q-77 0 -130 53
q-54 52 -54 129q0 72 54 125q53 52 129 52zM317 1365v-846q0 -53 2.5 -92.5t7.5 -66.5q10 -55 36 -97q38 -62 115 -102q80 -43 172 -43q127 0 225 76q64 49 87 117q22 65 22 208v846h153v-887q0 -54 -5 -99t-15.5 -83.5t-27.5 -71.5t-41 -63q-71 -91 -181 -140
q-102 -46 -216 -46q-166 0 -297 91q-103 71 -146 166q-44 97 -44 246v887h153z" />
    <glyph glyph-name="uring" unicode="&#x16f;" horiz-adv-x="1043" 
d="M522 1315q-23 0 -42 -8.5t-33.5 -22.5t-22.5 -34t-8 -42q0 -21 8.5 -40t22.5 -33t33.5 -22.5t41.5 -8.5q21 0 40.5 8.5t33.5 22.5t22.5 33.5t8.5 40.5q0 45 -30 75.5t-75 30.5zM521 1389q78 0 131 -52q53 -53 53 -127t-53 -127q-55 -53 -130 -53q-77 0 -130 53
q-54 52 -54 129q0 72 54 125q53 52 129 52zM768 102q-101 -126 -273 -126q-167 0 -272 115q-25 27 -43 59t-29 71.5t-16.5 87.5t-5.5 107v492h146v-475q0 -49 3.5 -87t11 -67.5t19 -52.5t28.5 -41q63 -69 171 -69q132 0 203 86q57 69 57 252v454h146v-908h-146v102z" />
    <glyph glyph-name="Uhungarumlaut" unicode="&#x170;" horiz-adv-x="1301" 
d="M1033 1722l-256 -258l-85 53l205 282zM746 1722l-256 -258l-85 53l205 282zM317 1365v-846q0 -53 2.5 -92.5t7.5 -66.5q10 -55 36 -97q38 -62 115 -102q80 -43 172 -43q127 0 225 76q64 49 87 117q22 65 22 208v846h153v-887q0 -54 -5 -99t-15.5 -83.5t-27.5 -71.5
t-41 -63q-71 -91 -181 -140q-102 -46 -216 -46q-166 0 -297 91q-103 71 -146 166q-44 97 -44 246v887h153z" />
    <glyph glyph-name="uhungarumlaut" unicode="&#x171;" horiz-adv-x="1043" 
d="M914 1312l-256 -258l-85 53l205 282zM627 1312l-256 -258l-85 53l205 282zM768 102q-101 -126 -273 -126q-167 0 -272 115q-25 27 -43 59t-29 71.5t-16.5 87.5t-5.5 107v492h146v-475q0 -49 3.5 -87t11 -67.5t19 -52.5t28.5 -41q63 -69 171 -69q132 0 203 86
q57 69 57 252v454h146v-908h-146v102z" />
    <glyph glyph-name="Uogonek" unicode="&#x172;" horiz-adv-x="1301" 
d="M731 -19q-58 -68 -58 -118q0 -53 66 -53q32 0 76 15l41 -104q-72 -27 -129 -27q-82 0 -135 44q-53 45 -53 113q0 66 46 128q-205 29 -313 157t-108 342v887h153v-846q0 -53 2.5 -92.5t7.5 -66.5q10 -54 36 -98q38 -61 115 -101q80 -43 172 -43q127 0 225 76q64 49 87 117
q22 65 22 208v846h153v-887q0 -161 -50 -256q-83 -159 -270 -220q-40 -13 -86 -21z" />
    <glyph glyph-name="uogonek" unicode="&#x173;" horiz-adv-x="1043" 
d="M914 0q-74 -86 -74 -137q0 -53 66 -53q31 0 76 15l41 -104q-74 -27 -129 -27q-82 0 -135 44q-53 45 -53 113q0 73 62 149v102q-101 -126 -273 -126q-167 0 -272 115q-25 27 -43 59t-29 71.5t-16.5 87.5t-5.5 107v492h146v-475q0 -49 3.5 -87t11 -67.5t19 -52.5t28.5 -41
q63 -69 171 -69q132 0 203 86q57 69 57 252v454h146v-908z" />
    <glyph glyph-name="Wcircumflex" unicode="&#x174;" horiz-adv-x="1802" 
d="M901 1642l-188 -178l-105 53l236 258h116l235 -258l-105 -53zM173 1365l338 -1143l322 1143h137l322 -1143l339 1143h158l-416 -1365h-81h-77l-314 1106l-314 -1106h-76h-81l-416 1365h159z" />
    <glyph glyph-name="wcircumflex" unicode="&#x175;" horiz-adv-x="1368" 
d="M157 908l249 -690l216 690h123l217 -690l249 690h155l-341 -908h-123l-218 683l-219 -683h-123l-341 908h156zM684 1232l-189 -178l-105 53l236 258h116l235 -258l-105 -53z" />
    <glyph glyph-name="Ycircumflex" unicode="&#x176;" horiz-adv-x="1038" 
d="M520 1642l-189 -178l-105 53l236 258h116l235 -258l-105 -53zM442 570l-442 795h167l352 -652l352 652h166l-442 -795v-570h-153v570z" />
    <glyph glyph-name="ycircumflex" unicode="&#x177;" horiz-adv-x="904" 
d="M370 41l-369 867h157l289 -690l299 690h156l-607 -1386h-150zM453 1232l-188 -178l-105 53l236 258h116l235 -258l-105 -53z" />
    <glyph glyph-name="Ydieresis" unicode="&#x178;" horiz-adv-x="1038" 
d="M331 1722q21 0 40 -8t33 -22t22 -32.5t8 -39.5t-8 -40t-22 -33t-33 -22t-40 -8t-40 8t-32.5 22t-21.5 33t-8 41q0 21 8 39t22 32t32.5 22t39.5 8zM707 1722q21 0 39.5 -8t32.5 -22t22 -32.5t8 -39.5t-8 -40t-22 -33t-32.5 -22t-39.5 -8t-40 8t-33 22.5t-22 33.5t-8 40
t8 39t22.5 32t33 22t39.5 8zM442 570l-442 795h167l352 -652l352 652h166l-442 -795v-570h-153v570z" />
    <glyph glyph-name="Zacute" unicode="&#x179;" horiz-adv-x="1042" 
d="M762 1722l-256 -258l-92 53l205 282zM228 142h763v-142h-943v135l758 1089h-697v141h867v-136z" />
    <glyph glyph-name="zacute" unicode="&#x17a;" horiz-adv-x="857" 
d="M241 132h583v-132h-765v120l563 657h-532v131h713v-121zM683 1312l-256 -258l-92 53l205 282z" />
    <glyph glyph-name="Zdotaccent" unicode="&#x17b;" horiz-adv-x="1042" 
d="M553 1722q21 0 40 -8t33 -22t22 -32.5t8 -39.5t-8 -40t-22 -33t-33 -22t-40 -8t-40 8t-32.5 22t-21.5 33t-8 41q0 21 8 39t22 32t32.5 22t39.5 8zM228 142h763v-142h-943v135l758 1089h-697v141h867v-136z" />
    <glyph glyph-name="zdotaccent" unicode="&#x17c;" horiz-adv-x="857" 
d="M241 132h583v-132h-765v120l563 657h-532v131h713v-121zM441 1312q21 0 40 -8t33 -22t22 -32.5t8 -39.5t-8 -40t-22 -33t-33 -22t-40 -8t-40 8t-32.5 22t-21.5 33t-8 41q0 21 8 39t22 32t32.5 22t39.5 8z" />
    <glyph glyph-name="Zcaron" unicode="&#x17d;" horiz-adv-x="1042" 
d="M554 1609l188 178l105 -53l-235 -258h-116l-236 258l105 53zM228 142h763v-142h-943v135l758 1089h-697v141h867v-136z" />
    <glyph glyph-name="zcaron" unicode="&#x17e;" horiz-adv-x="857" 
d="M241 132h583v-132h-765v120l563 657h-532v131h713v-121zM441 1199l188 178l106 -53l-236 -258h-116l-236 258l106 53z" />
    <glyph glyph-name="longs" unicode="&#x17f;" horiz-adv-x="467" 
d="M303 0h-146v776h-92v132h92v184q0 287 220 287q34 0 90 -14v-132q-39 10 -62 10q-102 0 -102 -151v-1092z" />
    <glyph glyph-name="florin" unicode="&#x192;" horiz-adv-x="950" 
d="M44 -257q36 -10 60 -10q102 0 132 151l182 892h-92l27 132h92l14 68l23 116q59 287 279 287q33 0 87 -14l-27 -132q-36 10 -60 10q-102 0 -133 -151l-37 -184h167l-27 -132h-167l-182 -892q-59 -287 -278 -287q-36 0 -87 14z" />
    <glyph glyph-name="Ohorn" unicode="&#x1a0;" horiz-adv-x="1565" 
d="M778 1246q-151 0 -279 -83q-129 -83 -197 -218q-62 -122 -62 -272q0 -140 67 -264q70 -130 199 -210q131 -80 276 -80q146 0 277 80q128 79 199 210q67 125 67 273q0 240 -166 407q-156 157 -381 157zM1285 1168q104 53 104 143q0 88 -86 160l102 51q114 -83 114 -215
q0 -144 -155 -240q115 -178 115 -386q0 -187 -95 -353q-91 -157 -248 -252q-164 -100 -354 -100q-189 0 -353 100q-156 94 -248 252q-95 166 -95 354q0 190 94 353q94 165 259 260q160 94 343 94q142 0 272.5 -57.5t230.5 -163.5z" />
    <glyph glyph-name="ohorn" unicode="&#x1a1;" horiz-adv-x="1146" 
d="M533 800q-152 0 -245 -120q-70 -89 -70 -225q0 -158 95 -255q92 -92 225 -92q159 0 252 121q69 90 69 229q0 155 -94 250q-92 92 -232 92zM920 735q62 47 62 119q0 86 -86 160l102 51q114 -83 114 -215q0 -133 -135 -227q29 -79 29 -166q0 -220 -154 -361
q-131 -120 -314 -120q-212 0 -348 156q-119 137 -119 322q0 219 154 358q130 120 313 120q118 0 216.5 -51.5t165.5 -145.5z" />
    <glyph glyph-name="Uhorn" unicode="&#x1af;" horiz-adv-x="1361" 
d="M1137 1177q86 50 86 134q0 88 -86 160l102 51q114 -83 114 -215q0 -85 -56.5 -156.5t-159.5 -113.5v-559q0 -54 -5 -99t-16 -83.5t-27.5 -71.5t-40.5 -63q-71 -91 -181 -140q-102 -46 -217 -46q-163 0 -296 91q-103 71 -146 166q-44 97 -44 246v887h153v-846
q0 -53 2.5 -92.5t7.5 -66.5q10 -55 36 -97q38 -62 115 -102q80 -43 172 -43q125 0 225 77q65 50 87 116q22 65 22 208v846h153v-188z" />
    <glyph glyph-name="uhorn" unicode="&#x1b0;" horiz-adv-x="1165" 
d="M914 720q86 50 86 134q0 86 -86 160l102 51q114 -83 114 -215q0 -85 -56.5 -156t-159.5 -114v-580h-146v102q-101 -126 -273 -126q-167 0 -272 115q-25 27 -43 59t-29 71.5t-16.5 87.5t-5.5 107v492h146v-475q0 -49 3.5 -87t11 -67.5t19 -52.5t28.5 -41q63 -69 171 -69
q132 0 203 86q57 69 57 252v454h146v-188z" />
    <glyph glyph-name="uni01C4" unicode="&#x1c4;" horiz-adv-x="2275" 
d="M1787 1609l188 178l105 -53l-235 -258h-116l-236 258l105 53zM1461 142h763v-142h-943v135l758 1089h-697v141h867v-136zM317 1223v-1081h134q240 0 391 121q185 149 185 421q0 271 -185 418q-152 121 -391 121h-134zM164 1365h280q305 0 502 -153q235 -184 235 -528
q0 -347 -235 -531q-195 -153 -502 -153h-280v1365z" />
    <glyph glyph-name="uni01C5" unicode="&#x1c5;" horiz-adv-x="2090" 
d="M1473 132h583v-132h-764v120l563 657h-533v131h714v-121zM1674 1199l188 178l105 -53l-235 -258h-116l-236 258l105 53zM317 1223v-1081h134q240 0 391 121q185 149 185 421q0 271 -185 418q-152 121 -391 121h-134zM164 1365h280q305 0 502 -153q235 -184 235 -528
q0 -347 -235 -531q-195 -153 -502 -153h-280v1365z" />
    <glyph glyph-name="uni01C6" unicode="&#x1c6;" horiz-adv-x="1981" 
d="M1564 1199l189 178l105 -53l-235 -258h-116l-236 258l105 53zM1364 132h583v-132h-765v120l563 657h-532v131h713v-121zM531 800q-149 0 -243 -120q-70 -88 -70 -225q0 -160 95 -255q92 -92 224 -92q155 0 245 121q67 89 67 227q0 157 -91 252q-87 92 -227 92zM995 0
h-146v119q-128 -143 -319 -143q-119 0 -223 61q-112 64 -175 178q-61 109 -61 239q0 217 154 358q132 120 305 120q187 0 319 -144v577h146v-1365z" />
    <glyph glyph-name="uni01C7" unicode="&#x1c7;" horiz-adv-x="1696" 
d="M1533 1365v-956q0 -129 -23 -207q-23 -77 -78 -132q-94 -94 -238 -94q-85 0 -155 33t-158 113l93 110q116 -113 217 -113q97 0 143 70t46 220v956h153zM317 1365v-1223h530v-142h-683v1365h153z" />
    <glyph glyph-name="uni01C8" unicode="&#x1c8;" horiz-adv-x="1288" 
d="M1011 908h146v-1113q0 -286 -220 -286q-39 0 -90 13v133q39 -10 62 -10q102 0 102 150v1113zM1084 1314q21 0 40 -8t33.5 -22.5t22.5 -33.5t8 -40q0 -22 -8 -41t-22.5 -33.5t-33.5 -22.5t-40 -8q-45 0 -75 30.5t-30 75.5q0 21 8.5 39.5t22.5 33t33.5 22.5t40.5 8z
M317 1365v-1223h530v-142h-683v1365h153z" />
    <glyph glyph-name="uni01C9" unicode="&#x1c9;" horiz-adv-x="807" 
d="M530 908h146v-1113q0 -286 -220 -286q-41 0 -90 13v133q39 -10 62 -10q102 0 102 150v1113zM603 1314q21 0 40 -8t33.5 -22.5t22.5 -33.5t8 -40q0 -45 -30 -75t-75 -30q-21 0 -40 8.5t-33.5 22.5t-22.5 33.5t-8 41.5q0 21 8.5 39.5t22.5 33t33.5 22.5t40.5 8zM277 0h-146
v1365h146v-1365z" />
    <glyph glyph-name="uni01CA" unicode="&#x1ca;" horiz-adv-x="2270" 
d="M2106 1365v-956q0 -129 -23 -207q-23 -77 -78 -132q-94 -94 -238 -94q-85 0 -155 33t-158 113l93 110q116 -113 217 -113q97 0 143 70t46 220v956h153zM164 0v1365h143l830 -1116v1116h153v-1365h-143l-830 1116v-1116h-153z" />
    <glyph glyph-name="uni01CB" unicode="&#x1cb;" horiz-adv-x="1881" 
d="M1605 908h146v-1113q0 -286 -220 -286q-41 0 -90 13v133q39 -10 62 -10q102 0 102 150v1113zM1678 1314q21 0 40 -8t33.5 -22.5t22.5 -33.5t8 -40q0 -45 -30 -75t-75 -30q-21 0 -40 8.5t-33.5 22.5t-22.5 33.5t-8 41.5q0 21 8.5 39.5t22.5 33t33.5 22.5t40.5 8zM164 0
v1365h143l830 -1116v1116h153v-1365h-143l-830 1116v-1116h-153z" />
    <glyph glyph-name="uni01CC" unicode="&#x1cc;" horiz-adv-x="1444" 
d="M1167 908h146v-1113q0 -286 -220 -286q-41 0 -90 13v133q39 -10 62 -10q102 0 102 150v1113zM1240 1314q21 0 40 -8t33.5 -22.5t22.5 -33.5t8 -40q0 -22 -8 -41t-22.5 -33.5t-33.5 -22.5t-40 -8q-45 0 -75 30.5t-30 75.5q0 21 8.5 39.5t22.5 33t33.5 22.5t40.5 8z
M275 806q100 126 273 126q167 0 272 -115q25 -27 43 -59t29 -71.5t16.5 -87.5t5.5 -107v-492h-146v474q0 49 -3.5 87.5t-11 68t-19 52.5t-28.5 41q-65 69 -171 69q-132 0 -203 -86q-57 -69 -57 -252v-454h-146v908h146v-102z" />
    <glyph glyph-name="uni01CD" unicode="&#x1cd;" horiz-adv-x="1270" 
d="M635 1609l189 178l105 -53l-236 -258h-116l-235 258l105 53zM372 528h523l-263 689zM318 386l-146 -386h-158l526 1365h191l525 -1365h-159l-147 386h-632z" />
    <glyph glyph-name="uni01CE" unicode="&#x1ce;" 
d="M533 1199l189 178l105 -53l-236 -258h-116l-235 258l105 53zM531 800q-149 0 -243 -120q-70 -88 -70 -225q0 -160 95 -255q92 -92 224 -92q156 0 247 121q68 91 68 227q0 155 -92 252q-89 92 -229 92zM995 0h-146v119q-128 -143 -319 -143q-119 0 -223 61
q-112 64 -175 178q-61 109 -61 239q0 217 154 358q132 120 305 120q187 0 319 -144v120h146v-908z" />
    <glyph glyph-name="uni01CF" unicode="&#x1cf;" horiz-adv-x="481" 
d="M241 1609l188 178l105 -53l-235 -258h-116l-236 258l105 53zM317 1365v-1365h-153v1365h153z" />
    <glyph glyph-name="uni01D0" unicode="&#x1d0;" horiz-adv-x="408" 
d="M205 1199l188 178l105 -53l-235 -258h-116l-236 258l105 53zM278 908v-908h-146v908h146z" />
    <glyph glyph-name="uni01D1" unicode="&#x1d1;" horiz-adv-x="1565" 
d="M782 1609l189 178l105 -53l-236 -258h-116l-235 258l105 53zM778 1246q-151 0 -279 -83q-129 -83 -197 -218q-62 -122 -62 -272q0 -140 67 -264q70 -130 199 -210q131 -80 276 -80q146 0 277 80q128 79 199 210q67 125 67 273q0 240 -166 407q-156 157 -381 157z
M782 1389q187 0 344 -94q164 -98 258 -260q95 -164 95 -353q0 -188 -95 -354q-92 -158 -248 -252q-166 -100 -359 -100q-182 0 -348 100q-156 94 -248 252q-95 167 -95 365q0 184 95 342q100 168 258 260q160 94 343 94z" />
    <glyph glyph-name="uni01D2" unicode="&#x1d2;" horiz-adv-x="1077" 
d="M539 1199l188 178l105 -53l-235 -258h-116l-236 258l105 53zM533 799q-151 0 -245 -120q-70 -88 -70 -225q0 -159 95 -254q92 -92 225 -92q159 0 252 120q69 91 69 229q0 156 -94 250q-92 92 -232 92zM546 932q203 0 341 -156q119 -136 119 -321q0 -218 -154 -359
q-131 -120 -314 -120q-212 0 -348 156q-119 136 -119 326q0 213 154 354q130 120 321 120z" />
    <glyph glyph-name="uni01D3" unicode="&#x1d3;" horiz-adv-x="1301" 
d="M651 1609l188 178l105 -53l-235 -258h-116l-236 258l105 53zM317 1365v-846q0 -53 2.5 -92.5t7.5 -66.5q10 -55 36 -97q38 -62 115 -102q80 -43 172 -43q127 0 225 76q64 49 87 117q22 65 22 208v846h153v-887q0 -54 -5 -99t-15.5 -83.5t-27.5 -71.5t-41 -63
q-71 -91 -181 -140q-102 -46 -216 -46q-166 0 -297 91q-103 71 -146 166q-44 97 -44 246v887h153z" />
    <glyph glyph-name="uni01D4" unicode="&#x1d4;" horiz-adv-x="1043" 
d="M522 1199l188 178l105 -53l-235 -258h-116l-236 258l105 53zM768 102q-101 -126 -273 -126q-167 0 -272 115q-25 27 -43 59t-29 71.5t-16.5 87.5t-5.5 107v492h146v-475q0 -49 3.5 -87t11 -67.5t19 -52.5t28.5 -41q63 -69 171 -69q132 0 203 86q57 69 57 252v454h146
v-908h-146v102z" />
    <glyph glyph-name="Gcaron" unicode="&#x1e6;" horiz-adv-x="1490" 
d="M790 1609l189 178l105 -53l-235 -258h-117l-235 258l105 53zM840 705h560v-75q0 -185 -68 -330q-64 -135 -186 -221q-148 -103 -352 -103q-283 0 -482 186q-109 102 -167.5 236t-58.5 281q0 190 94 356q95 168 256 260q160 94 354 94q144 0 258 -51t233 -167l-105 -105
q-71 74 -127 108q-117 72 -260 72q-163 0 -294 -83q-126 -80 -194 -218q-61 -123 -61 -265q0 -147 66 -271q70 -132 196 -209q130 -81 289 -81q185 0 308 111q138 124 144 333h-403v142z" />
    <glyph glyph-name="gcaron" unicode="&#x1e7;" 
d="M533 1199l189 178l105 -53l-236 -258h-116l-235 258l105 53zM531 800q-149 0 -243 -120q-70 -88 -70 -225q0 -160 95 -255q92 -92 224 -92q155 0 246 121q67 89 67 227q0 155 -92 252q-87 92 -227 92zM995 908v-925q0 -198 -107 -326q-64 -76 -160 -117.5t-208 -41.5
q-127 0 -224 47q-94 46 -189 154l96 96q34 -41 63.5 -68.5t54.5 -43.5q85 -53 198 -53q154 0 242 94t88 259v136q-128 -143 -319 -143q-119 0 -223 61q-112 64 -175 178q-61 109 -61 239q0 217 154 358q132 120 305 120q187 0 319 -144v120h146z" />
    <glyph glyph-name="uni01F4" unicode="&#x1f4;" horiz-adv-x="1490" 
d="M1047 1722l-257 -258l-92 53l205 282zM840 705h560v-75q0 -185 -68 -330q-64 -135 -186 -221q-148 -103 -352 -103q-283 0 -482 186q-109 102 -167.5 236t-58.5 281q0 190 94 356q95 168 256 260q160 94 354 94q144 0 258 -51t233 -167l-105 -105q-71 74 -127 108
q-117 72 -260 72q-163 0 -294 -83q-126 -80 -194 -218q-61 -123 -61 -265q0 -147 66 -271q70 -132 196 -209q130 -81 289 -81q185 0 308 111q138 124 144 333h-403v142z" />
    <glyph glyph-name="uni01F5" unicode="&#x1f5;" 
d="M786 1312l-256 -258l-92 53l205 282zM531 800q-149 0 -243 -120q-70 -88 -70 -225q0 -160 95 -255q92 -92 224 -92q155 0 246 121q67 89 67 227q0 155 -92 252q-87 92 -227 92zM995 908v-925q0 -198 -107 -326q-64 -76 -160 -117.5t-208 -41.5q-127 0 -224 47
q-94 46 -189 154l96 96q34 -41 63.5 -68.5t54.5 -43.5q85 -53 198 -53q154 0 242 94t88 259v136q-128 -143 -319 -143q-119 0 -223 61q-112 64 -175 178q-61 109 -61 239q0 217 154 358q132 120 305 120q187 0 319 -144v120h146z" />
    <glyph glyph-name="Aringacute" unicode="&#x1fa;" horiz-adv-x="1270" 
d="M810 2094l-257 -258l-92 53l205 282zM635 1725q-22 0 -41.5 -8.5t-33.5 -22.5t-22.5 -34t-8.5 -42q0 -41 32 -73q31 -31 74 -31q22 0 41.5 8.5t33.5 22.5t22.5 33.5t8.5 40.5q0 45 -30.5 75.5t-75.5 30.5zM634 1799q78 0 131 -52q54 -53 54 -127t-53 -127
q-55 -53 -131 -53q-77 0 -130 53q-54 52 -54 129q0 73 55 125q53 52 128 52zM372 528h523l-263 689zM318 386l-146 -386h-158l526 1365h191l525 -1365h-159l-147 386h-632z" />
    <glyph glyph-name="aringacute" unicode="&#x1fb;" 
d="M735 1722l-257 -258l-91 53l204 282zM561 1315q-23 0 -42 -8.5t-33.5 -22.5t-22.5 -34t-8 -42q0 -21 8.5 -40t22.5 -33t33.5 -22.5t41.5 -8.5q21 0 40.5 8.5t33.5 22.5t22.5 33.5t8.5 40.5q0 45 -30 75.5t-75 30.5zM560 1389q78 0 131 -52q53 -53 53 -127t-53 -127
q-55 -53 -130 -53q-77 0 -130 53q-54 52 -54 129q0 72 54 125q53 52 129 52zM531 800q-149 0 -243 -120q-70 -88 -70 -225q0 -160 95 -255q92 -92 224 -92q156 0 247 121q68 91 68 227q0 155 -92 252q-89 92 -229 92zM995 0h-146v119q-128 -143 -319 -143q-119 0 -223 61
q-112 64 -175 178q-61 109 -61 239q0 217 154 358q132 120 305 120q187 0 319 -144v120h146v-908z" />
    <glyph glyph-name="AEacute" unicode="&#x1fc;" horiz-adv-x="1720" 
d="M1320 1722l-256 -258l-92 53l205 282zM911 528v696h-106l-353 -696h459zM911 386h-531l-195 -386h-171l703 1365h897v-141h-550v-461h489v-142h-489v-479h571v-142h-724v386z" />
    <glyph glyph-name="aeacute" unicode="&#x1fd;" horiz-adv-x="1683" 
d="M1086 1312l-256 -258l-92 53l205 282zM1467 517q-5 28 -11 52.5t-14 44.5q-37 90 -110 140q-68 45 -152 45q-115 0 -194 -76q-78 -75 -98 -206h579zM742 462h-264q-263 0 -263 -176q0 -97 87 -142q67 -36 175 -36q265 0 265 185v169zM837 150q-84 -174 -361 -174
q-185 0 -299 84q-106 79 -106 225q0 71 25.5 127t74.5 95t119 59.5t160 20.5h287q-11 97 -63 147q-70 65 -204 65q-163 0 -293 -102l-68 98q167 136 378 136q249 0 344 -180q133 180 348 180q190 0 311 -139q122 -140 122 -356v-44h-724q4 -26 10 -50.5t16 -47.5
q37 -90 114 -140q70 -46 160 -46q184 0 277 161l130 -55q-69 -117 -172 -177.5t-233 -60.5q-217 0 -353 174z" />
    <glyph glyph-name="Oslashacute" unicode="&#x1fe;" horiz-adv-x="1580" 
d="M1047 1722l-257 -258l-92 53l205 282zM445 250q35 -31 76 -55.5t86 -41t91.5 -25.5t93.5 -9q144 0 275 80q129 80 199 210q67 124 67 272q0 195 -117 350zM1137 1116q-157 130 -347 130q-152 0 -283 -83q-126 -78 -197 -218q-62 -124 -62 -263q0 -193 116 -348zM260 228
q-166 196 -166 455q0 186 95 352t258 260q160 94 343 94q250 0 449 -169l147 148l84 -80l-149 -151q166 -196 166 -457q0 -186 -95 -352q-91 -157 -248 -252q-164 -100 -353 -100q-250 0 -450 169l-146 -148l-84 80z" />
    <glyph glyph-name="oslashacute" unicode="&#x1ff;" horiz-adv-x="1105" 
d="M809 1312l-256 -258l-92 53l205 282zM759 732q-89 68 -205 68q-160 0 -253 -120q-69 -90 -69 -226q0 -105 45 -196zM346 177q88 -69 205 -69q159 0 252 121q70 89 70 224q0 117 -44 197zM179 163q-94 128 -94 292q0 216 154 357q130 120 313 120q170 0 301 -108l90 87
l77 -74l-93 -92q93 -131 93 -291q0 -217 -154 -358q-131 -120 -313 -120q-170 0 -301 109l-90 -88l-77 74z" />
    <glyph glyph-name="uni0200" unicode="&#x200;" horiz-adv-x="1270" 
d="M237 1722l136 77l205 -282l-85 -53zM523 1722l137 77l205 -282l-85 -53zM372 528h523l-263 689zM318 386l-146 -386h-158l526 1365h191l525 -1365h-159l-147 386h-632z" />
    <glyph glyph-name="uni0201" unicode="&#x201;" 
d="M89 1312l137 77l205 -282l-85 -53zM376 1312l137 77l204 -282l-85 -53zM531 800q-149 0 -243 -120q-70 -88 -70 -225q0 -160 95 -255q92 -92 224 -92q156 0 247 121q68 91 68 227q0 155 -92 252q-89 92 -229 92zM995 0h-146v119q-128 -143 -319 -143q-119 0 -223 61
q-112 64 -175 178q-61 109 -61 239q0 217 154 358q132 120 305 120q187 0 319 -144v120h146v-908z" />
    <glyph glyph-name="Scommaaccent" unicode="&#x218;" horiz-adv-x="1035" 
d="M652 -154l-207 -262l-100 50l172 270zM781 1095q-98 152 -247 152q-70 0 -125 -28q-27 -14 -50 -35.5t-39 -48t-25 -56.5t-9 -61q0 -139 198 -215l134 -52q164 -63 240 -148q79 -88 79 -215q0 -186 -143 -309q-121 -103 -291 -103q-81 0 -149.5 23.5t-122.5 68.5t-92 110
t-57 149l148 42q61 -250 278 -250q120 0 199 82q76 79 76 185q0 81 -54 137q-54 55 -184 106l-128 50q-282 111 -282 341q0 178 140 285q111 84 264 84q232 0 364 -215z" />
    <glyph glyph-name="scommaaccent" unicode="&#x219;" horiz-adv-x="760" 
d="M352 -95l142 -43l-135 -312l-102 32zM545 706q-30 46 -57 66q-44 32 -101 32q-33 0 -60.5 -9.5t-47.5 -26.5t-31 -40.5t-11 -51.5q0 -53 40 -87q19 -16 118 -55l89 -35q109 -42 157.5 -97.5t48.5 -137.5q0 -127 -97 -212q-88 -76 -217 -76q-225 0 -315 232l126 53
q40 -86 84 -120q43 -34 111 -34q82 0 127 53q36 43 36 97q0 50 -30 79q-32 29 -130 66l-98 39q-186 72 -186 229q0 118 90 192q85 70 200 70q179 0 271 -164z" />
    <glyph glyph-name="uni021A" unicode="&#x21a;" horiz-adv-x="887" 
d="M389 -95l142 -43l-135 -312l-102 32zM521 1224v-1224h-153v1224h-354v141h860v-141h-353z" />
    <glyph glyph-name="uni021B" unicode="&#x21b;" horiz-adv-x="504" 
d="M227 -95l142 -43l-135 -312l-102 32zM292 776v-503q0 -151 102 -151q25 0 62 10v-132q-51 -14 -90 -14q-220 0 -220 287v503h-102v132h102v215l146 58v-273h151v-132h-151z" />
    <glyph glyph-name="uni0226" unicode="&#x226;" horiz-adv-x="1270" 
d="M635 1722q21 0 40 -8t33 -22t22 -32.5t8 -39.5t-8 -40t-22 -33t-33 -22t-40 -8t-40 8t-32.5 22t-21.5 33t-8 41q0 21 8 39t22 32t32.5 22t39.5 8zM372 528h523l-263 689zM318 386l-146 -386h-158l526 1365h191l525 -1365h-159l-147 386h-632z" />
    <glyph glyph-name="uni0227" unicode="&#x227;" 
d="M534 1312q21 0 40 -8t33 -22t22 -32.5t8 -39.5t-8 -40t-22 -33t-33 -22t-40 -8t-40 8t-32.5 22t-21.5 33t-8 41q0 21 8 39t22 32t32.5 22t39.5 8zM531 800q-149 0 -243 -120q-70 -88 -70 -225q0 -160 95 -255q92 -92 224 -92q156 0 247 121q68 91 68 227q0 155 -92 252
q-89 92 -229 92zM995 0h-146v119q-128 -143 -319 -143q-119 0 -223 61q-112 64 -175 178q-61 109 -61 239q0 217 154 358q132 120 305 120q187 0 319 -144v120h146v-908z" />
    <glyph glyph-name="uni0237" unicode="&#x237;" horiz-adv-x="427" 
d="M150 908h146v-1113q0 -286 -220 -286q-41 0 -90 13v133q39 -10 62 -10q102 0 102 150v1113z" />
    <glyph glyph-name="uni02BB" unicode="&#x2bb;" horiz-adv-x="467" 
d="M229 923l-134 49l206 462l98 -39z" />
    <glyph glyph-name="afii57929" unicode="&#x2bc;" horiz-adv-x="536" 
d="M286 1434l134 -49l-206 -462l-98 39z" />
    <glyph glyph-name="circumflex" unicode="&#x2c6;" horiz-adv-x="975" 
d="M488 1232l-189 -178l-105 53l236 258h116l235 -258l-105 -53z" />
    <glyph glyph-name="caron" unicode="&#x2c7;" horiz-adv-x="975" 
d="M488 1199l188 178l105 -53l-235 -258h-116l-236 258l105 53z" />
    <glyph glyph-name="uni02C9" unicode="&#x2c9;" horiz-adv-x="975" 
d="M208 1275h560v-130h-560v130z" />
    <glyph glyph-name="breve" unicode="&#x2d8;" horiz-adv-x="975" 
d="M343 1334q4 -70 39 -109q40 -45 102 -45q127 0 148 154l125 -10q-10 -103 -63 -169q-80 -101 -209 -101q-132 0 -212 101q-54 69 -55 169z" />
    <glyph glyph-name="dotaccent" unicode="&#x2d9;" horiz-adv-x="975" 
d="M487 1312q21 0 40 -8t33 -22t22 -32.5t8 -39.5t-8 -40t-22 -33t-33 -22t-40 -8t-40 8t-32.5 22t-21.5 33t-8 41q0 21 8 39t22 32t32.5 22t39.5 8z" />
    <glyph glyph-name="ring" unicode="&#x2da;" horiz-adv-x="975" 
d="M488 1315q-23 0 -42 -8.5t-33.5 -22.5t-22.5 -34t-8 -42q0 -21 8.5 -40t22.5 -33t33.5 -22.5t41.5 -8.5q21 0 40.5 8.5t33.5 22.5t22.5 33.5t8.5 40.5q0 45 -30 75.5t-75 30.5zM487 1389q78 0 131 -52q53 -53 53 -127t-53 -127q-55 -53 -130 -53q-77 0 -130 53
q-54 52 -54 129q0 72 54 125q53 52 129 52z" />
    <glyph glyph-name="ogonek" unicode="&#x2db;" horiz-adv-x="975" 
d="M875 0q-74 -86 -74 -137q0 -53 67 -53q31 0 76 15l41 -104q-74 -27 -130 -27q-82 0 -135 44q-53 45 -53 113q0 72 62 149h146z" />
    <glyph glyph-name="tilde" unicode="&#x2dc;" horiz-adv-x="975" 
d="M767 1285q-7 -85 -48 -129.5t-113 -44.5q-54 0 -139 39q-66 31 -89 31q-24 0 -35.5 -15.5t-17.5 -58.5l-116 28q9 81 51.5 127.5t111.5 46.5q46 0 142 -44q58 -26 87 -26q25 0 35 15t13 58z" />
    <glyph glyph-name="hungarumlaut" unicode="&#x2dd;" horiz-adv-x="975" 
d="M886 1312l-256 -258l-85 53l205 282zM599 1312l-256 -258l-85 53l205 282z" />
    <glyph glyph-name="uni0309" unicode="&#x309;" horiz-adv-x="975" 
d="M478 1476q1 44 28 81l19 28q28 40 28 61q0 49 -68 49q-31 0 -75 -16l-41 104q72 28 134 28q42 0 75.5 -10t57.5 -28t37 -44t13 -57q0 -49 -32 -99l-31 -49q-14 -23 -14 -48h-131z" />
    <glyph glyph-name="uni0323" unicode="&#x323;" horiz-adv-x="975" 
d="M487 -123q22 0 41 -8t33.5 -22.5t22.5 -33.5t8 -40q0 -22 -8 -41t-22.5 -33.5t-33.5 -22.5t-40 -8q-45 0 -75 30.5t-30 75.5q0 21 8.5 39.5t22.5 33t33 22.5t40 8z" />
    <glyph glyph-name="uni037E" unicode="&#x37e;" horiz-adv-x="465" 
d="M265 875q21 0 39.5 -8t32 -21.5t21.5 -31.5t8 -39t-8 -39.5t-21.5 -32t-32 -21.5t-39.5 -8t-39.5 8t-32 21.5t-21.5 32.5t-8 40q0 20 8 38t22 31.5t32 21.5t39 8zM218 200l134 -49l-206 -462l-98 39z" />
    <glyph glyph-name="uni0387" unicode="&#x387;" horiz-adv-x="464" 
d="M232 784q21 0 39.5 -8t32 -21.5t21.5 -32t8 -39.5t-8 -39.5t-21.5 -32t-32 -21.5t-39.5 -8t-39.5 8t-32 22t-21.5 32.5t-8 39.5t8 39t22 31.5t32 21.5t39 8z" />
    <glyph glyph-name="uni1E1E" unicode="&#x1e1e;" horiz-adv-x="894" 
d="M491 1722q21 0 40 -8t33 -22t22 -32.5t8 -39.5t-8 -40t-22 -33t-33 -22t-40 -8t-40 8t-32.5 22t-21.5 33t-8 41q0 21 8 39t22 32t32.5 22t39.5 8zM819 1224h-502v-461h458v-142h-458v-621h-153v1365h655v-141z" />
    <glyph glyph-name="uni1E1F" unicode="&#x1e1f;" horiz-adv-x="511" 
d="M319 1722q21 0 40 -8t33 -22t22 -32.5t8 -39.5t-8 -40t-22 -33t-33 -22t-40 -8t-40 8t-32.5 22t-21.5 33t-8 41q0 21 8 39t22 32t32.5 22t39.5 8zM303 776v-776h-146v776h-92v132h92v184q0 287 220 287q34 0 90 -14v-132q-39 10 -62 10q-102 0 -102 -151v-184h168v-132
h-168z" />
    <glyph glyph-name="Wgrave" unicode="&#x1e80;" horiz-adv-x="1802" 
d="M659 1722l143 77l205 -282l-92 -53zM173 1365l338 -1143l322 1143h137l322 -1143l339 1143h158l-416 -1365h-81h-77l-314 1106l-314 -1106h-76h-81l-416 1365h159z" />
    <glyph glyph-name="wgrave" unicode="&#x1e81;" horiz-adv-x="1368" 
d="M427 1312l144 77l205 -282l-92 -53zM157 908l249 -690l216 690h123l217 -690l249 690h155l-341 -908h-123l-218 683l-219 -683h-123l-341 908h156z" />
    <glyph glyph-name="Wacute" unicode="&#x1e82;" horiz-adv-x="1802" 
d="M1158 1722l-257 -258l-91 53l204 282zM173 1365l338 -1143l322 1143h137l322 -1143l339 1143h158l-416 -1365h-81h-77l-314 1106l-314 -1106h-76h-81l-416 1365h159z" />
    <glyph glyph-name="wacute" unicode="&#x1e83;" horiz-adv-x="1368" 
d="M878 1312l-256 -258l-92 53l205 282zM157 908l249 -690l216 690h123l217 -690l249 690h155l-341 -908h-123l-218 683l-219 -683h-123l-341 908h156z" />
    <glyph glyph-name="Wdieresis" unicode="&#x1e84;" horiz-adv-x="1802" 
d="M713 1722q21 0 40 -8t33 -22t22 -32.5t8 -39.5t-8 -40t-22 -33t-33 -22t-40 -8t-40 8t-32.5 22t-21.5 33t-8 41q0 21 8 39t22 32t32.5 22t39.5 8zM1090 1722q21 0 39.5 -8t32.5 -22t22 -32.5t8 -39.5t-8 -40t-22 -33t-32.5 -22t-39.5 -8t-40 8t-33 22.5t-22 33.5t-8 40
t8 39t22.5 32t33 22t39.5 8zM173 1365l338 -1143l322 1143h137l322 -1143l339 1143h158l-416 -1365h-81h-77l-314 1106l-314 -1106h-76h-81l-416 1365h159z" />
    <glyph glyph-name="wdieresis" unicode="&#x1e85;" horiz-adv-x="1368" 
d="M496 1312q21 0 40 -8t33 -22t22 -32.5t8 -39.5t-8 -40t-22 -33t-33 -22t-40 -8t-40 8t-32.5 22.5t-21.5 33.5t-8 40t8 39t22 32t32.5 22t39.5 8zM872 1312q21 0 39.5 -8t32.5 -22t22 -32.5t8 -39.5t-8 -40t-22 -33t-32.5 -22t-39.5 -8t-40 8t-33 22.5t-22 33.5t-8 40
t8 39t22.5 32t33 22t39.5 8zM157 908l249 -690l216 690h123l217 -690l249 690h155l-341 -908h-123l-218 683l-219 -683h-123l-341 908h156z" />
    <glyph glyph-name="uni1EA0" unicode="&#x1ea0;" horiz-adv-x="1270" 
d="M635 -123q21 0 40 -8t33 -22t22 -32.5t8 -39.5t-8 -40t-22 -33t-33 -22t-40 -8t-40 8t-32.5 22t-21.5 33t-8 41q0 21 8 39t22 32t32.5 22t39.5 8zM372 528h523l-263 689zM318 386l-146 -386h-158l526 1365h191l525 -1365h-159l-147 386h-632z" />
    <glyph glyph-name="uni1EA1" unicode="&#x1ea1;" 
d="M558 -123q21 0 40 -8t33 -22t22 -32.5t8 -39.5t-8 -40t-22 -33t-33 -22t-40 -8t-40 8t-32.5 22t-21.5 33t-8 41q0 21 8 39t22 32t32.5 22t39.5 8zM531 800q-149 0 -243 -120q-70 -88 -70 -225q0 -160 95 -255q92 -92 224 -92q156 0 247 121q68 91 68 227q0 155 -92 252
q-89 92 -229 92zM995 0h-146v119q-128 -143 -319 -143q-119 0 -223 61q-112 64 -175 178q-61 109 -61 239q0 217 154 358q132 120 305 120q187 0 319 -144v120h146v-908z" />
    <glyph glyph-name="uni1EA2" unicode="&#x1ea2;" horiz-adv-x="1270" 
d="M586 1476q1 45 27 81l20 28q28 40 28 61q0 49 -68 49q-31 0 -75 -16l-41 104q72 28 134 28q42 0 75.5 -10t57.5 -28t37 -44t13 -57q0 -49 -32 -99l-31 -49q-14 -23 -15 -48h-130zM372 528h523l-263 689zM318 386l-146 -386h-158l526 1365h191l525 -1365h-159l-147 386
h-632z" />
    <glyph glyph-name="uni1EA3" unicode="&#x1ea3;" 
d="M503 1055q1 43 27 81l20 28q28 40 28 60q0 49 -68 49q-31 0 -76 -15l-41 104q73 27 135 27q84 0 133.5 -37.5t49.5 -100.5q0 -49 -32 -99l-32 -50q-14 -22 -14 -47h-130zM531 800q-149 0 -243 -120q-70 -88 -70 -225q0 -160 95 -255q92 -92 224 -92q156 0 247 121
q68 91 68 227q0 155 -92 252q-89 92 -229 92zM995 0h-146v119q-128 -143 -319 -143q-119 0 -223 61q-112 64 -175 178q-61 109 -61 239q0 217 154 358q132 120 305 120q187 0 319 -144v120h146v-908z" />
    <glyph glyph-name="uni1EA4" unicode="&#x1ea4;" horiz-adv-x="1270" 
d="M372 528h523l-263 689zM318 386l-146 -386h-158l526 1365h191l525 -1365h-159l-147 386h-632zM861 1591l68 -74l-105 -53l-189 178l-188 -178l-105 53l235 258h116l93 -102l173 238l144 -77z" />
    <glyph glyph-name="uni1EA5" unicode="&#x1ea5;" 
d="M1066 1522l-256 -258l-92 53l205 282zM531 800q-149 0 -243 -120q-70 -88 -70 -225q0 -160 95 -255q92 -92 224 -92q156 0 247 121q68 91 68 227q0 155 -92 252q-89 92 -229 92zM995 0h-146v119q-128 -143 -319 -143q-119 0 -223 61q-112 64 -175 178q-61 109 -61 239
q0 217 154 358q132 120 305 120q187 0 319 -144v120h146v-908zM591 1331l236 -258l-105 -53l-189 178l-188 -178l-105 53l235 258h116z" />
    <glyph glyph-name="uni1EA6" unicode="&#x1ea6;" horiz-adv-x="1270" 
d="M728 1834l143 77l205 -281l-92 -53zM635 1642l-188 -178l-105 53l235 258h116l236 -258l-105 -53zM372 528h523l-263 689zM318 386l-146 -386h-158l526 1365h191l525 -1365h-159l-147 386h-632z" />
    <glyph glyph-name="uni1EA7" unicode="&#x1ea7;" 
d="M537 1522l143 77l205 -282l-92 -53zM533 1198l-188 -178l-105 53l235 258h116l236 -258l-105 -53zM531 800q-149 0 -243 -120q-70 -88 -70 -225q0 -160 95 -255q92 -92 224 -92q156 0 247 121q68 91 68 227q0 155 -92 252q-89 92 -229 92zM995 0h-146v119
q-128 -143 -319 -143q-119 0 -223 61q-112 64 -175 178q-61 109 -61 239q0 217 154 358q132 120 305 120q187 0 319 -144v120h146v-908z" />
    <glyph glyph-name="uni1EA8" unicode="&#x1ea8;" horiz-adv-x="1270" 
d="M895 1577q1 43 27 81l20 28q28 40 28 61q0 49 -68 49q-32 0 -76 -16l-41 104q72 28 134 28q84 0 134 -38t50 -101q0 -49 -32 -99l-32 -50q-14 -22 -14 -47h-130zM372 528h523l-263 689zM318 386l-146 -386h-158l526 1365h191l525 -1365h-159l-147 386h-632zM693 1775
l236 -258l-105 -53l-189 178l-188 -178l-105 53l235 258h116z" />
    <glyph glyph-name="uni1EA9" unicode="&#x1ea9;" 
d="M731 1264q1 42 28 81l19 28q28 40 28 61q0 49 -68 49q-31 0 -75 -16l-41 104q72 28 134 28q42 0 75.5 -10t57.5 -28t37 -44t13 -57q0 -50 -31 -99l-32 -49q-14 -23 -14 -48h-131zM591 1331l236 -258l-105 -53l-189 178l-188 -178l-105 53l235 258h116zM531 800
q-149 0 -243 -120q-70 -88 -70 -225q0 -160 95 -255q92 -92 224 -92q156 0 247 121q68 91 68 227q0 155 -92 252q-89 92 -229 92zM995 0h-146v119q-128 -143 -319 -143q-119 0 -223 61q-112 64 -175 178q-61 109 -61 239q0 217 154 358q132 120 305 120q187 0 319 -144v120
h146v-908z" />
    <glyph glyph-name="uni1EAA" unicode="&#x1eaa;" horiz-adv-x="1270" 
d="M914 1935q-7 -85 -48 -129.5t-113 -44.5q-52 0 -139 39q-66 31 -88 31q-24 0 -35.5 -15.5t-18.5 -57.5l-116 27q9 82 52.5 128t110.5 46q45 0 142 -44q60 -26 87 -26q25 0 35 15t14 59zM635 1591l-188 -178l-105 53l235 258h116l236 -258l-105 -53zM372 528h523l-263 689
zM318 386l-146 -386h-158l526 1365h191l525 -1365h-159l-147 386h-632z" />
    <glyph glyph-name="uni1EAB" unicode="&#x1eab;" 
d="M533 1198l-189 -178l-105 53l236 258h116l235 -258l-105 -53zM812 1571q-7 -85 -48 -129.5t-113 -44.5q-52 0 -139 39q-66 31 -88 31q-25 0 -36 -15.5t-18 -57.5l-116 27q9 81 51.5 127.5t111.5 46.5q45 0 142 -44q60 -26 87 -26q25 0 35 15t13 59zM531 800
q-149 0 -243 -120q-70 -88 -70 -225q0 -160 95 -255q92 -92 224 -92q156 0 247 121q68 91 68 227q0 155 -92 252q-89 92 -229 92zM995 0h-146v119q-128 -143 -319 -143q-119 0 -223 61q-112 64 -175 178q-61 109 -61 239q0 217 154 358q132 120 305 120q187 0 319 -144v120
h146v-908z" />
    <glyph glyph-name="uni1EAC" unicode="&#x1eac;" horiz-adv-x="1270" 
d="M635 -123q21 0 40 -8t33 -22t22 -32.5t8 -39.5t-8 -40t-22 -33t-33 -22t-40 -8t-40 8t-32.5 22t-21.5 33t-8 41q0 21 8 39t22 32t32.5 22t39.5 8zM635 1642l-188 -178l-105 53l235 258h116l236 -258l-105 -53zM372 528h523l-263 689zM318 386l-146 -386h-158l526 1365
h191l525 -1365h-159l-147 386h-632z" />
    <glyph glyph-name="uni1EAD" unicode="&#x1ead;" 
d="M533 1232l-188 -178l-105 53l235 258h116l236 -258l-105 -53zM558 -123q21 0 40 -8t33 -22t22 -32.5t8 -39.5t-8 -40t-22 -33t-33 -22t-40 -8t-40 8t-32.5 22t-21.5 33t-8 41q0 21 8 39t22 32t32.5 22t39.5 8zM531 800q-149 0 -243 -120q-70 -88 -70 -225q0 -160 95 -255
q92 -92 224 -92q156 0 247 121q68 91 68 227q0 155 -92 252q-89 92 -229 92zM995 0h-146v119q-128 -143 -319 -143q-119 0 -223 61q-112 64 -175 178q-61 109 -61 239q0 217 154 358q132 120 305 120q187 0 319 -144v120h146v-908z" />
    <glyph glyph-name="uni1EAE" unicode="&#x1eae;" horiz-adv-x="1270" 
d="M884 1886l-256 -258l-92 53l205 282zM491 1693q3 -69 38 -109q40 -45 103 -45q126 0 148 154l125 -10q-12 -104 -64 -169q-80 -101 -208 -101q-132 0 -212 101q-54 69 -55 169zM372 528h523l-263 689zM318 386l-146 -386h-158l526 1365h191l525 -1365h-159l-147 386h-632
z" />
    <glyph glyph-name="uni1EAF" unicode="&#x1eaf;" 
d="M796 1522l-256 -258l-92 53l205 282zM391 1300q4 -69 39 -108q40 -45 103 -45q125 0 148 153l125 -10q-12 -104 -64 -168q-80 -101 -208 -101q-132 0 -212 101q-54 67 -55 168zM531 800q-149 0 -243 -120q-70 -88 -70 -225q0 -160 95 -255q92 -92 224 -92q156 0 247 121
q68 91 68 227q0 155 -92 252q-89 92 -229 92zM995 0h-146v119q-128 -143 -319 -143q-119 0 -223 61q-112 64 -175 178q-61 109 -61 239q0 217 154 358q132 120 305 120q187 0 319 -144v120h146v-908z" />
    <glyph glyph-name="uni1EB0" unicode="&#x1eb0;" horiz-adv-x="1270" 
d="M376 1886l144 77l204 -282l-92 -53zM491 1693q3 -69 38 -109q40 -45 103 -45q126 0 148 154l125 -10q-12 -104 -64 -169q-80 -101 -208 -101q-132 0 -212 101q-54 69 -55 169zM372 528h523l-263 689zM318 386l-146 -386h-158l526 1365h191l525 -1365h-159l-147 386h-632z
" />
    <glyph glyph-name="uni1EB1" unicode="&#x1eb1;" 
d="M270 1522l144 77l204 -282l-92 -53zM391 1300q4 -69 39 -108q40 -45 103 -45q125 0 148 153l125 -10q-12 -104 -64 -168q-80 -101 -208 -101q-132 0 -212 101q-54 67 -55 168zM531 800q-149 0 -243 -120q-70 -88 -70 -225q0 -160 95 -255q92 -92 224 -92q156 0 247 121
q68 91 68 227q0 155 -92 252q-89 92 -229 92zM995 0h-146v119q-128 -143 -319 -143q-119 0 -223 61q-112 64 -175 178q-61 109 -61 239q0 217 154 358q132 120 305 120q187 0 319 -144v120h146v-908z" />
    <glyph glyph-name="uni1EB2" unicode="&#x1eb2;" horiz-adv-x="1270" 
d="M561 1628q1 43 27 81l20 28q28 40 28 61q0 49 -68 49q-31 0 -75 -16l-41 104q72 28 134 28q42 0 75.5 -10t57.5 -28t37 -44t13 -57q0 -49 -32 -99l-31 -49q-14 -23 -15 -48h-130zM491 1693q3 -69 38 -109q40 -45 103 -45q126 0 148 154l125 -10q-12 -104 -64 -169
q-80 -101 -208 -101q-132 0 -212 101q-54 69 -55 169zM372 528h523l-263 689zM318 386l-146 -386h-158l526 1365h191l525 -1365h-159l-147 386h-632z" />
    <glyph glyph-name="uni1EB3" unicode="&#x1eb3;" 
d="M462 1264q1 43 27 81l20 28q28 40 28 61q0 49 -68 49q-31 0 -76 -16l-41 104q72 28 135 28q42 0 75.5 -10t57.5 -28t37 -44t13 -57q0 -49 -32 -99l-32 -49q-14 -23 -14 -48h-130zM391 1300q4 -69 39 -108q40 -45 103 -45q125 0 148 153l125 -10q-12 -104 -64 -168
q-80 -101 -208 -101q-132 0 -212 101q-54 67 -55 168zM531 800q-149 0 -243 -120q-70 -88 -70 -225q0 -160 95 -255q92 -92 224 -92q156 0 247 121q68 91 68 227q0 155 -92 252q-89 92 -229 92zM995 0h-146v119q-128 -143 -319 -143q-119 0 -223 61q-112 64 -175 178
q-61 109 -61 239q0 217 154 358q132 120 305 120q187 0 319 -144v120h146v-908z" />
    <glyph glyph-name="uni1EB4" unicode="&#x1eb4;" horiz-adv-x="1270" 
d="M491 1693q3 -69 38 -109q40 -45 103 -45q126 0 148 154l125 -10q-12 -104 -64 -169q-80 -101 -208 -101q-132 0 -212 101q-54 69 -55 169zM914 1935q-7 -85 -48 -129.5t-113 -44.5q-52 0 -139 39q-66 31 -88 31q-24 0 -35.5 -15.5t-18.5 -57.5l-116 27q9 82 52.5 128
t110.5 46q45 0 142 -44q60 -26 87 -26q25 0 35 15t14 59zM372 528h523l-263 689zM318 386l-146 -386h-158l526 1365h191l525 -1365h-159l-147 386h-632z" />
    <glyph glyph-name="uni1EB5" unicode="&#x1eb5;" 
d="M391 1300q4 -69 39 -108q40 -45 102 -45q127 0 148 153l125 -10q-11 -104 -63 -168q-80 -101 -208 -101q-133 0 -213 101q-52 65 -55 168zM812 1571q-7 -85 -48 -129.5t-113 -44.5q-52 0 -139 39q-66 31 -88 31q-25 0 -36 -15.5t-18 -57.5l-116 27q9 81 51.5 127.5
t111.5 46.5q45 0 142 -44q60 -26 87 -26q25 0 35 15t13 59zM531 800q-149 0 -243 -120q-70 -88 -70 -225q0 -160 95 -255q92 -92 224 -92q156 0 247 121q68 91 68 227q0 155 -92 252q-89 92 -229 92zM995 0h-146v119q-128 -143 -319 -143q-119 0 -223 61q-112 64 -175 178
q-61 109 -61 239q0 217 154 358q132 120 305 120q187 0 319 -144v120h146v-908z" />
    <glyph glyph-name="uni1EB6" unicode="&#x1eb6;" horiz-adv-x="1270" 
d="M491 1744q3 -69 38 -109q40 -45 103 -45q126 0 148 154l125 -10q-12 -104 -64 -169q-80 -101 -208 -101q-132 0 -212 101q-54 69 -55 169zM635 -123q21 0 40 -8t33 -22t22 -32.5t8 -39.5t-8 -40t-22 -33t-33 -22t-40 -8t-40 8t-32.5 22t-21.5 33t-8 41q0 21 8 39t22 32
t32.5 22t39.5 8zM372 528h523l-263 689zM318 386l-146 -386h-158l526 1365h191l525 -1365h-159l-147 386h-632z" />
    <glyph glyph-name="uni1EB7" unicode="&#x1eb7;" 
d="M388 1334q4 -70 39 -109q40 -45 102 -45q127 0 149 154l125 -10q-12 -104 -64 -169q-80 -101 -208 -101q-132 0 -212 101q-53 68 -56 169zM558 -123q21 0 40 -8t33 -22t22 -32.5t8 -39.5t-8 -40t-22 -33t-33 -22t-40 -8t-40 8t-32.5 22t-21.5 33t-8 41q0 21 8 39t22 32
t32.5 22t39.5 8zM531 800q-149 0 -243 -120q-70 -88 -70 -225q0 -160 95 -255q92 -92 224 -92q156 0 247 121q68 91 68 227q0 155 -92 252q-89 92 -229 92zM995 0h-146v119q-128 -143 -319 -143q-119 0 -223 61q-112 64 -175 178q-61 109 -61 239q0 217 154 358
q132 120 305 120q187 0 319 -144v120h146v-908z" />
    <glyph glyph-name="uni1EB8" unicode="&#x1eb8;" horiz-adv-x="973" 
d="M553 -123q21 0 40 -8t33 -22t22 -32.5t8 -39.5t-8 -40t-22 -33t-33 -22t-40 -8t-40 8t-32.5 22t-21.5 33t-8 41q0 21 8 39t22 32t32.5 22t39.5 8zM867 1224h-550v-461h489v-142h-489v-479h571v-142h-724v1365h703v-141z" />
    <glyph glyph-name="uni1EB9" unicode="&#x1eb9;" horiz-adv-x="1017" 
d="M523 -123q21 0 40 -8t33 -22t22 -32.5t8 -39.5t-8 -40t-22 -33t-33 -22t-40 -8t-39.5 8t-32.5 22.5t-22 33.5t-8 40t8 39t22 32t32.5 22t39.5 8zM800 517q-4 29 -10.5 53.5t-14.5 44.5q-37 90 -110 140q-68 45 -152 45q-114 0 -194 -77q-78 -75 -98 -206h579zM221 392
q4 -26 10 -50.5t16 -47.5q37 -89 115 -140q70 -46 160 -46q184 0 276 161l130 -55q-67 -117 -171 -177.5t-234 -60.5q-209 0 -339 157q-113 136 -113 324q0 127 57 237q62 114 167 178q100 60 217 60q191 0 312 -139q122 -140 122 -356v-18t-1 -27h-724z" />
    <glyph glyph-name="uni1EBA" unicode="&#x1eba;" horiz-adv-x="973" 
d="M476 1476q1 44 28 81l19 28q29 41 29 61q0 49 -68 49q-32 0 -76 -16l-41 104q72 28 134 28q84 0 134 -38t50 -101q0 -49 -32 -99l-32 -49q-14 -23 -14 -48h-131zM867 1224h-550v-461h489v-142h-489v-479h571v-142h-724v1365h703v-141z" />
    <glyph glyph-name="uni1EBB" unicode="&#x1ebb;" horiz-adv-x="1017" 
d="M478 1055q1 42 28 81l19 28q28 38 28 60q0 49 -68 49q-32 0 -75 -15l-41 104q73 27 134 27q84 0 133.5 -37.5t49.5 -100.5q0 -49 -32 -99l-31 -50q-14 -22 -14 -47h-131zM800 517q-4 29 -10.5 53.5t-14.5 44.5q-37 90 -110 140q-68 45 -152 45q-114 0 -194 -77
q-78 -75 -98 -206h579zM221 392q4 -26 10 -50.5t16 -47.5q37 -89 115 -140q70 -46 160 -46q184 0 276 161l130 -55q-67 -117 -171 -177.5t-234 -60.5q-209 0 -339 157q-113 136 -113 324q0 127 57 237q62 114 167 178q100 60 217 60q191 0 312 -139q122 -140 122 -356v-18
t-1 -27h-724z" />
    <glyph glyph-name="uni1EBC" unicode="&#x1ebc;" horiz-adv-x="973" 
d="M763 1694q-8 -85 -48.5 -129.5t-112.5 -44.5q-54 0 -139 39q-66 31 -89 31q-24 0 -35.5 -15.5t-17.5 -57.5l-116 27q9 82 51.5 128t111.5 46q45 0 142 -44q60 -26 87 -26q25 0 35 15t13 59zM867 1224h-550v-461h489v-142h-489v-479h571v-142h-724v1365h703v-141z" />
    <glyph glyph-name="uni1EBD" unicode="&#x1ebd;" horiz-adv-x="1017" 
d="M787 1285q-7 -85 -48 -129.5t-113 -44.5q-53 0 -138 39q-66 31 -89 31q-24 0 -35.5 -15.5t-18.5 -58.5l-115 28q8 81 51.5 127.5t110.5 46.5q47 0 143 -44q58 -26 87 -26q25 0 34.5 15t13.5 58zM800 517q-4 29 -10.5 53.5t-14.5 44.5q-37 90 -110 140q-68 45 -152 45
q-114 0 -194 -77q-78 -75 -98 -206h579zM221 392q4 -26 10 -50.5t16 -47.5q37 -89 115 -140q70 -46 160 -46q184 0 276 161l130 -55q-67 -117 -171 -177.5t-234 -60.5q-209 0 -339 157q-113 136 -113 324q0 127 57 237q62 114 167 178q100 60 217 60q191 0 312 -139
q122 -140 122 -356v-18t-1 -27h-724z" />
    <glyph glyph-name="uni1EBE" unicode="&#x1ebe;" horiz-adv-x="973" 
d="M728 1591l67 -74l-105 -53l-188 178l-188 -178l-106 53l236 258h116l93 -102l173 238l144 -77zM867 1224h-550v-461h489v-142h-489v-479h571v-142h-724v1365h703v-141z" />
    <glyph glyph-name="uni1EBF" unicode="&#x1ebf;" horiz-adv-x="1017" 
d="M571 1331l235 -258l-105 -53l-189 178l-188 -178l-105 53l236 258h116zM1045 1522l-256 -258l-92 53l205 282zM800 517q-4 29 -10.5 53.5t-14.5 44.5q-37 90 -110 140q-68 45 -152 45q-114 0 -194 -77q-78 -75 -98 -206h579zM221 392q4 -26 10 -50.5t16 -47.5
q37 -89 115 -140q70 -46 160 -46q184 0 276 161l130 -55q-67 -117 -171 -177.5t-234 -60.5q-209 0 -339 157q-113 136 -113 324q0 127 57 237q62 114 167 178q100 60 217 60q191 0 312 -139q122 -140 122 -356v-18t-1 -27h-724z" />
    <glyph glyph-name="uni1EC0" unicode="&#x1ec0;" horiz-adv-x="973" 
d="M502 1642l-188 -178l-106 53l236 258h116l235 -258l-105 -53zM594 1834l144 77l204 -281l-92 -53zM867 1224h-550v-461h489v-142h-489v-479h571v-142h-724v1365h703v-141z" />
    <glyph glyph-name="uni1EC1" unicode="&#x1ec1;" horiz-adv-x="1017" 
d="M512 1198l-188 -178l-105 53l236 258h116l235 -258l-105 -53zM516 1522l143 77l205 -282l-92 -53zM800 517q-4 29 -10.5 53.5t-14.5 44.5q-37 90 -110 140q-68 45 -152 45q-114 0 -194 -77q-78 -75 -98 -206h579zM221 392q4 -26 10 -50.5t16 -47.5q37 -89 115 -140
q70 -46 160 -46q184 0 276 161l130 -55q-67 -117 -171 -177.5t-234 -60.5q-209 0 -339 157q-113 136 -113 324q0 127 57 237q62 114 167 178q100 60 217 60q191 0 312 -139q122 -140 122 -356v-18t-1 -27h-724z" />
    <glyph glyph-name="uni1EC2" unicode="&#x1ec2;" horiz-adv-x="973" 
d="M761 1577q1 42 28 81l19 28q29 41 29 61q0 49 -68 49q-32 0 -76 -16l-41 104q72 28 134 28q84 0 134 -38t50 -101q0 -49 -32 -99l-32 -50q-14 -22 -14 -47h-131zM560 1775l235 -258l-105 -53l-188 178l-188 -178l-106 53l236 258h116zM867 1224h-550v-461h489v-142h-489
v-479h571v-142h-724v1365h703v-141z" />
    <glyph glyph-name="uni1EC3" unicode="&#x1ec3;" horiz-adv-x="1017" 
d="M710 1264q1 42 28 81l19 28q29 41 29 61q0 49 -68 49q-31 0 -76 -16l-41 104q72 28 134 28q84 0 134 -38t50 -101q0 -49 -32 -99l-32 -49q-14 -23 -14 -48h-131zM571 1331l235 -258l-105 -53l-189 178l-188 -178l-105 53l236 258h116zM800 517q-4 29 -10.5 53.5
t-14.5 44.5q-37 90 -110 140q-68 45 -152 45q-114 0 -194 -77q-78 -75 -98 -206h579zM221 392q4 -26 10 -50.5t16 -47.5q37 -89 115 -140q70 -46 160 -46q184 0 276 161l130 -55q-67 -117 -171 -177.5t-234 -60.5q-209 0 -339 157q-113 136 -113 324q0 127 57 237
q62 114 167 178q100 60 217 60q191 0 312 -139q122 -140 122 -356v-18t-1 -27h-724z" />
    <glyph glyph-name="uni1EC4" unicode="&#x1ec4;" horiz-adv-x="973" 
d="M781 1935q-7 -85 -48 -129.5t-113 -44.5q-52 0 -139 39q-66 31 -88 31q-25 0 -36 -15.5t-18 -57.5l-116 27q9 82 51.5 128t111.5 46q45 0 142 -44q60 -26 87 -26q25 0 35 15t13 59zM502 1591l-188 -178l-106 53l236 258h116l235 -258l-105 -53zM867 1224h-550v-461h489
v-142h-489v-479h571v-142h-724v1365h703v-141z" />
    <glyph glyph-name="uni1EC5" unicode="&#x1ec5;" horiz-adv-x="1017" 
d="M512 1198l-188 -178l-105 53l236 258h116l235 -258l-105 -53zM791 1571q-7 -85 -48.5 -129.5t-111.5 -44.5q-54 0 -139 39q-66 31 -89 31q-24 0 -35.5 -15.5t-18.5 -57.5l-115 27q8 81 51.5 127.5t110.5 46.5q46 0 143 -44q58 -26 87 -26q25 0 35 15t13 59zM800 517
q-4 29 -10.5 53.5t-14.5 44.5q-37 90 -110 140q-68 45 -152 45q-114 0 -194 -77q-78 -75 -98 -206h579zM221 392q4 -26 10 -50.5t16 -47.5q37 -89 115 -140q70 -46 160 -46q184 0 276 161l130 -55q-67 -117 -171 -177.5t-234 -60.5q-209 0 -339 157q-113 136 -113 324
q0 127 57 237q62 114 167 178q100 60 217 60q191 0 312 -139q122 -140 122 -356v-18t-1 -27h-724z" />
    <glyph glyph-name="uni1EC6" unicode="&#x1ec6;" horiz-adv-x="973" 
d="M526 1642l-189 -178l-105 53l236 258h116l235 -258l-105 -53zM553 -123q21 0 40 -8t33 -22t22 -32.5t8 -39.5t-8 -40t-22 -33t-33 -22t-40 -8t-40 8t-32.5 22t-21.5 33t-8 41q0 21 8 39t22 32t32.5 22t39.5 8zM867 1224h-550v-461h489v-142h-489v-479h571v-142h-724v1365
h703v-141z" />
    <glyph glyph-name="uni1EC7" unicode="&#x1ec7;" horiz-adv-x="1017" 
d="M512 1232l-188 -178l-105 53l236 258h116l235 -258l-105 -53zM523 -123q21 0 40 -8t33 -22t22 -32.5t8 -39.5t-8 -40t-22 -33t-33 -22t-40 -8t-39.5 8t-32.5 22.5t-22 33.5t-8 40t8 39t22 32t32.5 22t39.5 8zM800 517q-4 29 -10.5 53.5t-14.5 44.5q-37 90 -110 140
q-68 45 -152 45q-114 0 -194 -77q-78 -75 -98 -206h579zM221 392q4 -26 10 -50.5t16 -47.5q37 -89 115 -140q70 -46 160 -46q184 0 276 161l130 -55q-67 -117 -171 -177.5t-234 -60.5q-209 0 -339 157q-113 136 -113 324q0 127 57 237q62 114 167 178q100 60 217 60
q191 0 312 -139q122 -140 122 -356v-18t-1 -27h-724z" />
    <glyph glyph-name="uni1EC8" unicode="&#x1ec8;" horiz-adv-x="481" 
d="M186 1476q1 44 28 81l19 28q29 41 29 61q0 49 -68 49q-32 0 -76 -16l-41 104q72 28 134 28q84 0 134 -38t50 -101q0 -49 -32 -99l-32 -49q-14 -23 -14 -48h-131zM317 1365v-1365h-153v1365h153z" />
    <glyph glyph-name="uni1EC9" unicode="&#x1ec9;" horiz-adv-x="408" 
d="M146 1055q1 42 28 81l19 28q29 41 29 60q0 49 -68 49q-31 0 -76 -15l-41 104q73 27 134 27q85 0 134.5 -37.5t49.5 -100.5q0 -49 -32 -99l-32 -50q-14 -22 -14 -47h-131zM277 908v-908h-146v908h146z" />
    <glyph glyph-name="uni1ECA" unicode="&#x1eca;" horiz-adv-x="481" 
d="M240 -123q21 0 40 -8t33 -22t22 -32.5t8 -39.5t-8 -40t-22 -33t-33 -22t-40 -8t-39.5 8t-32.5 22.5t-22 33.5t-8 40t8 39t22 32t32.5 22t39.5 8zM317 1365v-1365h-153v1365h153z" />
    <glyph glyph-name="uni1ECB" unicode="&#x1ecb;" horiz-adv-x="408" 
d="M204 -123q21 0 40 -8t33 -22t22 -32.5t8 -39.5t-8 -40t-22 -33t-33 -22t-40 -8t-39.5 8t-32.5 22.5t-22 33.5t-8 40t8 39t22 32t32.5 22t39.5 8zM205 1314q21 0 40 -8t33.5 -22.5t22.5 -33.5t8 -40q0 -45 -30 -75t-75 -30q-21 0 -40 8.5t-33.5 22.5t-22.5 33.5t-8 41.5
q0 21 8.5 39.5t22.5 33t33.5 22.5t40.5 8zM277 908v-908h-146v908h146z" />
    <glyph glyph-name="uni1ECC" unicode="&#x1ecc;" horiz-adv-x="1565" 
d="M783 -123q21 0 40 -8t33 -22t22 -32.5t8 -39.5t-8 -40t-22 -33t-33 -22t-40 -8t-40 8t-32.5 22t-21.5 33t-8 41q0 21 8 39t22 32t32.5 22t39.5 8zM778 1246q-151 0 -279 -83q-129 -83 -197 -218q-62 -122 -62 -272q0 -140 67 -264q70 -130 199 -210q131 -80 276 -80
q146 0 277 80q128 79 199 210q67 125 67 273q0 240 -166 407q-156 157 -381 157zM782 1389q187 0 344 -94q164 -98 258 -260q95 -164 95 -353q0 -188 -95 -354q-92 -158 -248 -252q-166 -100 -359 -100q-182 0 -348 100q-156 94 -248 252q-95 167 -95 365q0 184 95 342
q100 168 258 260q160 94 343 94z" />
    <glyph glyph-name="uni1ECD" unicode="&#x1ecd;" horiz-adv-x="1077" 
d="M539 -123q21 0 40 -8t33 -22t22 -32.5t8 -39.5t-8 -40t-22 -33t-33 -22t-40 -8t-40 8t-32.5 22t-21.5 33t-8 41q0 21 8 39t22 32t32.5 22t39.5 8zM533 799q-151 0 -245 -120q-70 -88 -70 -225q0 -159 95 -254q92 -92 225 -92q159 0 252 120q69 91 69 229q0 156 -94 250
q-92 92 -232 92zM546 932q203 0 341 -156q119 -136 119 -321q0 -218 -154 -359q-131 -120 -314 -120q-212 0 -348 156q-119 136 -119 326q0 213 154 354q130 120 321 120z" />
    <glyph glyph-name="uni1ECE" unicode="&#x1ece;" horiz-adv-x="1565" 
d="M733 1476q1 45 27 81l20 28q28 40 28 61q0 49 -68 49q-31 0 -75 -16l-41 104q72 28 134 28q42 0 75.5 -10t57.5 -28t37 -44t13 -57q0 -49 -32 -99l-31 -49q-14 -23 -15 -48h-130zM778 1246q-151 0 -279 -83q-129 -83 -197 -218q-62 -122 -62 -272q0 -140 67 -264
q70 -130 199 -210q131 -80 276 -80q146 0 277 80q128 79 199 210q67 125 67 273q0 240 -166 407q-156 157 -381 157zM782 1389q187 0 344 -94q164 -98 258 -260q95 -164 95 -353q0 -188 -95 -354q-92 -158 -248 -252q-166 -100 -359 -100q-182 0 -348 100q-156 94 -248 252
q-95 167 -95 365q0 184 95 342q100 168 258 260q160 94 343 94z" />
    <glyph glyph-name="uni1ECF" unicode="&#x1ecf;" horiz-adv-x="1077" 
d="M489 1055q1 42 28 81l19 28q28 38 28 60q0 49 -68 49q-32 0 -75 -15l-41 104q73 27 134 27q84 0 133.5 -37.5t49.5 -100.5q0 -49 -32 -99l-31 -50q-14 -22 -14 -47h-131zM533 799q-151 0 -245 -120q-70 -88 -70 -225q0 -159 95 -254q92 -92 225 -92q159 0 252 120
q69 91 69 229q0 156 -94 250q-92 92 -232 92zM546 932q203 0 341 -156q119 -136 119 -321q0 -218 -154 -359q-131 -120 -314 -120q-212 0 -348 156q-119 136 -119 326q0 213 154 354q130 120 321 120z" />
    <glyph glyph-name="uni1ED0" unicode="&#x1ed0;" horiz-adv-x="1565" 
d="M1008 1591l68 -74l-105 -53l-189 178l-188 -178l-105 53l235 258h116l93 -102l174 238l143 -77zM778 1246q-151 0 -279 -83q-129 -83 -197 -218q-62 -122 -62 -272q0 -140 67 -264q70 -130 199 -210q131 -80 276 -80q146 0 277 80q128 79 199 210q67 125 67 273
q0 240 -166 407q-156 157 -381 157zM782 1389q187 0 344 -94q164 -98 258 -260q95 -164 95 -353q0 -188 -95 -354q-92 -158 -248 -252q-166 -100 -359 -100q-182 0 -348 100q-156 94 -248 252q-95 167 -95 365q0 184 95 342q100 168 258 260q160 94 343 94z" />
    <glyph glyph-name="uni1ED1" unicode="&#x1ed1;" horiz-adv-x="1077" 
d="M1071 1522l-256 -258l-92 53l205 282zM597 1331l235 -258l-105 -53l-188 178l-189 -178l-105 53l236 258h116zM533 799q-151 0 -245 -120q-70 -88 -70 -225q0 -159 95 -254q92 -92 225 -92q159 0 252 120q69 91 69 229q0 156 -94 250q-92 92 -232 92zM546 932
q203 0 341 -156q119 -136 119 -321q0 -218 -154 -359q-131 -120 -314 -120q-212 0 -348 156q-119 136 -119 326q0 213 154 354q130 120 321 120z" />
    <glyph glyph-name="uni1ED2" unicode="&#x1ed2;" horiz-adv-x="1565" 
d="M875 1834l143 77l205 -281l-92 -53zM782 1642l-188 -178l-105 53l235 258h116l236 -258l-105 -53zM778 1246q-151 0 -279 -83q-129 -83 -197 -218q-62 -122 -62 -272q0 -140 67 -264q70 -130 199 -210q131 -80 276 -80q146 0 277 80q128 79 199 210q67 125 67 273
q0 240 -166 407q-156 157 -381 157zM782 1389q187 0 344 -94q164 -98 258 -260q95 -164 95 -353q0 -188 -95 -354q-92 -158 -248 -252q-166 -100 -359 -100q-182 0 -348 100q-156 94 -248 252q-95 167 -95 365q0 184 95 342q100 168 258 260q160 94 343 94z" />
    <glyph glyph-name="uni1ED3" unicode="&#x1ed3;" horiz-adv-x="1077" 
d="M542 1522l144 77l204 -282l-92 -53zM539 1198l-189 -178l-105 53l236 258h116l235 -258l-105 -53zM533 799q-151 0 -245 -120q-70 -88 -70 -225q0 -159 95 -254q92 -92 225 -92q159 0 252 120q69 91 69 229q0 156 -94 250q-92 92 -232 92zM546 932q203 0 341 -156
q119 -136 119 -321q0 -218 -154 -359q-131 -120 -314 -120q-212 0 -348 156q-119 136 -119 326q0 213 154 354q130 120 321 120z" />
    <glyph glyph-name="uni1ED4" unicode="&#x1ed4;" horiz-adv-x="1565" 
d="M1042 1577q1 43 27 81l20 28q28 40 28 61q0 49 -68 49q-32 0 -76 -16l-40 104q72 28 134 28q42 0 75.5 -10t57.5 -28t37 -44t13 -57q0 -49 -32 -99l-32 -50q-14 -22 -14 -47h-130zM840 1775l236 -258l-105 -53l-189 178l-188 -178l-105 53l235 258h116zM778 1246
q-151 0 -279 -83q-129 -83 -197 -218q-62 -122 -62 -272q0 -140 67 -264q70 -130 199 -210q131 -80 276 -80q146 0 277 80q128 79 199 210q67 125 67 273q0 240 -166 407q-156 157 -381 157zM782 1389q187 0 344 -94q164 -98 258 -260q95 -164 95 -353q0 -188 -95 -354
q-92 -158 -248 -252q-166 -100 -359 -100q-182 0 -348 100q-156 94 -248 252q-95 167 -95 365q0 184 95 342q100 168 258 260q160 94 343 94z" />
    <glyph glyph-name="uni1ED5" unicode="&#x1ed5;" horiz-adv-x="1077" 
d="M737 1264q1 43 27 81l20 28q28 40 28 61q0 49 -68 49q-31 0 -76 -16l-41 104q72 28 135 28q42 0 75.5 -10t57.5 -28t37 -44t13 -57q0 -49 -32 -99l-32 -49q-14 -23 -14 -48h-130zM597 1331l235 -258l-105 -53l-188 178l-189 -178l-105 53l236 258h116zM533 799
q-151 0 -245 -120q-70 -88 -70 -225q0 -159 95 -254q92 -92 225 -92q159 0 252 120q69 91 69 229q0 156 -94 250q-92 92 -232 92zM546 932q203 0 341 -156q119 -136 119 -321q0 -218 -154 -359q-131 -120 -314 -120q-212 0 -348 156q-119 136 -119 326q0 213 154 354
q130 120 321 120z" />
    <glyph glyph-name="uni1ED6" unicode="&#x1ed6;" horiz-adv-x="1565" 
d="M1061 1935q-7 -85 -48 -129.5t-113 -44.5q-53 0 -138 39q-66 31 -89 31q-24 0 -35.5 -15.5t-18.5 -57.5l-115 27q8 82 51.5 128t110.5 46q46 0 143 -44q58 -26 87 -26q24 0 34 15t14 59zM782 1591l-188 -178l-105 53l235 258h116l236 -258l-105 -53zM778 1246
q-151 0 -279 -83q-129 -83 -197 -218q-62 -122 -62 -272q0 -140 67 -264q70 -130 199 -210q131 -80 276 -80q146 0 277 80q128 79 199 210q67 125 67 273q0 240 -166 407q-156 157 -381 157zM782 1389q187 0 344 -94q164 -98 258 -260q95 -164 95 -353q0 -188 -95 -354
q-92 -158 -248 -252q-166 -100 -359 -100q-182 0 -348 100q-156 94 -248 252q-95 167 -95 365q0 184 95 342q100 168 258 260q160 94 343 94z" />
    <glyph glyph-name="uni1ED7" unicode="&#x1ed7;" horiz-adv-x="1077" 
d="M539 1198l-189 -178l-105 53l236 258h116l235 -258l-105 -53zM817 1571q-7 -85 -47.5 -129.5t-112.5 -44.5q-52 0 -139 39q-66 31 -89 31q-24 0 -35.5 -15.5t-18.5 -57.5l-115 27q9 81 52 127.5t110 46.5q46 0 143 -44q60 -26 87 -26q25 0 35 15t13 59zM533 799
q-151 0 -245 -120q-70 -88 -70 -225q0 -159 95 -254q92 -92 225 -92q159 0 252 120q69 91 69 229q0 156 -94 250q-92 92 -232 92zM546 932q203 0 341 -156q119 -136 119 -321q0 -218 -154 -359q-131 -120 -314 -120q-212 0 -348 156q-119 136 -119 326q0 213 154 354
q130 120 321 120z" />
    <glyph glyph-name="uni1ED8" unicode="&#x1ed8;" horiz-adv-x="1565" 
d="M782 -123q21 0 40 -8t33 -22t22 -32.5t8 -39.5t-8 -40t-22 -33t-33 -22t-40 -8t-40 8t-32.5 22t-21.5 33t-8 41q0 21 8 39t22 32t32.5 22t39.5 8zM782 1642l-188 -178l-105 53l235 258h116l236 -258l-105 -53zM778 1246q-151 0 -279 -83q-129 -83 -197 -218
q-62 -122 -62 -272q0 -140 67 -264q70 -130 199 -210q131 -80 276 -80q146 0 277 80q128 79 199 210q67 125 67 273q0 240 -166 407q-156 157 -381 157zM782 1389q187 0 344 -94q164 -98 258 -260q95 -164 95 -353q0 -188 -95 -354q-92 -158 -248 -252q-166 -100 -359 -100
q-182 0 -348 100q-156 94 -248 252q-95 167 -95 365q0 184 95 342q100 168 258 260q160 94 343 94z" />
    <glyph glyph-name="uni1ED9" unicode="&#x1ed9;" horiz-adv-x="1077" 
d="M539 1232l-189 -178l-105 53l236 258h116l235 -258l-105 -53zM539 -123q21 0 40 -8t33 -22t22 -32.5t8 -39.5t-8 -40t-22 -33t-33 -22t-40 -8t-40 8t-32.5 22t-21.5 33t-8 41q0 21 8 39t22 32t32.5 22t39.5 8zM533 799q-151 0 -245 -120q-70 -88 -70 -225q0 -159 95 -254
q92 -92 225 -92q159 0 252 120q69 91 69 229q0 156 -94 250q-92 92 -232 92zM546 932q203 0 341 -156q119 -136 119 -321q0 -218 -154 -359q-131 -120 -314 -120q-212 0 -348 156q-119 136 -119 326q0 213 154 354q130 120 321 120z" />
    <glyph glyph-name="uni1EDA" unicode="&#x1eda;" horiz-adv-x="1565" 
d="M1039 1722l-257 -258l-92 53l205 282zM778 1246q-151 0 -279 -83q-129 -83 -197 -218q-62 -122 -62 -272q0 -140 67 -264q70 -130 199 -210q131 -80 276 -80q146 0 277 80q128 79 199 210q67 125 67 273q0 240 -166 407q-156 157 -381 157zM1285 1168q104 53 104 143
q0 88 -86 160l102 51q114 -83 114 -215q0 -144 -155 -240q115 -178 115 -386q0 -187 -95 -353q-91 -157 -248 -252q-164 -100 -354 -100q-189 0 -353 100q-156 94 -248 252q-95 166 -95 354q0 190 94 353q94 165 259 260q160 94 343 94q142 0 272.5 -57.5t230.5 -163.5z" />
    <glyph glyph-name="uni1EDB" unicode="&#x1edb;" horiz-adv-x="1146" 
d="M766 1312l-257 -258l-91 53l204 282zM533 800q-152 0 -245 -120q-70 -89 -70 -225q0 -158 95 -255q92 -92 225 -92q159 0 252 121q69 90 69 229q0 155 -94 250q-92 92 -232 92zM920 735q62 47 62 119q0 86 -86 160l102 51q114 -83 114 -215q0 -133 -135 -227
q29 -79 29 -166q0 -220 -154 -361q-131 -120 -314 -120q-212 0 -348 156q-119 137 -119 322q0 219 154 358q130 120 313 120q118 0 216.5 -51.5t165.5 -145.5z" />
    <glyph glyph-name="uni1EDC" unicode="&#x1edc;" horiz-adv-x="1565" 
d="M526 1722l143 77l205 -282l-92 -53zM778 1246q-151 0 -279 -83q-129 -83 -197 -218q-62 -122 -62 -272q0 -140 67 -264q70 -130 199 -210q131 -80 276 -80q146 0 277 80q128 79 199 210q67 125 67 273q0 240 -166 407q-156 157 -381 157zM1285 1168q104 53 104 143
q0 88 -86 160l102 51q114 -83 114 -215q0 -144 -155 -240q115 -178 115 -386q0 -187 -95 -353q-91 -157 -248 -252q-164 -100 -354 -100q-189 0 -353 100q-156 94 -248 252q-95 166 -95 354q0 190 94 353q94 165 259 260q160 94 343 94q142 0 272.5 -57.5t230.5 -163.5z" />
    <glyph glyph-name="uni1EDD" unicode="&#x1edd;" horiz-adv-x="1146" 
d="M282 1312l144 77l205 -282l-92 -53zM533 800q-152 0 -245 -120q-70 -89 -70 -225q0 -158 95 -255q92 -92 225 -92q159 0 252 121q69 90 69 229q0 155 -94 250q-92 92 -232 92zM920 735q62 47 62 119q0 86 -86 160l102 51q114 -83 114 -215q0 -133 -135 -227
q29 -79 29 -166q0 -220 -154 -361q-131 -120 -314 -120q-212 0 -348 156q-119 137 -119 322q0 219 154 358q130 120 313 120q118 0 216.5 -51.5t165.5 -145.5z" />
    <glyph glyph-name="uni1EDE" unicode="&#x1ede;" horiz-adv-x="1565" 
d="M752 1476q1 45 27 81l20 28q28 40 28 61q0 49 -68 49q-32 0 -76 -16l-41 104q72 28 135 28q42 0 75.5 -10t57.5 -28t37 -44t13 -57q0 -49 -32 -99l-32 -49q-14 -23 -14 -48h-130zM778 1246q-151 0 -279 -83q-129 -83 -197 -218q-62 -122 -62 -272q0 -140 67 -264
q70 -130 199 -210q131 -80 276 -80q146 0 277 80q128 79 199 210q67 125 67 273q0 240 -166 407q-156 157 -381 157zM1285 1168q104 53 104 143q0 88 -86 160l102 51q114 -83 114 -215q0 -144 -155 -240q115 -178 115 -386q0 -187 -95 -353q-91 -157 -248 -252
q-164 -100 -354 -100q-189 0 -353 100q-156 94 -248 252q-95 166 -95 354q0 190 94 353q94 165 259 260q160 94 343 94q142 0 272.5 -57.5t230.5 -163.5z" />
    <glyph glyph-name="uni1EDF" unicode="&#x1edf;" horiz-adv-x="1146" 
d="M504 1055q1 42 28 81l19 28q29 41 29 60q0 49 -68 49q-31 0 -76 -15l-41 104q73 27 134 27q85 0 134.5 -37.5t49.5 -100.5q0 -49 -32 -99l-32 -50q-14 -22 -14 -47h-131zM533 800q-152 0 -245 -120q-70 -89 -70 -225q0 -158 95 -255q92 -92 225 -92q159 0 252 121
q69 90 69 229q0 155 -94 250q-92 92 -232 92zM920 735q62 47 62 119q0 86 -86 160l102 51q114 -83 114 -215q0 -133 -135 -227q29 -79 29 -166q0 -220 -154 -361q-131 -120 -314 -120q-212 0 -348 156q-119 137 -119 322q0 219 154 358q130 120 313 120q118 0 216.5 -51.5
t165.5 -145.5z" />
    <glyph glyph-name="uni1EE0" unicode="&#x1ee0;" horiz-adv-x="1565" 
d="M1061 1694q-7 -85 -48 -129.5t-113 -44.5q-53 0 -138 39q-66 31 -89 31q-24 0 -35.5 -15.5t-18.5 -57.5l-115 27q8 82 51.5 128t110.5 46q46 0 143 -44q58 -26 87 -26q24 0 34 15t14 59zM778 1246q-151 0 -279 -83q-129 -83 -197 -218q-62 -122 -62 -272q0 -140 67 -264
q70 -130 199 -210q131 -80 276 -80q146 0 277 80q128 79 199 210q67 125 67 273q0 240 -166 407q-156 157 -381 157zM1285 1168q104 53 104 143q0 88 -86 160l102 51q114 -83 114 -215q0 -144 -155 -240q115 -178 115 -386q0 -187 -95 -353q-91 -157 -248 -252
q-164 -100 -354 -100q-189 0 -353 100q-156 94 -248 252q-95 166 -95 354q0 190 94 353q94 165 259 260q160 94 343 94q142 0 272.5 -57.5t230.5 -163.5z" />
    <glyph glyph-name="uni1EE1" unicode="&#x1ee1;" horiz-adv-x="1146" 
d="M817 1285q-7 -85 -47.5 -129.5t-112.5 -44.5q-54 0 -139 39q-66 31 -89 31q-24 0 -35.5 -15.5t-18.5 -58.5l-115 28q9 81 52 127.5t110 46.5q47 0 143 -44q58 -26 87 -26q25 0 35 15t13 58zM533 800q-152 0 -245 -120q-70 -89 -70 -225q0 -158 95 -255q92 -92 225 -92
q159 0 252 121q69 90 69 229q0 155 -94 250q-92 92 -232 92zM920 735q62 47 62 119q0 86 -86 160l102 51q114 -83 114 -215q0 -133 -135 -227q29 -79 29 -166q0 -220 -154 -361q-131 -120 -314 -120q-212 0 -348 156q-119 137 -119 322q0 219 154 358q130 120 313 120
q118 0 216.5 -51.5t165.5 -145.5z" />
    <glyph glyph-name="uni1EE2" unicode="&#x1ee2;" horiz-adv-x="1565" 
d="M783 -123q21 0 40 -8t33 -22t22 -32.5t8 -39.5t-8 -40t-22 -33t-33 -22t-40 -8t-40 8t-32.5 22t-21.5 33t-8 41q0 21 8 39t22 32t32.5 22t39.5 8zM778 1246q-151 0 -279 -83q-129 -83 -197 -218q-62 -122 -62 -272q0 -140 67 -264q70 -130 199 -210q131 -80 276 -80
q146 0 277 80q128 79 199 210q67 125 67 273q0 240 -166 407q-156 157 -381 157zM1285 1168q104 53 104 143q0 88 -86 160l102 51q114 -83 114 -215q0 -144 -155 -240q115 -178 115 -386q0 -187 -95 -353q-91 -157 -248 -252q-164 -100 -354 -100q-189 0 -353 100
q-156 94 -248 252q-95 166 -95 354q0 190 94 353q94 165 259 260q160 94 343 94q142 0 272.5 -57.5t230.5 -163.5z" />
    <glyph glyph-name="uni1EE3" unicode="&#x1ee3;" horiz-adv-x="1146" 
d="M539 -123q21 0 40 -8t33 -22t22 -32.5t8 -39.5t-8 -40t-22 -33t-33 -22t-40 -8t-40 8t-32.5 22t-21.5 33t-8 41q0 21 8 39t22 32t32.5 22t39.5 8zM533 800q-152 0 -245 -120q-70 -89 -70 -225q0 -158 95 -255q92 -92 225 -92q159 0 252 121q69 90 69 229q0 155 -94 250
q-92 92 -232 92zM920 735q62 47 62 119q0 86 -86 160l102 51q114 -83 114 -215q0 -133 -135 -227q29 -79 29 -166q0 -220 -154 -361q-131 -120 -314 -120q-212 0 -348 156q-119 137 -119 322q0 219 154 358q130 120 313 120q118 0 216.5 -51.5t165.5 -145.5z" />
    <glyph glyph-name="uni1EE4" unicode="&#x1ee4;" horiz-adv-x="1301" 
d="M651 -123q21 0 40 -8t33 -22t22 -32.5t8 -39.5t-8 -40t-22 -33t-33 -22t-40 -8t-40 8t-32.5 22t-21.5 33t-8 41q0 21 8 39t22 32t32.5 22t39.5 8zM317 1365v-846q0 -53 2.5 -92.5t7.5 -66.5q10 -55 36 -97q38 -62 115 -102q80 -43 172 -43q127 0 225 76q64 49 87 117
q22 65 22 208v846h153v-887q0 -54 -5 -99t-15.5 -83.5t-27.5 -71.5t-41 -63q-71 -91 -181 -140q-102 -46 -216 -46q-166 0 -297 91q-103 71 -146 166q-44 97 -44 246v887h153z" />
    <glyph glyph-name="uni1EE5" unicode="&#x1ee5;" horiz-adv-x="1043" 
d="M498 -123q21 0 40 -8t33 -22t22 -32.5t8 -39.5t-8 -40t-22 -33t-33 -22t-40 -8t-40 8t-32.5 22t-21.5 33t-8 41q0 21 8 39t22 32t32.5 22t39.5 8zM768 102q-101 -126 -273 -126q-167 0 -272 115q-25 27 -43 59t-29 71.5t-16.5 87.5t-5.5 107v492h146v-475q0 -49 3.5 -87
t11 -67.5t19 -52.5t28.5 -41q63 -69 171 -69q132 0 203 86q57 69 57 252v454h146v-908h-146v102z" />
    <glyph glyph-name="uni1EE6" unicode="&#x1ee6;" horiz-adv-x="1301" 
d="M601 1476q1 44 28 81l19 28q29 41 29 61q0 49 -68 49q-32 0 -76 -16l-41 104q72 28 134 28q84 0 134 -38t50 -101q0 -49 -32 -99l-32 -49q-14 -23 -14 -48h-131zM317 1365v-846q0 -53 2.5 -92.5t7.5 -66.5q10 -55 36 -97q38 -62 115 -102q80 -43 172 -43q127 0 225 76
q64 49 87 117q22 65 22 208v846h153v-887q0 -54 -5 -99t-15.5 -83.5t-27.5 -71.5t-41 -63q-71 -91 -181 -140q-102 -46 -216 -46q-166 0 -297 91q-103 71 -146 166q-44 97 -44 246v887h153z" />
    <glyph glyph-name="uni1EE7" unicode="&#x1ee7;" horiz-adv-x="1043" 
d="M472 1055q1 42 28 81l19 28q28 38 28 60q0 49 -68 49q-32 0 -75 -15l-41 104q73 27 134 27q84 0 133.5 -37.5t49.5 -100.5q0 -49 -32 -99l-31 -50q-13 -21 -15 -47h-130zM768 102q-101 -126 -273 -126q-167 0 -272 115q-25 27 -43 59t-29 71.5t-16.5 87.5t-5.5 107v492
h146v-475q0 -49 3.5 -87t11 -67.5t19 -52.5t28.5 -41q63 -69 171 -69q132 0 203 86q57 69 57 252v454h146v-908h-146v102z" />
    <glyph glyph-name="uni1EE8" unicode="&#x1ee8;" horiz-adv-x="1361" 
d="M907 1722l-256 -258l-92 53l205 282zM1137 1177q86 50 86 134q0 88 -86 160l102 51q114 -83 114 -215q0 -85 -56.5 -156.5t-159.5 -113.5v-559q0 -54 -5 -99t-16 -83.5t-27.5 -71.5t-40.5 -63q-71 -91 -181 -140q-102 -46 -217 -46q-163 0 -296 91q-103 71 -146 166
q-44 97 -44 246v887h153v-846q0 -53 2.5 -92.5t7.5 -66.5q10 -55 36 -97q38 -62 115 -102q80 -43 172 -43q125 0 225 77q65 50 87 116q22 65 22 208v846h153v-188z" />
    <glyph glyph-name="uni1EE9" unicode="&#x1ee9;" horiz-adv-x="1165" 
d="M768 1312l-257 -258l-91 53l204 282zM914 720q86 50 86 134q0 86 -86 160l102 51q114 -83 114 -215q0 -85 -56.5 -156t-159.5 -114v-580h-146v102q-101 -126 -273 -126q-167 0 -272 115q-25 27 -43 59t-29 71.5t-16.5 87.5t-5.5 107v492h146v-475q0 -49 3.5 -87t11 -67.5
t19 -52.5t28.5 -41q63 -69 171 -69q132 0 203 86q57 69 57 252v454h146v-188z" />
    <glyph glyph-name="uni1EEA" unicode="&#x1eea;" horiz-adv-x="1361" 
d="M394 1722l144 77l204 -282l-91 -53zM1137 1177q86 50 86 134q0 88 -86 160l102 51q114 -83 114 -215q0 -85 -56.5 -156.5t-159.5 -113.5v-559q0 -54 -5 -99t-16 -83.5t-27.5 -71.5t-40.5 -63q-71 -91 -181 -140q-102 -46 -217 -46q-163 0 -296 91q-103 71 -146 166
q-44 97 -44 246v887h153v-846q0 -53 2.5 -92.5t7.5 -66.5q10 -55 36 -97q38 -62 115 -102q80 -43 172 -43q125 0 225 77q65 50 87 116q22 65 22 208v846h153v-188z" />
    <glyph glyph-name="uni1EEB" unicode="&#x1eeb;" horiz-adv-x="1165" 
d="M255 1312l144 77l204 -282l-92 -53zM914 720q86 50 86 134q0 86 -86 160l102 51q114 -83 114 -215q0 -85 -56.5 -156t-159.5 -114v-580h-146v102q-101 -126 -273 -126q-167 0 -272 115q-25 27 -43 59t-29 71.5t-16.5 87.5t-5.5 107v492h146v-475q0 -49 3.5 -87t11 -67.5
t19 -52.5t28.5 -41q63 -69 171 -69q132 0 203 86q57 69 57 252v454h146v-188z" />
    <glyph glyph-name="uni1EEC" unicode="&#x1eec;" horiz-adv-x="1361" 
d="M616 1476q1 44 28 81l19 28q29 41 29 61q0 49 -68 49q-32 0 -76 -16l-41 104q72 28 134 28q84 0 134 -38t50 -101q0 -49 -32 -99l-32 -49q-14 -23 -14 -48h-131zM1137 1177q86 50 86 134q0 88 -86 160l102 51q114 -83 114 -215q0 -85 -56.5 -156.5t-159.5 -113.5v-559
q0 -54 -5 -99t-16 -83.5t-27.5 -71.5t-40.5 -63q-71 -91 -181 -140q-102 -46 -217 -46q-163 0 -296 91q-103 71 -146 166q-44 97 -44 246v887h153v-846q0 -53 2.5 -92.5t7.5 -66.5q10 -55 36 -97q38 -62 115 -102q80 -43 172 -43q125 0 225 77q65 50 87 116q22 65 22 208
v846h153v-188z" />
    <glyph glyph-name="uni1EED" unicode="&#x1eed;" horiz-adv-x="1165" 
d="M477 1055q1 42 28 81l19 28q29 41 29 60q0 49 -68 49q-31 0 -76 -15l-41 104q73 27 134 27q85 0 134.5 -37.5t49.5 -100.5q0 -49 -32 -99l-32 -50q-14 -22 -14 -47h-131zM914 720q86 50 86 134q0 86 -86 160l102 51q114 -83 114 -215q0 -85 -56.5 -156t-159.5 -114v-580
h-146v102q-101 -126 -273 -126q-167 0 -272 115q-25 27 -43 59t-29 71.5t-16.5 87.5t-5.5 107v492h146v-475q0 -49 3.5 -87t11 -67.5t19 -52.5t28.5 -41q63 -69 171 -69q132 0 203 86q57 69 57 252v454h146v-188z" />
    <glyph glyph-name="uni1EEE" unicode="&#x1eee;" horiz-adv-x="1361" 
d="M930 1694q-8 -85 -48.5 -129.5t-112.5 -44.5q-54 0 -139 39q-66 31 -89 31q-24 0 -35.5 -15.5t-17.5 -57.5l-116 27q9 82 51.5 128t111.5 46q45 0 142 -44q60 -26 87 -26q25 0 35 15t13 59zM1137 1177q86 50 86 134q0 88 -86 160l102 51q114 -83 114 -215
q0 -85 -56.5 -156.5t-159.5 -113.5v-559q0 -54 -5 -99t-16 -83.5t-27.5 -71.5t-40.5 -63q-71 -91 -181 -140q-102 -46 -217 -46q-163 0 -296 91q-103 71 -146 166q-44 97 -44 246v887h153v-846q0 -53 2.5 -92.5t7.5 -66.5q10 -55 36 -97q38 -62 115 -102q80 -43 172 -43
q125 0 225 77q65 50 87 116q22 65 22 208v846h153v-188z" />
    <glyph glyph-name="uni1EEF" unicode="&#x1eef;" horiz-adv-x="1165" 
d="M800 1285q-7 -85 -47.5 -129.5t-112.5 -44.5q-54 0 -139 39q-66 31 -89 31q-24 0 -35.5 -15.5t-18.5 -58.5l-115 28q9 81 52 127.5t110 46.5q47 0 143 -44q58 -26 87 -26q25 0 35 15t13 58zM914 720q86 50 86 134q0 86 -86 160l102 51q114 -83 114 -215q0 -85 -56.5 -156
t-159.5 -114v-580h-146v102q-101 -126 -273 -126q-167 0 -272 115q-25 27 -43 59t-29 71.5t-16.5 87.5t-5.5 107v492h146v-475q0 -49 3.5 -87t11 -67.5t19 -52.5t28.5 -41q63 -69 171 -69q132 0 203 86q57 69 57 252v454h146v-188z" />
    <glyph glyph-name="uni1EF0" unicode="&#x1ef0;" horiz-adv-x="1361" 
d="M651 -123q21 0 40 -8t33 -22t22 -32.5t8 -39.5t-8 -40t-22 -33t-33 -22t-40 -8t-40 8t-32.5 22t-21.5 33t-8 41q0 21 8 39t22 32t32.5 22t39.5 8zM1137 1177q86 50 86 134q0 88 -86 160l102 51q114 -83 114 -215q0 -85 -56.5 -156.5t-159.5 -113.5v-559q0 -54 -5 -99
t-16 -83.5t-27.5 -71.5t-40.5 -63q-71 -91 -181 -140q-102 -46 -217 -46q-163 0 -296 91q-103 71 -146 166q-44 97 -44 246v887h153v-846q0 -53 2.5 -92.5t7.5 -66.5q10 -55 36 -97q38 -62 115 -102q80 -43 172 -43q125 0 225 77q65 50 87 116q22 65 22 208v846h153v-188z
" />
    <glyph glyph-name="uni1EF1" unicode="&#x1ef1;" horiz-adv-x="1165" 
d="M522 -123q21 0 40 -8t33 -22t22 -32.5t8 -39.5t-8 -40t-22 -33t-33 -22t-40 -8t-40 8t-32.5 22.5t-21.5 33.5t-8 40t8 39t22 32t32.5 22t39.5 8zM914 720q86 50 86 134q0 86 -86 160l102 51q114 -83 114 -215q0 -85 -56.5 -156t-159.5 -114v-580h-146v102
q-101 -126 -273 -126q-167 0 -272 115q-25 27 -43 59t-29 71.5t-16.5 87.5t-5.5 107v492h146v-475q0 -49 3.5 -87t11 -67.5t19 -52.5t28.5 -41q63 -69 171 -69q132 0 203 86q57 69 57 252v454h146v-188z" />
    <glyph glyph-name="Ygrave" unicode="&#x1ef2;" horiz-adv-x="1038" 
d="M276 1722l144 77l205 -282l-92 -53zM442 570l-442 795h167l352 -652l352 652h166l-442 -795v-570h-153v570z" />
    <glyph glyph-name="ygrave" unicode="&#x1ef3;" horiz-adv-x="904" 
d="M209 1312l144 77l204 -282l-92 -53zM370 41l-369 867h157l289 -690l299 690h156l-607 -1386h-150z" />
    <glyph glyph-name="uni1EF4" unicode="&#x1ef4;" horiz-adv-x="1038" 
d="M518 -123q21 0 40 -8t33 -22t22 -32.5t8 -39.5t-8 -40t-22 -33t-33 -22t-40 -8t-40 8t-32.5 22t-21.5 33t-8 41q0 21 8 39t22 32t32.5 22t39.5 8zM442 570l-442 795h167l352 -652l352 652h166l-442 -795v-570h-153v570z" />
    <glyph glyph-name="uni1EF5" unicode="&#x1ef5;" horiz-adv-x="904" 
d="M663 -123q21 0 40 -8t33 -22t22 -32.5t8 -39.5t-8 -40t-22 -33t-33 -22t-40 -8t-40 8t-32.5 22t-21.5 33t-8 41q0 21 8 39t22 32t32.5 22t39.5 8zM370 41l-369 867h157l289 -690l299 690h156l-607 -1386h-150z" />
    <glyph glyph-name="uni1EF6" unicode="&#x1ef6;" horiz-adv-x="1038" 
d="M469 1476q1 44 28 81l19 28q29 41 29 61q0 49 -68 49q-32 0 -76 -16l-41 104q72 28 134 28q84 0 134 -38t50 -101q0 -49 -32 -99l-32 -49q-14 -23 -14 -48h-131zM442 570l-442 795h167l352 -652l352 652h166l-442 -795v-570h-153v570z" />
    <glyph glyph-name="uni1EF7" unicode="&#x1ef7;" horiz-adv-x="904" 
d="M402 1055q1 42 28 81l19 28q28 38 28 60q0 49 -68 49q-32 0 -75 -15l-41 104q73 27 134 27q84 0 133.5 -37.5t49.5 -100.5q0 -49 -32 -99l-31 -50q-14 -22 -14 -47h-131zM370 41l-369 867h157l289 -690l299 690h156l-607 -1386h-150z" />
    <glyph glyph-name="uni1EF8" unicode="&#x1ef8;" horiz-adv-x="1038" 
d="M798 1694q-8 -85 -48.5 -129.5t-112.5 -44.5q-54 0 -139 39q-66 31 -89 31q-24 0 -35.5 -15.5t-17.5 -57.5l-116 27q9 82 51.5 128t111.5 46q45 0 142 -44q60 -26 87 -26q25 0 35 15t13 59zM442 570l-442 795h167l352 -652l352 652h166l-442 -795v-570h-153v570z" />
    <glyph glyph-name="uni1EF9" unicode="&#x1ef9;" horiz-adv-x="904" 
d="M730 1285q-7 -85 -47.5 -129.5t-112.5 -44.5q-54 0 -139 39q-66 31 -89 31q-24 0 -35.5 -15.5t-18.5 -58.5l-115 28q9 81 52 127.5t110 46.5q47 0 143 -44q58 -26 87 -26q25 0 35 15t13 58zM370 41l-369 867h157l289 -690l299 690h156l-607 -1386h-150z" />
    <glyph glyph-name="uni2002" unicode="&#x2002;" horiz-adv-x="1024" 
 />
    <glyph glyph-name="uni2003" unicode="&#x2003;" horiz-adv-x="2048" 
 />
    <glyph glyph-name="uni2004" unicode="&#x2004;" horiz-adv-x="683" 
 />
    <glyph glyph-name="uni2005" unicode="&#x2005;" horiz-adv-x="512" 
 />
    <glyph glyph-name="uni2006" unicode="&#x2006;" horiz-adv-x="137" 
 />
    <glyph glyph-name="uni2007" unicode="&#x2007;" horiz-adv-x="1139" 
 />
    <glyph glyph-name="uni2009" unicode="&#x2009;" horiz-adv-x="256" 
 />
    <glyph glyph-name="uni200A" unicode="&#x200a;" horiz-adv-x="68" 
 />
    <glyph glyph-name="uni2011" unicode="&#x2011;" horiz-adv-x="522" 
d="M75 537h372v-131h-372v131z" />
    <glyph glyph-name="figuredash" unicode="&#x2012;" horiz-adv-x="1159" 
d="M239 537h681v-131h-681v131z" />
    <glyph glyph-name="endash" unicode="&#x2013;" horiz-adv-x="1159" 
d="M239 537h681v-131h-681v131z" />
    <glyph glyph-name="emdash" unicode="&#x2014;" horiz-adv-x="1264" 
d="M75 537h1114v-131h-1114v131z" />
    <glyph glyph-name="afii00208" unicode="&#x2015;" horiz-adv-x="1264" 
d="M75 537h1114v-131h-1114v131z" />
    <glyph glyph-name="underscoredbl" unicode="&#x2017;" horiz-adv-x="1024" 
d="M0 -345h1024v-106h-1024v106zM0 -133h1024v-106h-1024v106z" />
    <glyph glyph-name="quoteleft" unicode="&#x2018;" horiz-adv-x="535" 
d="M250 923l-134 49l206 462l97 -39z" />
    <glyph glyph-name="quoteright" unicode="&#x2019;" horiz-adv-x="467" 
d="M239 1434l134 -49l-206 -462l-98 39z" />
    <glyph glyph-name="quotesinglbase" unicode="&#x201a;" horiz-adv-x="467" 
d="M239 200l134 -49l-206 -462l-98 39z" />
    <glyph glyph-name="quotereversed" unicode="&#x201b;" horiz-adv-x="467" 
d="M229 1434l170 -472l-98 -39l-206 462z" />
    <glyph glyph-name="quotedblleft" unicode="&#x201c;" horiz-adv-x="836" 
d="M250 923l-134 49l206 462l97 -39zM550 923l-134 49l206 462l97 -39z" />
    <glyph glyph-name="quotedblright" unicode="&#x201d;" horiz-adv-x="835" 
d="M586 1434l133 -49l-205 -462l-98 39zM286 1434l133 -49l-205 -462l-98 39z" />
    <glyph glyph-name="quotedblbase" unicode="&#x201e;" horiz-adv-x="835" 
d="M586 200l133 -49l-205 -462l-98 39zM286 200l133 -49l-205 -462l-98 39z" />
    <glyph glyph-name="dagger" unicode="&#x2020;" 
d="M488 1361h147v-453h308v-142h-308v-1143h-147v1143h-307v142h307v453z" />
    <glyph glyph-name="daggerdbl" unicode="&#x2021;" 
d="M488 77h-307v142h307v547h-307v142h307v453h147v-453h308v-142h-308v-547h308v-142h-308v-454h-147v454z" />
    <glyph glyph-name="bullet" unicode="&#x2022;" horiz-adv-x="983" 
d="M496 969q122 0 208 -95q74 -82 74 -191q0 -127 -95 -213q-82 -74 -192 -74q-126 0 -212 95q-74 82 -74 194q0 124 95 210q82 74 196 74z" />
    <glyph glyph-name="ellipsis" unicode="&#x2026;" horiz-adv-x="1528" 
d="M764 182q21 0 39.5 -8t32 -21.5t21.5 -32t8 -39.5t-8 -39.5t-21.5 -32t-32 -21.5t-39.5 -8t-39.5 8t-32 22t-21.5 32.5t-8 39.5t8 39t22 31.5t32 21.5t39 8zM1274 182q21 0 39.5 -8t32 -21.5t21.5 -32t8 -39.5t-8 -39.5t-21.5 -32t-32 -21.5t-39.5 -8t-39.5 8t-32 22
t-21.5 32.5t-8 39.5t8 39t22 31.5t32 21.5t39 8zM255 182q21 0 39.5 -8t32 -21.5t21.5 -32t8 -39.5t-8 -39.5t-21.5 -32t-32 -21.5t-39.5 -8t-39.5 8t-32 22t-21.5 32.5t-8 39.5t8 39t22 31.5t32 21.5t39 8z" />
    <glyph glyph-name="perthousand" unicode="&#x2030;" horiz-adv-x="2590" 
d="M2173 718q-197 0 -197 -317q0 -310 197 -310q196 0 196 314q0 313 -196 313zM2169 823q318 0 318 -419q0 -418 -314 -418q-315 0 -315 424q0 413 311 413zM417 1274q-197 0 -197 -317q0 -310 196 -310q197 0 197 314q0 313 -196 313zM413 1379q318 0 318 -419
q0 -418 -314 -418q-315 0 -315 424q0 413 311 413zM1275 1389l84 -49l-790 -1365l-84 48zM1428 718q-197 0 -197 -317q0 -310 196 -310q197 0 197 314q0 313 -196 313zM1424 823q318 0 318 -419q0 -418 -314 -418q-315 0 -315 424q0 413 311 413z" />
    <glyph glyph-name="minute" unicode="&#x2032;" horiz-adv-x="351" 
d="M102 1434l134 -49l-206 -462l-98 39z" />
    <glyph glyph-name="second" unicode="&#x2033;" horiz-adv-x="651" 
d="M402 1434l133 -49l-205 -462l-98 39zM102 1434l133 -49l-205 -462l-98 39z" />
    <glyph glyph-name="guilsinglleft" unicode="&#x2039;" horiz-adv-x="579" 
d="M232 455l243 -301l-95 -75l-305 375l305 384l95 -75z" />
    <glyph glyph-name="guilsinglright" unicode="&#x203a;" horiz-adv-x="579" 
d="M347 455l-243 308l95 75l305 -384l-305 -375l-95 75z" />
    <glyph glyph-name="uni203E" unicode="&#x203e;" horiz-adv-x="1024" 
d="M0 1703h1024v-135h-1024v135z" />
    <glyph glyph-name="slash.aalt" unicode="&#x2044;" horiz-adv-x="369" 
d="M537 1389l84 -49l-790 -1365l-84 48z" />
    <glyph glyph-name="zerosuperior" unicode="&#x2070;" horiz-adv-x="792" 
d="M396 1550q-197 0 -197 -318q0 -309 196 -309q197 0 197 313q0 314 -196 314zM392 1655q318 0 318 -419q0 -418 -314 -418q-315 0 -315 424q0 413 311 413z" />
    <glyph glyph-name="foursuperior" unicode="&#x2074;" horiz-adv-x="792" 
d="M549 1602l-320 -492h234v208h116v-208h101v-104h-101v-175h-116v175h-364v105l355 548z" />
    <glyph glyph-name="fivesuperior" unicode="&#x2075;" horiz-adv-x="792" 
d="M297 1363q47 11 78 11q134 0 220 -95q67 -76 67 -179q0 -128 -97 -210q-83 -72 -196 -72q-66 0 -127.5 26.5t-101.5 72.5q-6 8 -16 22t-24 34l94 64q5 -10 6 -13q50 -101 166 -101q75 0 128 50q52 49 52 123q0 75 -51 126q-52 50 -127 50q-73 0 -117 -44l-8 -8l-89 18
l84 403h383v-105h-288z" />
    <glyph glyph-name="sixsuperior" unicode="&#x2076;" horiz-adv-x="792" 
d="M392 1262q-75 0 -124 -48q-50 -50 -50 -120q0 -72 50 -122q49 -49 124 -49q73 0 125 50q50 50 50 124q0 70 -50 118q-50 47 -125 47zM447 1659l89 -64l-170 -234q27 3 38 3q29 0 58.5 -6.5t57 -18.5t52.5 -29t44 -38q66 -72 66 -174q0 -124 -95 -208q-81 -72 -193 -72
q-128 0 -213 88q-78 79 -78 191q0 96 65 185z" />
    <glyph glyph-name="sevensuperior" unicode="&#x2077;" horiz-adv-x="792" 
d="M554 1535h-409v105h545v-86l-409 -742l-101 51z" />
    <glyph glyph-name="eightsuperior" unicode="&#x2078;" horiz-adv-x="792" 
d="M395 1553q-30 0 -55.5 -9.5t-43.5 -26t-28.5 -40t-10.5 -50.5q0 -52 40 -86q41 -35 99 -35q30 0 56 9t44.5 25.5t29 39t10.5 49.5t-10.5 49.5t-29 39t-44.5 26t-57 9.5zM395 1204q-35 0 -64 -10.5t-50 -29t-32.5 -44.5t-11.5 -57t12 -57t33 -44.5t50 -29t64 -10.5
t64.5 10.5t50.5 29t33 44.5t12 57t-11.5 57t-33 45t-51 29t-65.5 10zM230 1263q-81 72 -81 165q0 108 87 176q64 51 160 51q112 0 180 -67q68 -66 68 -160q0 -93 -81 -165q108 -83 108 -197q0 -119 -92 -190q-76 -58 -183 -58q-124 0 -204 77q-70 67 -70 171q0 114 108 197z
" />
    <glyph glyph-name="ninesuperior" unicode="&#x2079;" horiz-adv-x="792" 
d="M399 1550q-74 0 -124 -50q-51 -50 -51 -124q0 -69 50 -116t125 -47q74 0 124 48q50 47 50 118q0 72 -50 122q-49 49 -124 49zM344 812l-89 65l174 236q-14 -1 -23.5 -1.5t-14.5 -0.5q-132 0 -216 90q-66 72 -66 173q0 125 95 209q81 72 193 72q128 0 213 -88
q78 -80 78 -193q0 -96 -65 -185z" />
    <glyph glyph-name="zeroinferior" unicode="&#x2080;" horiz-adv-x="792" 
d="M396 453q-197 0 -197 -318q0 -310 196 -310q197 0 197 314t-196 314zM392 558q318 0 318 -419t-314 -419q-315 0 -315 424q0 414 311 414z" />
    <glyph glyph-name="oneinferior" unicode="&#x2081;" horiz-adv-x="792" 
d="M486 -265h-116v677l-121 -67l-55 91l193 107h99v-808z" />
    <glyph glyph-name="twoinferior" unicode="&#x2082;" horiz-adv-x="792" 
d="M137 -265v95l303 327q91 97 91 181q0 51 -38 83t-99 32q-65 0 -100 -29t-56 -100l-106 28q50 206 266 206q109 0 179 -62q68 -63 68 -163q0 -114 -87 -208l-264 -285h369v-105h-526z" />
    <glyph glyph-name="threeinferior" unicode="&#x2083;" horiz-adv-x="792" 
d="M331 210h47q54 0 89 18q57 30 57 103q0 55 -36 88t-97 33q-48 0 -79 -17q-31 -18 -69 -70l-96 52q88 141 245 141q100 0 167 -55q78 -65 78 -171q0 -105 -78 -166q96 -72 96 -193q0 -124 -93 -194q-76 -58 -179 -58q-96 0 -163.5 47.5t-94.5 135.5l-8 29l113 29
q5 -20 10 -34t10 -23q39 -77 133 -77q34 0 63 10.5t50 29.5t32.5 45t11.5 58q0 66 -42 100t-120 34h-47v105z" />
    <glyph glyph-name="fourinferior" unicode="&#x2084;" horiz-adv-x="792" 
d="M549 505l-320 -492h234v208h116v-208h101v-104h-101v-174h-116v174h-364v105l355 548z" />
    <glyph glyph-name="fiveinferior" unicode="&#x2085;" horiz-adv-x="792" 
d="M297 267q46 11 78 11q134 0 220 -95q67 -76 67 -180q0 -126 -97 -210q-83 -72 -196 -72q-67 0 -128 26.5t-101 72.5q-6 7 -16 21t-24 35l94 64l6 -12q49 -102 166 -102q75 0 128 50q52 49 52 123q0 75 -50 125q-51 52 -128 52q-73 0 -117 -44q-2 -2 -4 -4.5t-4 -4.5
l-89 19l84 402h383v-105h-288z" />
    <glyph glyph-name="sixinferior" unicode="&#x2086;" horiz-adv-x="792" 
d="M392 164q-75 0 -124 -48q-50 -50 -50 -120q0 -71 50 -121q49 -49 124 -49t125 49q50 50 50 124q0 71 -50 118t-125 47zM447 563l89 -65l-170 -233q13 1 22.5 1.5t15.5 0.5q29 0 58.5 -6.5t57 -18.5t52.5 -29t44 -38q66 -72 66 -174q0 -124 -95 -208q-81 -72 -193 -72
q-128 0 -213 88q-78 79 -78 192q0 95 65 184z" />
    <glyph glyph-name="seveninferior" unicode="&#x2087;" horiz-adv-x="792" 
d="M554 438h-409v105h545v-86l-409 -742l-101 51z" />
    <glyph glyph-name="eightinferior" unicode="&#x2088;" horiz-adv-x="792" 
d="M395 456q-30 0 -55.5 -9.5t-43.5 -26t-28.5 -40t-10.5 -50.5q0 -26 10.5 -48t29.5 -38.5t44 -25.5t55 -9t56 9t44.5 25.5t29 39t10.5 49.5t-10.5 49.5t-29 39t-44.5 26t-57 9.5zM395 107q-35 0 -64 -10.5t-50 -29t-32.5 -44.5t-11.5 -57t12 -57t33 -44.5t50 -29t64 -10.5
t64.5 10.5t50.5 29t33 44.5t12 57t-11.5 57t-33 45t-51 29t-65.5 10zM230 165q-81 73 -81 166q0 108 87 176q64 51 160 51q112 0 180 -67q68 -66 68 -160q0 -93 -81 -166q108 -81 108 -196q0 -119 -92 -190q-76 -58 -183 -58q-124 0 -204 77q-70 67 -70 171q0 115 108 196z
" />
    <glyph glyph-name="nineinferior" unicode="&#x2089;" horiz-adv-x="792" 
d="M399 453q-74 0 -124 -50q-51 -50 -51 -124q0 -69 50 -116t125 -47q74 0 124 48q50 47 50 118q0 72 -50 122q-49 49 -124 49zM344 -285l-89 64l174 237q-13 -1 -22.5 -1.5t-15.5 -0.5q-132 0 -216 90q-66 72 -66 173q0 125 95 209q81 72 193 72q128 0 213 -88
q78 -80 78 -193q0 -96 -65 -185z" />
    <glyph glyph-name="franc" unicode="&#x20a3;" horiz-adv-x="1412" 
d="M978 661q86 104 245 104q15 0 39 -3v-131q-13 1 -22.5 1h-17.5q-93 0 -153 -45q-52 -40 -71 -103q-20 -66 -20 -191v-293h-146v763h146v-102zM901 1224h-502v-461h364v-142h-364v-621h-153v1365h655v-141z" />
    <glyph glyph-name="lira" unicode="&#x20a4;" horiz-adv-x="1145" 
d="M476 481q6 -44 6 -91q0 -77 -23 -126q-22 -48 -93 -122h677v-142h-889v142q55 43 91 79q83 80 83 194q0 16 -1 32.5t-3 33.5h-170v130h145l-15 70l-15 70l-1 3h-114v130h95q-3 33 -3 68q0 161 61 259q53 87 159 137q90 41 188 41q223 0 348 -215l-121 -78
q-91 151 -233 151q-123 0 -187.5 -76.5t-64.5 -221.5q0 -14 1 -30.5t3 -34.5h445v-130h-422q11 -53 18.5 -88.5t12.5 -54.5h391v-130h-369z" />
    <glyph glyph-name="peseta" unicode="&#x20a7;" horiz-adv-x="1234" 
d="M439 1026h442q-13 60 -41 98q-37 53 -97 76.5t-158 23.5h-146v-198zM439 896v-204h146q132 0 203.5 49t92.5 155h-442zM1033 896q-27 -175 -141.5 -259t-325.5 -84h-127v-553h-153v896h-115v130h115v339h280h20q387 0 447 -339h120v-130h-120z" />
    <glyph glyph-name="uni20AB" unicode="&#x20ab;" horiz-adv-x="1152" 
d="M82 -133h1024v-135h-1024v135zM531 800q-149 0 -243 -120q-70 -88 -70 -225q0 -160 95 -255q92 -92 224 -92q155 0 245 121q67 89 67 227q0 157 -91 252q-87 92 -227 92zM849 1198v167h146v-167h123v-132h-123v-1066h-146v119q-128 -143 -319 -143q-120 0 -223 61
q-112 64 -175 178q-61 109 -61 239q0 217 154 358q132 120 305 120q187 0 319 -144v278h-246v132h246z" />
    <glyph glyph-name="Euro" unicode="&#x20ac;" horiz-adv-x="1630" 
d="M137 477l54 137h122q-3 28 -3 67q0 20 1 37.5t3 31.5h-177l54 137h150q25 80 63 148q94 165 256 260q160 94 354 94q262 0 472 -201l-55 -139q-199 197 -420 197q-229 0 -383 -157q-82 -83 -127 -202h866l-55 -137h-844q-2 -18 -3 -36t-1 -37q0 -17 1 -33t3 -30h790
l-55 -137h-703q7 -17 14.5 -34t16.5 -34q70 -133 196 -210q131 -80 284 -80q115 0 214 47q97 47 206 156v-198q-182 -148 -415 -148q-239 0 -421 136q-183 137 -255 365h-203z" />
    <glyph glyph-name="uni20B4" unicode="&#x20b4;" horiz-adv-x="1249" 
d="M310 611q82 85 232 140l8 3h-379v130h643q60 58 60 134q0 98 -71 164q-71 65 -177 65q-151 0 -247 -151l-121 78q132 215 364 215q179 0 295 -111q108 -104 108 -257q0 -75 -28 -137h81v-130h-192q-67 -46 -143 -75l-128 -50q-8 -3 -19 -7.5t-25 -10.5h507v-130h-679
q-21 -41 -21 -94q0 -126 99 -207q73 -61 176 -61q215 0 277 249l148 -41q-27 -114 -82 -187q-125 -164 -339 -164q-196 0 -322 134q-111 117 -111 279q0 46 11 92h-64v130h139z" />
    <glyph glyph-name="uni2101" unicode="&#x2101;" horiz-adv-x="1946" 
d="M1421 1389l85 -49l-790 -1365l-85 48zM394 884h278l-140 351zM352 778l-87 -222h-122l325 809h132l275 -684l-73 -125l-88 222h-362zM1680 625q-62 92 -145 92q-39 0 -70 -15q-67 -33 -67 -105t111 -112l81 -30q199 -73 199 -220q0 -114 -91 -187q-76 -62 -182 -62
q-81 0 -145.5 39t-97.5 108q-10 21 -24 76l112 30q13 -48 24 -70q42 -76 134 -76q65 0 111 44q42 40 42 97q0 43 -30.5 71.5t-104.5 56.5l-77 29q-177 66 -177 207q0 110 89 175q71 50 165 50q39 0 72 -7.5t61.5 -24.5t53.5 -43.5t49 -64.5z" />
    <glyph glyph-name="afii61248" unicode="&#x2105;" horiz-adv-x="2161" 
d="M1426 1389l84 -49l-790 -1365l-84 48zM1584 716q-143 0 -237 -111q-73 -85 -73 -206q0 -131 100 -222q91 -84 213 -84q140 0 236 107q77 86 77 204q0 132 -96 225q-90 87 -220 87zM1587 823q188 0 317 -138q113 -121 113 -281q0 -185 -142 -309q-124 -109 -292 -109
q-111 0 -214 59q-98 55 -153 150q-59 98 -59 216q0 178 145 305q122 107 285 107zM809 1164q-20 20 -36.5 34.5t-27.5 22.5q-74 51 -169 51q-153 0 -244 -111q-72 -87 -72 -201q0 -137 99 -227q91 -84 218 -84q68 0 121 24q50 24 115 87l81 -78q-25 -24 -45.5 -41.5
t-37.5 -28.5q-103 -70 -233 -70q-198 0 -326 140q-109 118 -109 278q0 187 143 312q122 107 292 107q92 0 160 -30q67 -30 152 -107z" />
    <glyph glyph-name="afii61352" unicode="&#x2116;" horiz-adv-x="2170" 
d="M1749 1285q-75 0 -123 -51q-49 -50 -49 -130q0 -85 52 -134q49 -48 124 -48q39 0 71 13.5t55.5 37.5t36 58t12.5 75q0 82 -52 131q-50 48 -127 48zM1757 1389q126 0 213 -93q74 -80 74 -192q0 -130 -96 -215q-83 -71 -195 -71q-133 0 -218 93q-74 82 -74 195
q0 127 97 212q82 71 199 71zM164 0v1365h143l830 -1116v1116h153v-1365h-143l-830 1116v-1116h-153zM1495 580v109h515v-109h-515z" />
    <glyph glyph-name="uni2117" unicode="&#x2117;" horiz-adv-x="1754" 
d="M866 1344q-168 0 -320 -89q-154 -91 -242 -242q-89 -152 -89 -330q0 -177 89 -331q88 -154 242 -242q155 -89 331 -89t331 89t242 242q89 155 89 336q0 286 -219 486q-188 170 -454 170zM889 1457q199 0 375 -104q180 -106 284 -283q104 -179 104 -387q0 -207 -104 -388
q-103 -179 -284 -283t-387 -104t-387 104q-91 52 -161.5 122.5t-122.5 160.5q-104 182 -104 394q0 333 257 569q218 199 530 199zM770 707h127q180 0 180 157t-180 157h-127v-314zM770 585v-363h-132v921h247q85 0 139.5 -16.5t95.5 -54.5q88 -81 88 -211q0 -128 -88 -207
q-41 -37 -95.5 -53t-139.5 -16h-115z" />
    <glyph glyph-name="trademark" unicode="&#x2122;" horiz-adv-x="1424" 
d="M391 1302v-563h-84v563h-170v76h424v-76h-170zM638 739v639h88l237 -406l238 406h87v-639h-84v492l-205 -351h-71l-205 351v-492h-85z" />
    <glyph glyph-name="Omega" unicode="&#x2126;" horiz-adv-x="1638" 
d="M970 248q74 23 126 52q129 73 199 190q67 112 67 246q0 220 -167 369q-158 141 -376 141q-153 0 -283 -75q-129 -74 -197 -197q-62 -112 -62 -238q0 -194 134 -334q103 -107 258 -154v-248h-512v142h359v7q-13 6 -25.5 12t-24.5 13q-79 45 -140.5 103.5t-107.5 131.5
q-95 152 -95 327q0 174 95 326q95 153 258 241q161 86 343 86q183 0 344 -86q164 -89 259 -241q94 -151 94 -326q0 -251 -180 -435q-95 -100 -213 -152v-7h359v-142h-512v248z" />
    <glyph glyph-name="estimated" unicode="&#x212e;" horiz-adv-x="1515" 
d="M1180 755v248q-26 66 -62 111q-129 159 -357 159q-191 0 -302 -115q-50 -51 -104 -154v-249h825zM355 663v-283q28 -77 53 -120q12 -20 27 -38.5t34 -34.5q104 -95 294 -95q322 0 450 281h117q-39 -126 -114 -214q-158 -183 -455 -183q-295 0 -458 190q-160 185 -160 508
q0 340 177 531q172 184 446 184q226 0 387 -125q173 -134 207 -401q5 -35 7.5 -85t3.5 -115h-1016z" />
    <glyph glyph-name="onethird" unicode="&#x2153;" horiz-adv-x="1707" 
d="M415 557h-116v677l-121 -67l-55 91l193 107h99v-808zM1217 476h48q52 0 88 17q57 30 57 103q0 55 -36 88t-96 33q-48 0 -80 -17q-32 -18 -69 -69l-96 52q89 140 245 140q100 0 167 -55q78 -65 78 -170q0 -106 -78 -167q96 -72 96 -193q0 -123 -92 -194q-76 -58 -180 -58
q-96 0 -163 47.5t-95 135.5l-8 29l113 30q5 -20 10 -34.5t10 -23.5q39 -77 133 -77q34 0 63 10.5t50 29.5t32.5 45t11.5 58q0 66 -41.5 100.5t-119.5 34.5h-48v105zM1119 1389l84 -49l-790 -1365l-84 48z" />
    <glyph glyph-name="twothirds" unicode="&#x2154;" horiz-adv-x="1707" 
d="M1217 476h47q52 0 88 17q58 30 58 103q0 55 -36.5 88t-96.5 33q-49 0 -80 -18q-29 -17 -68 -68l-96 52q89 140 245 140q100 0 167 -55q78 -65 78 -170q0 -106 -78 -167q96 -71 96 -193q0 -124 -93 -194q-76 -58 -179 -58q-96 0 -163.5 47.5t-94.5 135.5l-8 29l112 30
q10 -40 21 -58q39 -77 133 -77q34 0 63 10.5t50 29.5t32.5 45t11.5 58q0 66 -42 100.5t-120 34.5h-47v105zM114 555v95l303 327q91 97 91 180q0 52 -38 83.5t-99 31.5q-33 0 -57.5 -6.5t-42.5 -21.5t-31.5 -39.5t-24.5 -60.5l-106 28q49 205 266 205q109 0 179 -62
q68 -62 68 -163q0 -113 -87 -207l-264 -285h369v-105h-526zM1213 1389l85 -49l-790 -1365l-85 48z" />
    <glyph glyph-name="onefifth" unicode="&#x2155;" horiz-adv-x="1707" 
d="M415 557h-116v677l-121 -67l-55 91l193 107h99v-808zM1158 532q46 11 78 11q134 0 220 -95q67 -76 67 -180q0 -126 -97 -210q-83 -72 -196 -72q-66 0 -127.5 26.5t-101.5 72.5q-6 8 -16 22t-24 34l94 64q2 -4 4 -7t3 -5q49 -102 165 -102q76 0 129 50q51 49 51 123
q0 76 -49 125q-52 52 -129 52q-69 0 -125 -53l-89 19l84 402h383v-105h-287zM1119 1389l84 -49l-790 -1365l-84 48z" />
    <glyph glyph-name="twofifth" unicode="&#x2156;" horiz-adv-x="1707" 
d="M1157 532q46 11 77 11q136 0 220 -95q68 -77 68 -180q0 -126 -97 -210q-83 -72 -196 -72q-67 0 -128 26.5t-101 72.5q-6 8 -16 22t-24 34l94 64l6 -12q49 -102 166 -102q75 0 128 50q52 49 52 123q0 75 -50 125q-51 52 -129 52q-69 0 -124 -53l-90 19l85 402h383v-105
h-288zM114 555v95l303 327q91 97 91 180q0 52 -38 83.5t-99 31.5q-33 0 -57.5 -6.5t-42.5 -21.5t-31.5 -39.5t-24.5 -60.5l-106 28q49 205 266 205q109 0 179 -62q68 -62 68 -163q0 -113 -87 -207l-264 -285h369v-105h-526zM1221 1389l85 -49l-790 -1365l-85 48z" />
    <glyph glyph-name="threefifth" unicode="&#x2157;" horiz-adv-x="1707" 
d="M320 1032h47q54 0 89 18q57 28 57 102q0 55 -36 88t-97 33q-48 0 -79 -17q-30 -18 -69 -69l-96 52q89 140 245 140q100 0 167 -55q78 -65 78 -170q0 -106 -78 -167q96 -71 96 -193q0 -124 -93 -194q-76 -58 -179 -58q-97 0 -164 47.5t-94 135.5l-8 29l113 30
q5 -20 10 -34.5t10 -23.5q39 -77 133 -77q34 0 63 10.5t50 29.5t32.5 45t11.5 58q0 66 -42 100.5t-120 34.5h-47v105zM1158 532q46 11 77 11q136 0 220 -95q68 -77 68 -180q0 -126 -97 -210q-83 -72 -196 -72q-67 0 -128 26.5t-101 72.5q-6 8 -16 22t-24 34l94 64l6 -12
q49 -102 166 -102q75 0 128 50q52 49 52 123q0 75 -50 125q-51 52 -128 52q-70 0 -125 -53l-90 19l85 402h383v-105h-288zM1181 1389l84 -49l-790 -1365l-84 48z" />
    <glyph glyph-name="fourfifth" unicode="&#x2158;" horiz-adv-x="1707" 
d="M1158 532q46 11 78 11q134 0 220 -95q67 -76 67 -180q0 -126 -97 -210q-83 -72 -196 -72q-66 0 -127.5 26.5t-101.5 72.5q-6 8 -16 22t-24 34l94 64q2 -4 4 -7t3 -5q49 -102 165 -102q76 0 129 50q51 49 51 123q0 76 -49 125q-52 52 -129 52q-72 0 -125 -53l-89 19
l84 402h383v-105h-287zM565 1325l-320 -492h234v208h116v-208h100v-104h-100v-174h-116v174h-365v105l356 548zM1210 1389l85 -49l-790 -1365l-85 48z" />
    <glyph glyph-name="onesixth" unicode="&#x2159;" horiz-adv-x="1707" 
d="M415 557h-116v677l-121 -67l-55 91l193 107h99v-808zM1234 430q-76 0 -125 -48q-50 -50 -50 -120q0 -72 50 -122q49 -49 124 -49q74 0 126 50q50 50 50 124q0 70 -50 118q-50 47 -125 47zM1287 828l90 -64l-170 -234q25 3 37 3q29 0 58.5 -6.5t57 -18.5t52.5 -29t44 -38
q66 -74 66 -174q0 -125 -95 -209q-81 -72 -193 -72q-128 0 -213 88q-78 79 -78 192q0 96 66 185zM1146 1389l84 -49l-790 -1365l-84 48z" />
    <glyph glyph-name="fivesixth" unicode="&#x215a;" horiz-adv-x="1707" 
d="M1232 430q-75 0 -124 -48q-50 -50 -50 -120q0 -72 50 -122q49 -49 124 -49q74 0 126 50q50 50 50 124q0 70 -50 118q-50 47 -126 47zM1287 828l90 -64l-171 -234q27 3 38 3q60 0 117 -25t96 -67q66 -72 66 -174q0 -125 -95 -209q-81 -72 -194 -72q-128 0 -213 88
q-78 79 -78 192q0 96 65 185zM303 1088q47 11 78 11q134 0 220 -95q67 -76 67 -180q0 -126 -97 -210q-83 -72 -196 -72q-66 0 -127.5 27t-101.5 72q-6 8 -16 22t-24 34l94 64l6 -12q49 -102 166 -102q75 0 128 50q52 49 52 123q0 75 -50 125q-51 52 -128 52q-76 0 -117 -44
l-8 -8l-89 18l84 402h383v-105h-288zM1227 1389l84 -49l-790 -1365l-84 48z" />
    <glyph glyph-name="oneeighth" unicode="&#x215b;" horiz-adv-x="1707" 
d="M1266 721q-30 0 -55.5 -9.5t-44 -26t-29 -40t-10.5 -50.5q0 -26 10.5 -48t29.5 -38.5t44.5 -25.5t55.5 -9t56 9t44.5 25.5t29 39t10.5 49.5t-10.5 49.5t-29.5 39t-45 26t-56 9.5zM1266 372q-35 0 -64 -10.5t-50 -29t-32.5 -44.5t-11.5 -57t12 -57t33 -44.5t50.5 -29
t64.5 -10.5q34 0 63.5 10.5t50.5 29t33 44.5t12 57t-11.5 57t-33 45t-51 29t-65.5 10zM1100 431q-81 72 -81 166q0 107 87 175q66 51 161 51q110 0 180 -67q68 -66 68 -159q0 -94 -81 -166q108 -81 108 -197q0 -119 -92 -190q-76 -58 -182 -58q-125 0 -205 77
q-70 67 -70 171q0 116 107 197zM415 555h-116v678l-121 -68l-55 92l193 107h99v-809zM1119 1389l84 -49l-790 -1365l-84 48z" />
    <glyph glyph-name="threeeighths" unicode="&#x215c;" horiz-adv-x="1707" 
d="M1172 1389l84 -49l-790 -1365l-84 48zM320 1032h47q54 0 89 18q57 28 57 102q0 55 -36 88t-97 33q-48 0 -79 -17q-30 -18 -69 -69l-96 52q89 140 245 140q100 0 167 -55q78 -65 78 -170q0 -106 -78 -167q96 -71 96 -193q0 -124 -93 -194q-76 -58 -179 -58
q-97 0 -164 47.5t-94 135.5l-8 29l113 30q5 -20 10 -34.5t10 -23.5q39 -77 133 -77q34 0 63 10.5t50 29.5t32.5 45t11.5 58q0 66 -42 100.5t-120 34.5h-47v105zM1246 721q-30 0 -55.5 -9.5t-43.5 -26t-28.5 -40t-10.5 -50.5q0 -26 10.5 -48t29.5 -38.5t44.5 -25.5t55.5 -9
t55.5 9t44.5 25.5t29.5 39t10.5 49.5t-10.5 49.5t-29.5 39t-45 26t-57 9.5zM1246 372q-35 0 -63.5 -10.5t-49.5 -29t-32.5 -44.5t-11.5 -57t12 -57t33 -44.5t50 -29t64 -10.5t64.5 10.5t50.5 29t33 44.5t12 57t-11.5 57t-33 45t-51.5 29t-66 10zM1081 431q-81 72 -81 166
q0 107 87 175q66 51 161 51q111 0 179 -67q69 -66 69 -159t-81 -166q108 -81 108 -197q0 -120 -93 -190q-76 -58 -182 -58q-124 0 -204 77q-70 67 -70 171q0 114 107 197z" />
    <glyph glyph-name="fiveeighths" unicode="&#x215d;" horiz-adv-x="1707" 
d="M1177 1389l85 -49l-790 -1365l-85 48zM1246 372q-35 0 -63.5 -10.5t-49.5 -29t-32.5 -44.5t-11.5 -57t12 -57t33 -44.5t50 -29t64 -10.5t64.5 10.5t50.5 29t33 44.5t12 57t-11.5 57t-33 45t-51.5 29t-66 10zM1246 721q-30 0 -55.5 -9.5t-43.5 -26t-28.5 -40t-10.5 -50.5
q0 -26 10.5 -48t29.5 -38.5t44.5 -25.5t55.5 -9t55.5 9t44.5 25.5t29.5 39t10.5 49.5t-10.5 49.5t-29.5 39t-45 26t-57 9.5zM1081 431q-81 72 -81 166q0 107 87 175q66 51 161 51q111 0 179 -67q69 -66 69 -159t-81 -166q108 -81 108 -197q0 -120 -93 -190q-76 -58 -182 -58
q-124 0 -204 77q-70 67 -70 171q0 114 107 197zM303 1088q47 11 78 11q134 0 220 -95q67 -76 67 -180q0 -126 -97 -210q-83 -72 -196 -72q-66 0 -127.5 27t-101.5 72q-6 8 -16 22t-24 34l94 64l6 -12q49 -102 166 -102q75 0 128 50q52 49 52 123q0 75 -50 125
q-51 52 -128 52q-76 0 -117 -44l-8 -8l-89 18l84 402h383v-105h-288z" />
    <glyph glyph-name="seveneighths" unicode="&#x215e;" horiz-adv-x="1707" 
d="M1246 372q-35 0 -64 -10.5t-50 -29t-32.5 -44.5t-11.5 -57t12 -57t33 -44.5t50 -29t64 -10.5t64.5 10.5t50.5 29t33 44.5t12 57t-11.5 57t-33 45t-51 29t-65.5 10zM1247 721q-30 0 -55.5 -9.5t-44 -26t-29 -40t-10.5 -50.5q0 -26 10.5 -48t29.5 -38.5t44.5 -25.5t55.5 -9
t56 9t44.5 25.5t29 39t10.5 49.5t-10.5 49.5t-29.5 39t-45 26t-56 9.5zM1081 431q-81 73 -81 166q0 107 87 175q66 51 161 51q110 0 180 -67q68 -66 68 -159q0 -94 -81 -166q107 -83 107 -197q0 -119 -92 -190q-76 -58 -183 -58q-123 0 -203 77q-71 68 -71 171
q0 116 108 197zM566 1260h-409v105h545v-86l-409 -742l-101 51zM1105 1389l84 -49l-790 -1365l-84 48z" />
    <glyph glyph-name="partialdiff" unicode="&#x2202;" horiz-adv-x="1217" 
d="M599 800q-151 0 -245 -120q-70 -89 -70 -225q0 -158 95 -255q92 -92 226 -92q158 0 251 121q69 90 69 227q0 157 -94 252q-92 92 -232 92zM853 860q-64 147 -218 249q-153 100 -353 129l19 127q319 -44 511 -215q269 -239 269 -633q0 -178 -70 -303q-65 -116 -177 -180
q-103 -58 -229 -58q-213 0 -349 156q-119 137 -119 322q0 217 154 358q130 120 312 120q140 0 250 -72z" />
    <glyph glyph-name="emptyset" unicode="&#x2205;" horiz-adv-x="1266" 
d="M754 1044q-48 19 -118 19q-181 0 -296 -138q-89 -107 -89 -242q0 -183 159 -310l3 -1zM513 320h1q67 -18 119 -18q168 0 282 123q101 109 101 257q0 95 -45 182q-45 85 -117 129zM337 -25l-100 51l123 241q-6 4 -12.5 9t-13.5 10q-197 161 -197 395q0 228 171 377
q139 121 327 121q89 0 172 -30l123 241l100 -51l-124 -244q224 -161 224 -411q0 -141 -75 -262q-32 -54 -74.5 -95t-95.5 -72q-119 -69 -263 -69q-92 0 -161 33z" />
    <glyph glyph-name="Delta" unicode="&#x2206;" horiz-adv-x="1365" 
d="M272 141h818l-411 1077zM1303 0h-1242l526 1365h191z" />
    <glyph glyph-name="product" unicode="&#x220f;" horiz-adv-x="1365" 
d="M392 1223v-1223h-153v1223h-171v142h1229v-142h-171v-1223h-153v1223h-581z" />
    <glyph glyph-name="summation" unicode="&#x2211;" horiz-adv-x="1365" 
d="M623 708l-358 521v136h861v-141h-691l359 -516l-389 -566h762v-142h-943v135z" />
    <glyph glyph-name="minus" unicode="&#x2212;" horiz-adv-x="1139" 
d="M979 703v-128h-819v128h819z" />
    <glyph glyph-name="fraction" unicode="&#x2215;" horiz-adv-x="369" 
d="M537 1389l84 -49l-790 -1365l-84 48z" />
    <glyph glyph-name="uni2218" unicode="&#x2218;" horiz-adv-x="983" 
d="M488 872q-80 0 -137 -62q-48 -54 -48 -127q0 -85 62 -141q54 -48 126 -48q85 0 141 62q48 54 48 128q0 81 -62 140q-53 48 -130 48zM496 970q122 0 208 -95q74 -83 74 -192q0 -127 -95 -213q-83 -74 -192 -74q-126 0 -212 95q-74 83 -74 194q0 124 95 211q80 74 196 74z
" />
    <glyph glyph-name="radical" unicode="&#x221a;" horiz-adv-x="1292" 
d="M380 682l167 -503l506 1517h158h422v-142h-469l-525 -1554h-184l-230 682h-157v128h270z" />
    <glyph glyph-name="infinity" unicode="&#x221e;" horiz-adv-x="1427" 
d="M636 691q-62 98 -119 141t-125 43q-83 0 -137 -58q-48 -51 -48 -126q0 -92 71 -145q53 -38 116 -38q67 0 122 41q53 41 120 142zM790 692q65 -101 120 -143t124 -42q83 0 138 58q47 52 47 126q0 93 -71 146q-53 38 -116 38q-67 0 -122 -41q-53 -40 -120 -142zM717 589
q-152 -212 -337 -212q-156 0 -245 110q-67 83 -67 208q0 176 140 263q78 48 173 48q187 0 329 -211q145 211 338 211q161 0 248 -116q62 -83 62 -201q0 -147 -98 -236q-88 -77 -210 -77q-191 0 -333 213z" />
    <glyph glyph-name="integral" unicode="&#x222b;" horiz-adv-x="610" 
d="M68 -228q39 -10 62 -10q102 0 102 150v1306q0 286 220 286q39 0 90 -13v-133q-39 10 -62 10q-102 0 -102 -150v-1306q0 -286 -220 -286q-41 0 -90 13v133z" />
    <glyph glyph-name="similar" unicode="&#x223c;" horiz-adv-x="1139" 
d="M77 558q33 72 75 129q81 109 206 109q76 0 229 -71q45 -20 76 -33.5t50 -19.5q36 -12 72 -12q57 0 98 30q40 31 86 109l93 -54q-56 -114 -114 -163q-81 -69 -182 -69q-44 0 -96 18q-26 9 -73.5 29t-117.5 52q-80 37 -135 37q-51 0 -92 -35t-85 -115z" />
    <glyph glyph-name="uni2243" unicode="&#x2243;" horiz-adv-x="1139" 
d="M1062 536v-126h-985v126h985zM77 704q34 74 75 130q81 108 207 108q75 0 228 -71q46 -21 77.5 -34.5t48.5 -18.5q34 -12 72 -12q58 0 98 31q39 29 86 109l93 -55q-55 -112 -114 -163q-81 -69 -182 -69q-44 0 -96 18q-55 19 -191 81q-80 37 -134 37q-98 0 -178 -149z" />
    <glyph glyph-name="approxequal" unicode="&#x2248;" horiz-adv-x="1139" 
d="M77 394q34 73 75 129q81 109 207 109q78 0 228 -70q45 -21 76.5 -34.5t49.5 -18.5q34 -12 72 -12q58 0 98 31q39 29 86 108l93 -55q-56 -113 -114 -162q-81 -69 -182 -69q-44 0 -96 18q-26 9 -74 29t-117 51q-80 37 -134 37q-99 0 -178 -150zM77 739q34 73 75 129
q81 108 207 108q78 0 228 -70q93 -43 127 -53q34 -12 71 -12q57 0 98 30q39 29 86 109l93 -54q-56 -114 -114 -163q-81 -69 -182 -69q-44 0 -96 18q-26 9 -74 29t-117 51q-80 37 -134 37q-97 0 -178 -149z" />
    <glyph glyph-name="notequal" unicode="&#x2260;" horiz-adv-x="1139" 
d="M732 838h330v-128h-394l-70 -141h464v-128h-528l-137 -274l-105 43l115 231h-330v128h394l70 141h-464v128h528l137 274l105 -43z" />
    <glyph glyph-name="lessequal" unicode="&#x2264;" horiz-adv-x="1139" 
d="M1013 0h-887v128h887v-128zM1013 270l-887 398v134l887 403v-147l-723 -320l723 -321v-147z" />
    <glyph glyph-name="greaterequal" unicode="&#x2265;" horiz-adv-x="1139" 
d="M126 0v128h887v-128h-887zM126 270v147l723 321l-723 320v147l887 -403v-134z" />
    <glyph glyph-name="dotmath" unicode="&#x22c5;" horiz-adv-x="464" 
d="M232 784q21 0 39.5 -8t32 -21.5t21.5 -32t8 -39.5t-8 -39.5t-21.5 -32t-32 -21.5t-39.5 -8t-39.5 8t-32 22t-21.5 32.5t-8 39.5t8 39t22 31.5t32 21.5t39 8z" />
    <glyph glyph-name="lozenge" unicode="&#x25ca;" horiz-adv-x="1365" 
d="M1047 683l-365 517l-363 -517l363 -518zM682 -81l-543 764l543 764l544 -764z" />
    <glyph glyph-name="openbullet" unicode="&#x25e6;" horiz-adv-x="983" 
d="M488 872q-80 0 -137 -62q-48 -54 -48 -127q0 -85 62 -141q54 -48 126 -48q85 0 141 62q48 54 48 128q0 81 -62 140q-53 48 -130 48zM496 970q122 0 208 -95q74 -83 74 -192q0 -127 -95 -213q-83 -74 -192 -74q-126 0 -212 95q-74 83 -74 194q0 124 95 211q80 74 196 74z
" />
    <glyph glyph-name="ff" unicode="&#xfb00;" horiz-adv-x="985" 
d="M777 776v-776h-146v776h-92v132h92v184q0 287 220 287q34 0 90 -14v-132q-39 10 -62 10q-102 0 -102 -151v-184h167v-132h-167zM303 776v-776h-146v776h-92v132h92v164q0 286 220 286q39 0 90 -13v-133q-39 10 -62 10q-54 0 -78 -36t-24 -114v-164h168v-132h-168z" />
    <glyph glyph-name="fi" unicode="&#xfb01;" horiz-adv-x="889" 
d="M685 1314q21 0 40 -8t33.5 -22.5t22.5 -33.5t8 -40q0 -45 -30 -75t-75 -30q-21 0 -40 8.5t-33.5 22.5t-22.5 33.5t-8 41.5q0 21 8.5 39.5t22.5 33t33.5 22.5t40.5 8zM758 908v-908h-146v908h146zM303 776v-776h-146v776h-92v132h92v184q0 287 220 287q34 0 90 -14v-132
q-39 10 -62 10q-102 0 -102 -151v-184h168v-132h-168z" />
    <glyph glyph-name="fl" unicode="&#xfb02;" horiz-adv-x="889" 
d="M758 0h-146v1365h146v-1365zM303 776v-776h-146v776h-92v132h92v184q0 287 220 287q34 0 90 -14v-132q-39 10 -62 10q-102 0 -102 -151v-184h168v-132h-168z" />
    <glyph glyph-name="ffi" unicode="&#xfb03;" horiz-adv-x="1363" 
d="M303 776v-776h-146v776h-92v132h92v164q0 286 220 286q39 0 90 -13v-133q-39 10 -62 10q-54 0 -78 -36t-24 -114v-164h168v-132h-168zM1159 1314q21 0 40 -8t33.5 -22.5t22.5 -33.5t8 -40q0 -45 -30 -75t-75 -30q-21 0 -40 8.5t-33.5 22.5t-22.5 33.5t-8 41.5
q0 21 8.5 39.5t22.5 33t33.5 22.5t40.5 8zM1232 908v-908h-146v908h146zM777 776v-776h-146v776h-92v132h92v184q0 287 220 287q34 0 90 -14v-132q-39 10 -62 10q-102 0 -102 -151v-184h167v-132h-167z" />
    <glyph glyph-name="ffl" unicode="&#xfb04;" horiz-adv-x="1363" 
d="M303 776v-776h-146v776h-92v132h92v164q0 286 220 286q39 0 90 -13v-133q-39 10 -62 10q-54 0 -78 -36t-24 -114v-164h168v-132h-168zM1232 1365v-1365h-146v1365h146zM777 776v-776h-146v776h-92v132h92v184q0 287 220 287q34 0 90 -14v-132q-39 10 -62 10
q-102 0 -102 -151v-184h167v-132h-167z" />
    <glyph glyph-name="glyph155" horiz-adv-x="512" 
 />
    <glyph glyph-name="glyph172" horiz-adv-x="1171" 
 />
    <glyph glyph-name="glyph210" horiz-adv-x="512" 
 />
    <glyph glyph-name="seven.denominator" horiz-adv-x="792" 
d="M554 704h-409v105h545v-86l-409 -743l-101 52z" />
    <glyph glyph-name="eight.denominator" horiz-adv-x="792" 
d="M395 721q-30 0 -55.5 -9.5t-43.5 -26t-28.5 -40t-10.5 -50.5q0 -26 10.5 -48t29.5 -38.5t44 -25.5t55 -9t56 9t44.5 25.5t29 39t10.5 49.5t-10.5 49.5t-29 39t-44.5 26t-57 9.5zM395 372q-35 0 -64 -10.5t-50 -29t-32.5 -44.5t-11.5 -57t12 -57t33 -44.5t50 -29t64 -10.5
t64.5 10.5t50.5 29t33 44.5t12 57t-11.5 57t-33 45t-51 29t-65.5 10zM230 431q-81 73 -81 166q0 107 87 175q66 51 160 51q112 0 180 -67q68 -66 68 -159q0 -94 -81 -166q108 -83 108 -197q0 -119 -92 -190q-76 -58 -183 -58q-124 0 -204 77q-70 67 -70 171q0 114 108 197z
" />
    <glyph glyph-name="nine.denominator" horiz-adv-x="792" 
d="M399 718q-74 0 -124 -50q-51 -50 -51 -124q0 -69 50 -116t125 -47q74 0 124 48q50 47 50 118q0 72 -50 122q-49 49 -124 49zM344 -20l-89 65l174 236q-14 -1 -23.5 -1.5t-14.5 -0.5q-132 0 -216 90q-66 72 -66 173q0 125 95 209q81 72 193 72q128 0 213 -88
q78 -80 78 -193q0 -95 -65 -184z" />
    <glyph glyph-name="four.fitted" horiz-adv-x="1139" 
d="M798 1312l-541 -870h448v361h152v-361h168v-139h-168v-303h-152v303h-607v156l578 930z" />
    <glyph glyph-name="three.fitted" horiz-adv-x="1139" 
d="M477 785h58q97 0 157 33q24 13 43.5 34t33.5 46.5t21.5 55t7.5 60.5q0 106 -70 170t-184 64q-39 0 -71.5 -7.5t-61 -25t-54.5 -45t-53 -67.5l-125 71q128 215 366 215q163 0 272 -91q128 -107 128 -279q0 -178 -143 -291q175 -123 175 -335q0 -204 -146 -320
q-122 -97 -288 -97q-221 0 -345 166q-41 56 -66 137l-7 29l148 41q19 -72 50 -120q71 -110 222 -110q122 0 202 77q79 76 79 194q0 123 -75.5 189t-215.5 66h-58v140z" />
    <glyph glyph-name="zero.denominator" horiz-adv-x="792" 
d="M396 718q-197 0 -197 -317q0 -310 196 -310q197 0 197 314q0 313 -196 313zM392 823q318 0 318 -419q0 -418 -314 -418q-315 0 -315 424q0 413 311 413z" />
    <glyph glyph-name="two.fitted" horiz-adv-x="1139" 
d="M171 0v135l500 563q156 175 156 325q0 101 -68 163q-70 62 -179 62q-56 0 -99 -12.5t-76.5 -39.5t-57.5 -68.5t-41 -98.5l-138 38q19 88 69 156q120 166 348 166q179 0 286 -106q105 -102 105 -264q0 -192 -138 -348l-473 -531h642v-140h-836z" />
    <glyph glyph-name="one.fitted" horiz-adv-x="1139" 
d="M538 138v1056l-215 -124l-70 122l299 173h138v-1227h239v-138h-655v138h264z" />
    <glyph glyph-name="Dieresis" horiz-adv-x="975" 
d="M299 1722q21 0 40 -8t33 -22t22 -32.5t8 -39.5t-8 -40t-22 -33t-33 -22t-40 -8t-40 8t-32.5 22t-21.5 33t-8 41q0 21 8 39t22 32t32.5 22t39.5 8zM675 1722q21 0 39.5 -8t32.5 -22t22 -32.5t8 -39.5t-8 -40t-22 -33t-32.5 -22t-39.5 -8t-40 8t-33 22.5t-22 33.5t-8 40
t8 39t22.5 32t33 22t39.5 8z" />
    <glyph glyph-name="Dotaccent" horiz-adv-x="975" 
d="M487 1722q21 0 40 -8t33 -22t22 -32.5t8 -39.5t-8 -40t-22 -33t-33 -22t-40 -8t-40 8t-32.5 22t-21.5 33t-8 41q0 21 8 39t22 32t32.5 22t39.5 8z" />
    <glyph glyph-name="Ring" horiz-adv-x="975" 
d="M488 1725q-22 0 -41.5 -8.5t-33.5 -22.5t-22.5 -34t-8.5 -42q0 -21 8.5 -40t22.5 -33t33.5 -22.5t41.5 -8.5q21 0 40.5 8.5t33.5 22.5t22.5 33.5t8.5 40.5q0 45 -30 75.5t-75 30.5zM487 1799q78 0 131 -52q53 -53 53 -127t-53 -127q-55 -53 -130 -53q-77 0 -130 53
q-54 52 -54 129q0 72 54 125q53 52 129 52z" />
    <glyph glyph-name="Acute" horiz-adv-x="975" 
d="M747 1722l-256 -258l-92 53l205 282z" />
    <glyph glyph-name="Grave" horiz-adv-x="975" 
d="M228 1722l143 77l205 -282l-92 -53z" />
    <glyph glyph-name="five.fitted" horiz-adv-x="1139" 
d="M375 871q2 1 9 3.5t18 6.5q58 20 130 20q99 0 194 -42q94 -44 156 -117q107 -125 107 -297q0 -210 -154 -349q-131 -120 -314 -120q-181 0 -317 116q-47 40 -102 126l120 86q27 -57 64 -94q95 -95 231 -95q135 0 228 95q92 94 92 227q0 141 -88 233q-92 96 -229 96
q-30 0 -61 -6.5t-59.5 -18t-52.5 -28t-42 -36.5l-118 26l134 662h600v-141h-475z" />
    <glyph glyph-name="Caron" horiz-adv-x="975" 
d="M488 1609l188 178l105 -53l-235 -258h-116l-236 258l105 53z" />
    <glyph glyph-name="Breve" horiz-adv-x="975" 
d="M343 1744q4 -70 39 -109q40 -45 102 -45q127 0 148 154l125 -10q-10 -103 -63 -169q-80 -101 -209 -101q-132 0 -212 101q-54 69 -55 169z" />
    <glyph glyph-name="Tilde" horiz-adv-x="975" 
d="M767 1694q-8 -85 -48.5 -129.5t-112.5 -44.5q-54 0 -139 39q-66 31 -89 31q-24 0 -35.5 -15.5t-17.5 -57.5l-116 27q9 82 51.5 128t111.5 46q45 0 142 -44q60 -26 87 -26q25 0 35 15t13 59z" />
    <glyph glyph-name="Hungarumlaut" horiz-adv-x="975" 
d="M886 1722l-256 -258l-85 53l205 282zM599 1722l-256 -258l-85 53l205 282z" />
    </font>
</defs>
</svg>
